<svg id="Layer_1" data-name="Layer 1" xmlns="http://www.w3.org/2000/svg" xmlns:xlink="http://www.w3.org/1999/xlink" viewBox="0 0 16 16" width="16" height="16"><defs><style>.cls-1{fill:none;}.cls-2{clip-path:url(#clip-path);}.cls-3{fill:#fff;}</style><clipPath id="clip-path"><rect class="cls-1" x="0.92" y="1.03" width="14.16" height="13.94"/></clipPath></defs><title>quote</title><g class="cls-2"><path class="cls-3" d="M5.71,5.44s0,0,0-.05.12-.22.18-.34,0,0,0,0,0,0,0,0h0s0-.06,0-.09,0,0,0,0,0,0,0,0,0,0,0,0,0,0,0,0A4,4,0,0,1,6.5,4l.06,0,.07-.1s0,0,0,0,0,0,0,0a5.22,5.22,0,0,0-.38.54s0,0,0,0,0,0,0,0,0,0,0,0,0,0,0,0-.07.1-.07.14,0,.09-.09.13l-.07.15v0c-.07.11-.13.23-.2.35"/><path class="cls-3" d="M5.7,5.45s0,0,0,0,0,0,0,0"/><path class="cls-3" d="M5.69,5.47s0,0,0,0a0,0,0,0,1,0,0"/><path class="cls-3" d="M5.65,5.56s0,0,0,0"/><path class="cls-3" d="M5.29,6.32h0"/><path class="cls-3" d="M4.8,11.54h0"/><path class="cls-3" d="M4.8,11.54h0Z"/><path class="cls-3" d="M4.81,11.55h0Z"/><path class="cls-3" d="M4.81,11.55h0"/><path class="cls-3" d="M4.81,11.55s0,0,0,0h0"/><path class="cls-3" d="M4.79,7.67s0,0,0,0v0s0,0,0,0Z"/><path class="cls-3" d="M4.58,8.74h0"/><path class="cls-3" d="M4.81,11.55h0"/><path class="cls-3" d="M4.81,11.54h0"/><path class="cls-3" d="M4.81,11.55h0"/><path class="cls-3" d="M4.82,11.55h0"/><path class="cls-3" d="M4.86,11.49h0s0,0,0,0h0"/><path class="cls-3" d="M4.73,7.86h0"/><path class="cls-3" d="M4.73,7.88v0s0,0,0,0"/><path class="cls-3" d="M4.71,7.94s0,0,0,0v0"/><path class="cls-3" d="M4.69,8.07s0,0,0,0v0"/><path class="cls-3" d="M4.68,8.11h0"/><path class="cls-3" d="M4.81,11.56h0"/><path class="cls-3" d="M4.82,11.55h0"/><polyline class="cls-3" points="4.82 11.55 4.82 11.54 4.82 11.55"/><path class="cls-3" d="M4.82,11.55h0"/><path class="cls-3" d="M4.82,11.55h0"/><path class="cls-3" d="M4.82,11.54h0"/><path class="cls-3" d="M4.83,11.54s0,0,0,0h0"/><path class="cls-3" d="M4.83,11.54h0"/><path class="cls-3" d="M4.83,11.54h0"/><path class="cls-3" d="M4.84,11.53h0"/><path class="cls-3" d="M4.84,11.53h0"/><polyline class="cls-3" points="4.84 11.53 4.84 11.52 4.84 11.53"/><path class="cls-3" d="M4.84,11.52h0"/><polyline class="cls-3" points="4.85 11.52 4.85 11.52 4.85 11.52 4.85 11.52 4.85 11.52"/><path class="cls-3" d="M4.85,11.52s0,0,0,0h0"/><path class="cls-3" d="M4.64,8.25s0,0,0,0,0,0,0,0"/><path class="cls-3" d="M4.64,8.28h0"/><path class="cls-3" d="M4.83,11.54h0"/><path class="cls-3" d="M4.83,11.54Z"/><path class="cls-3" d="M4.83,11.54h0s0,0,0,0h0"/><path class="cls-3" d="M4.84,11.53Z"/><polyline class="cls-3" points="4.85 11.53 4.84 11.52 4.85 11.53"/><path class="cls-3" d="M4.48,9.24s0-.05,0-.07,0,0,0,0v0c0-.06,0-.09,0-.14s0-.08,0-.13h0s0,0,0,0,0,0,0,0,0,0,0,0V8.67s0-.05,0-.09v0h0s0,0,0,0,0,0,0,0h0s0-.06,0-.08a.14.14,0,0,1,0-.06,2.65,2.65,0,0,1,0-.27s0,0,0,0,0,0,0,0h0s0,0,0,0,0,0,0-.05a2.5,2.5,0,0,0,.07-.26l0-.12,0-.06s0,0,0-.06a.07.07,0,0,0,0-.06s0,0,0,0a.07.07,0,0,1,0,0l0,.06a.34.34,0,0,0,0,.1l0,.18c0,.07,0,.15,0,.22a.25.25,0,0,1,0,.12s0,0,0,0v.09a.68.68,0,0,1,0,.14s0,0,0,0a.82.82,0,0,0-.06.26s0,0,0,.06,0,.1,0,.16A.58.58,0,0,1,4.5,9a.21.21,0,0,1,0,.08v0h0v.08s0,.05,0,.07"/><path class="cls-3" d="M4.49,10h0a0,0,0,0,1,0,0"/><path class="cls-3" d="M4.49,10s0,0,0,0"/><path class="cls-3" d="M6.67,3.68h0"/><path class="cls-3" d="M4.47,9.56s0,0,0,0,0,0,0,0"/><path class="cls-3" d="M4.47,9.64h0"/><path class="cls-3" d="M4.48,9.88s0,0,0,0,0,0,0,0"/><path class="cls-3" d="M4.48,10.07h0"/><path class="cls-3" d="M4.48,9.34s0,0,0,.06,0,0,0,0,0,0,0,0"/><path class="cls-3" d="M4.46,9.6h0"/><path class="cls-3" d="M4.46,9.61h0"/><path class="cls-3" d="M6.3,4.16s0,0,0,0h0"/><path class="cls-3" d="M6.22,4.28h0s0,0,0,0"/><path class="cls-3" d="M4.89,7s0,0,0,0,0,0,0,0"/><path class="cls-3" d="M4.83,7.21s0,0,0,0v0a.09.09,0,0,0,0,0s0,0,0,0v0Z"/><path class="cls-3" d="M4.82,11.33h0"/><path class="cls-3" d="M7.21,10.1h0M3.82,2s0,0,0,0,0,0,0,0m-.23.34s0,0,0,0,0,0,0,0a.06.06,0,0,0,0,0l-.09.12s0-.08.07-.11a0,0,0,0,0,0,0s0,0,0-.05l0,0,.14-.16s0,0,0,.06-.06.05-.06.08,0,0,0,0,0,0,0,0m-.13.25v0s0,0,0,0M4.6,14.59s0,0,0,0,0,0,0,0m-.08,0,0,0,0,0M3.84,2s0,0,0,0l-.08.09s0,0,0-.07L3.84,2M4.78,14.5l0,0s0,0,0,0m-.14.06,0,0s0,0,0,0M3.64,2.3s0,0,0,0l0,0s0,0,0,0ZM3.85,2s0-.08,0-.08A.22.22,0,0,1,4,1.79s0,.05,0,.07-.06.08-.1.11M4,1.74a0,0,0,0,1,0,0s0,0,0,0m2.7,10.88,0,0,0,0M6.47,13l0,0s0-.06.05-.05-.07.09-.1.08M4.08,1.7a0,0,0,0,1,0,0l0,0a0,0,0,0,0,0,0Zm.08,13,0,0,0,0m3-4.3s0,.07,0,.12,0-.09,0-.12m-3,4.29,0,0s0,0,0,0m0,0s0,0,0,0v0m-.07,0s0,0,0,0l0,0m0,0H4s0,0,0,0m-.05,0h0m-.11,0h0m-.22,0h0m-.1,0h0m3.67-4.42s0,.05,0,.09,0-.09,0-.09M1.59,7s0,0,0,0,0,0,0,0m0,0s0,0,0,0m0-.08s0,0,0,.07,0,0,0-.07m2.83,7.69,0,0,0,0M1.7,12.63s0,0,0,0l0,0m0-.16v0s0,0,0,0M3.35,2.89s0,0,0,0v0s0,0,0,0m0,0v0s0-.06,0,0M1.57,7.16s0,0,0-.06L1.6,7l0-.16,0-.09v0s0,0,0,0l0,.17s0,0,0,0ZM3.16,3.22h0s0,0,0,0m.1-.16s0,0,0-.05,0,0,0,.05m3.28,9.69,0-.07,0,0s0,0,0,.06Zm-5-5.21s0,0,0,0l0,0m0-.35s0,.06,0,.07,0,0,0,.09,0,0,0,0,0,0,0,0v0s0,0,0,0V7.42s0,0,0,0a.11.11,0,0,1,0-.06s0-.05,0,0a.13.13,0,0,1,0-.09m.66-2s0,0,0,0l-.06.14s0,0,0,0l0,0,0-.07Zm0,0s0,0,0,0m0-.07s0,0,0,0,0,0,0,0M7.1,11.26v0s0,.15,0,0m-.27,1a.17.17,0,0,1,0-.05l0,.05m-.12.24s0,.05,0,.08,0,.05,0,.08,0-.1.08-.16m-2.14,2s0,0,0,0l0,0m-.19,0h0s-.09,0,0,0M1.46,7.82s0,0,0,0a0,0,0,0,1,0,0M6.83,9.59l0,0s0,0,0,0M4.64,14.41h0s-.1,0,0,0m-.18.07,0,0s0,0,0,0Zm2.29-5s0,0,0,0h0m0,0h0c0-.05,0-.1-.07-.15s0,.08.07.11.07.15,0,.06l0,0s0,0,0,0h0M7,11.79s0,0,0,0a.1.1,0,0,1,0,0m-.46,1s0,0,0-.06,0,0,0,.06m-.09.13s.06-.08.08-.11-.06.12-.1.18a3.09,3.09,0,0,1-.33.39S6,13.39,6,13.4s-.07,0-.06.07c-.14.12-.33.32-.5.46L5.36,14l0,0s0,0,0,0l.1-.08a1.94,1.94,0,0,1,.27-.25s0,0,0,0l.39-.39c0-.07.08-.07.1-.12h0a.09.09,0,0,0,0-.05l0,0,.09-.1s0,0,0-.06l0,0c0-.06.09-.11,0,0m-5.1-3s0,0,0,0,0-.08,0-.14,0,0,0,0,0,0,0,0h0a.15.15,0,0,1,0,.08m0-.21v0h0v0Zm5.75,1.61v-.11s0,0,0,.07,0,.13,0,0m0,.14s0,0,0,0,0,0,0,0m0,.14s0,0,0-.06v-.06s0,0,0,.06a.13.13,0,0,1,0,.06m0,0s0,0,0,.09,0-.05,0-.09m-.07.25s-.05.18-.06.25,0,.1-.07.14l-.07.14a2.49,2.49,0,0,1-.15.28s0,0,0,0l0-.06s.07-.09,0-.1A3.27,3.27,0,0,0,6.89,12c0-.08,0-.1.05-.18M6.33,13s0,0,0,0,0,0,0,0m-4.9-1.77s0,0,0,0,0,0,0,0M1.3,9.63l0-.38s0,0,0-.05,0,0,0,0,0,0,0,0h0V9.1s0,0,0,0,0-.23,0-.35v0a.32.32,0,0,1,0-.08.57.57,0,0,0,0-.13.88.88,0,0,1,0-.17s0,0,0-.07,0-.07,0-.08a.3.3,0,0,0,0-.14s0-.06,0-.08,0-.06,0,0a1,1,0,0,0,0,.27s0,0,0,.06a1.62,1.62,0,0,1,0,.21.88.88,0,0,1,0,.17c0,.12,0,.27,0,.4s0,0,0,0,0,.16,0,.29,0,.09,0,.15v.07s0,0,0,0M7.08,11s0,.05,0,.1,0-.05,0-.1m-.26-1.4,0,0s0-.06,0-.06,0,.09,0,.12A1.11,1.11,0,0,1,7,10a0,0,0,0,1,0,.05,2.2,2.2,0,0,1,.13.56c0,.06,0-.05,0-.07s0,.09,0,.13,0,0,0,0,0,.11,0,.15a2.64,2.64,0,0,1,0,.28s0,0,0,0,0-.05,0-.09a.12.12,0,0,1,0-.08s0,0,0,0,0-.15,0-.18a.2.2,0,0,1,0-.11s0,0,0,0a0,0,0,0,1,0-.05.2.2,0,0,0,0-.07s0,0,0,.06,0,0,0,0l0-.1s0,0,0,0,0,0,0,0,0,0,0-.08,0,0,0-.07,0-.14-.08-.25a1.81,1.81,0,0,1-.12-.28M3.37,14.54s-.05,0-.08,0,0,0,.08,0m-.14,0h0m-.13,0s.08,0,.11,0a.15.15,0,0,1-.11,0m0,0s0,0-.07,0l-.07,0-.14-.09s.07,0,.1.05a.07.07,0,0,1,0,0s.11,0,.13.07m-.31-.21,0,0s0,0,0,0h0m2.43-.17s0,0,0,0,0,0,0,0m-3.83-4s0,0,0,0,0,0,0,0m0-.07h0m.13-2a0,0,0,0,1,0,0s0,0,0,0m.05-.24v0h0v0ZM7,10.09s0,.05,0,.09,0-.06,0-.09m-.3-.7s0,.08.08.12-.05-.08-.08-.12M2.72,14.23a1.27,1.27,0,0,1-.12-.1h0s0,0,0,0l0,0,0-.05,0,0s0,0,0,0h0l-.05-.07a.26.26,0,0,1-.08-.11.78.78,0,0,1-.1-.15s0,0,0-.06h0a3.59,3.59,0,0,1-.21-.47,1.12,1.12,0,0,1-.08-.24s0,0,0-.09l0-.05v0a1.42,1.42,0,0,1-.07-.22,1.09,1.09,0,0,1-.05-.17A2,2,0,0,1,1.6,12a.37.37,0,0,0,0-.11h0s0,0,0,0a.79.79,0,0,0,0,.17,2.47,2.47,0,0,0,.11.36c.05.18.11.36.16.54L2,13s0,0,0,.05l0,.1a2.91,2.91,0,0,0,.18.35s0,.07.05.08l0,.08a0,0,0,0,0,0,.05s0,.06,0,.07,0,0,0,0,.09.08.11.13l.06.07s.07,0,0,.06l.07.06s.06,0,0,.05M1.51,11.42h0s0,0,0,0m.3-4.85s0,0,0,0,0,.06,0,.06,0,0,0,.08,0,.08,0,.1,0,.1,0,.15,0,0,0,0,0,0,0,0,0,0,0,.07-.05.26-.08.36,0,0,0,0,0,0,0,.06v0s0,0,0,0a.79.79,0,0,1,0,.13s0-.06,0-.08a.25.25,0,0,1,0-.08,2.7,2.7,0,0,0,0-.28s0,0,0-.06c0-.19.1-.32.15-.55,0,0,0,0,0,0h0s0,0,0,0,0,0,0,0M2,6S2,6,2,6L2,6m.26-.73s0,0,0,0,0,0,0,0M6.74,9.59s.09.15.12.24-.07-.17-.12-.24m-2.92,5h0s0,0,0,0m-1.06-.34h0s0,0,0,0m-1.2-2.57,0,0s0,0,0,0m0-.07s0,0,0,0v0l0,0Zm0-.13s0,0,0,0,0,0,0,0M2,6.08s0,0,0,0,0,0,0,0l0,0s0,0,0,0,0,0,0,.06h0s0,0,0,0,0,0,0,0h0v0l0,0s0,0,0,0a.69.69,0,0,0,0,.08s0,0,0,0,0,0,0,0,0,0,0,0a.34.34,0,0,1,0-.17s0,0,0,0l.06-.15s0-.06,0-.08m2.18,8.39s0,0-.06,0l.06,0m-.06,0s0,0-.06,0,.05,0,.06,0m-.43,0s.09,0,.13,0,0,0-.08,0-.07,0-.05,0m-.14,0h0m-2-3.13s0-.07,0-.12a.59.59,0,0,0,0-.14,8.35,8.35,0,0,1-.1-1,0,0,0,0,1,0,0v.07c0,.06,0,.07,0,.12s0,.19,0,.28a1.43,1.43,0,0,1,0,.23s0,0,0,0,0,.2,0,.3a.38.38,0,0,0,0,.15m2.09,3.15h0s.07,0,0,0m-.14-.05h0s-.08,0-.12,0a1.67,1.67,0,0,1-.53-.25s0,0,.09,0l.1.06.18.08s.06,0,.08,0l.19,0M6.84,9.9h0m-.73-1h0M6.87,10s0,0,0,0l0,.08s0-.08,0-.11h0m-.21-.45,0,0a.05.05,0,0,0,0,0s0,0,0,0Zm0,.1s0,0,0,0,0,0,0,0m0,.09s0,0,0,0,0,0,0,0,0,0,0,0,0,0,0-.06a0,0,0,0,0,0,0l-.06-.11s-.08-.09,0-.11a1.74,1.74,0,0,1,.25.49s0,0,0,0,0,0,0,0v0s0,0,0,0M4.69,1.3a0,0,0,0,1,0,0l0,0a0,0,0,0,1,0,0Zm-.09.17s0,.05,0,.07,0,0,0-.05,0,0,0-.06a1.42,1.42,0,0,0,.13-.12s0,.07,0,.07a.35.35,0,0,1,0,.08h0s0,0,0,0,0,0,0,0M6.41,9.35l0,0,0,0s0,0,0,0ZM5.7,8.88h0s0,0,0,0M5.86,9s0,0,0,0S5.82,9,5.76,9s0,0,0,0h0s0,0,0,0,.12.06.17.09m-.53-.09h0Zm-.53-7s0-.06.06-.08,0,0,0,0,0,0,0,0h0m.36-.44s0,0,0,0,0,0,0,0M4.48,8.89s0,0,0,0h0m1.18.44h0l0,0s0,0,0,0Zm-.15-.09h0m-.57.45h0m-.41.6h0s0,0,0,0h0v0m.29.22h0m0,0h0s0,0,0,0m-.13.07Zm0,0h0m.06,0h0m1.83-8s0,0,0,0l0,0s0,0,0,0l.07-.06s0,0,0,0l0,0s0,0,0,.06,0,0,0,0M5,11.33H5M6.22,4s0,0,0,0a0,0,0,0,1,0,0m-.28.49s0,0,0,0,0,0,0,0a.15.15,0,0,1,0-.08,1,1,0,0,1,.1-.17A1.1,1.1,0,0,1,6.21,4s0,0,0,.07l0,.07a1.86,1.86,0,0,1-.19.33M4.49,7.88s0,0,0-.06l0-.06s0,0,0,0,0-.09,0-.13,0,0,0,0,0-.09,0-.12,0-.07,0-.11,0,0,0,0l0,0s0,0,0-.06,0,0,0,0l0,.07s0,.09,0,.12,0,.17-.07.21-.06.16-.07.23m.39,3.74a0,0,0,0,1,0,0h0l0,0h0l0,0s0,0,0,0m-.58-2s0,0,0,0l0-.53s0,0,0,0v.16s0,0,0,0,0,0,0,0,0,.18,0,.32m.61,1.92s0,0,0,0l0,0v0h0v0h0M4.43,11a1.27,1.27,0,0,1,0-.14v0s0,0,0,0v.07s0,0,0,0,0,0,0,0h0m.19.57h0M4.13,9.35s.11,0,.14,0,0,0,0,0l0,0s0,0,0,0l.21-.06h.27c0,.05,0,0,0,.08s0,0,0,0,0,0,0,0,.07,0,.06.05-.07,0-.11,0,0,0,0,0-.13,0-.18,0l-.12,0s0,0,0,.05-.1,0-.15.09,0,0,0,.06a0,0,0,0,0,0,0A.34.34,0,0,0,4,9.89s0,0,0,0l0,0s0,0,0,0a.82.82,0,0,1,.45-.16h0s.1,0,.12,0,0,0,.06,0h.06l0,0s.06,0,.07,0-.14,0-.18,0H4.63s0,0,0,0,0,0,0,0h0a1.42,1.42,0,0,0-.16,0c-.07.05-.13.05-.2.11s0,0,0,0,0,.05,0,.07l0,0s0,0,0,.05a.62.62,0,0,1,.21-.15s0,0,.06.05,0,0,0,0,0,0,0,0H4.33s0,0,0,0l0,0s0,0,0,0h0a.54.54,0,0,1,.18,0l.06,0s0,0,0,0h0a.61.61,0,0,0-.18.07H4.36s0,0,0,0h0l-.06,0s0,0,0,0,0,0,0,0h0l0,0s0,0,0,0H4.5s0,0,0,0h0l0,0h0l0,0h0l0,0,.07.11s0,0,0,.05,0,0,0,0v0h.09s0,0,0,0,0,0,0,0h0s0,0,0,0H4.67v0h0a.28.28,0,0,0,0-.11.36.36,0,0,0-.06-.11v0l0,0a.07.07,0,0,1,0,0,.33.33,0,0,1,0,.16v0h0s0,0,0,0h0v-.05a.06.06,0,0,0,0,0,.08.08,0,0,0,0,0v0h0v.06a.58.58,0,0,0-.09-.23s0,0,0,0h0l0,0v0a.58.58,0,0,1,.05.11v0a.26.26,0,0,1,0,.11h0l0,.4h.07s0,0,0,0H4.72l0-.41h0v0a.2.2,0,0,0,0-.07.77.77,0,0,0-.07-.17v0h0v0a.77.77,0,0,1,.07.16s0,0,0,.07v0h0c0-.1.08.84,0,.44H4.8s0,0,0,0h0s0,0,0,0,0,0,0,0,.06,0,.09,0h0s0,0,0,0a.33.33,0,0,1,.07.13l0,0H5a.06.06,0,0,0,0-.05s0,0,0,0v0h0s0,0,0,0l0,0h0s0,0,0,0,0,0,0,0v0H5s0,0,0,0,0,0,0,0a.07.07,0,0,1,0,.05s0,0,0,0l0,0v0h0s0,0,0,0h0s0,0,0,0h0s0,0,0,0h0l0,0H4.8l0,0h0s0,0,0,0h0l0,0s0,0,0,0,0,0,0,0h0s0,0,0,0h0s0,0,0,0h0s0,0,0,0,0-.1,0-.15,0,0,0,0a.32.32,0,0,0,0-.14c0-.06,0-.13,0-.19a2.25,2.25,0,0,1-.09-.35s0,0,0,0a4,4,0,0,1-.08-.4v-.19s0,0,0,0,0,0,0,0,0,0,0-.05v-.1c0-.05,0-.05,0-.09s0,0,0,0a.19.19,0,0,0,0-.08h0v0s0-.06,0-.09,0,0,0,0v0l0,0a.17.17,0,0,0,0-.07s0-.07,0-.11,0,0,0,0,0,0,0,0,0,0,0-.05v0s0,0,0,0,0,0,0,0,0,0,0-.06,0,0,0-.05,0,0,0,0,0,0,0,0a2.07,2.07,0,0,0,0-.22s0,0,0,0,0-.07,0-.11,0,0,0-.05,0-.18,0-.26,0,0,0,0,0,0,0,0,0,0,0,0V8s0,0,0-.08,0,0,0-.08a.34.34,0,0,0,0-.12c0-.11.07-.23.12-.35a.75.75,0,0,1,.09-.29s0,0,0,0a1.11,1.11,0,0,1,.07-.16s0,0,0-.07.11-.3.17-.44,0,0,0,0c.08-.19.14-.35.23-.52l0,0s0,0,0,0h0l0-.06s0,0,0,0a.48.48,0,0,1,0-.14.6.6,0,0,1,.14-.26.27.27,0,0,1,.06-.12c.06-.13.13-.22.2-.35s0,0,0,0-.14.24-.22.4c0,0,0,0,0,0a0,0,0,0,0,0,0L5.76,5c.11-.15.19-.35.29-.49s0-.09.07-.14a.07.07,0,0,0,0,0s0,0,0,0l0,0s0-.06,0-.09,0-.05,0-.05h0a.61.61,0,0,1,.07-.1l0,0a.08.08,0,0,1,0,0l.06-.06a1.74,1.74,0,0,0,.11-.18l.07-.11a1,1,0,0,1,.09-.17s0-.07,0-.1,0,0,0,.06l0,.07s0,0,0,0,0,0-.06.07l0,0a.08.08,0,0,1,0,0l0,.05a.15.15,0,0,1,0-.15s0,0,0,0,0,0,0,0a.25.25,0,0,0,0-.08c0-.05.06-.09.09-.12s.06-.1.08-.15,0,0,0,0,0,0,0,0,0,0,0,0,0,0,0-.06,0,.05,0,0a.55.55,0,0,1,.11-.17.76.76,0,0,1,.09-.18s0,0,0,0h0a.07.07,0,0,1,0,0A1.7,1.7,0,0,1,6.66,3s0,0,0,0,0,0,0,0,0,0,0,0l0,0s0,0,0,0l0,0,0-.05s0,0,0,0,0,0,0,0l.08-.09s0,0,0,0l0-.06a.08.08,0,0,0,0,0s0,0,0,0a.93.93,0,0,0,0,.1s0,.07-.08,0,.05-.12.11-.19,0,0,0,0,0,0,0,0,0,0,0-.06,0,0,0,0,.08-.1.14-.17,0,0,0,0,0,0,0,0-.09.09-.15.17,0,0,0,0,0,0,0,0,0,0,0,0,0,0,0,0,0,0,0,0l0,0h0a0,0,0,0,1,0,0,0,0,0,0,0,0,0s0,0,0,0,0,0,0,0,0,0,0,0,0,0,0-.05a0,0,0,0,1,0,0,.42.42,0,0,1,.06-.08s0,0,0,0,0,0,0,0,0,0-.07,0H6.45s0,0,0-.06,0,0,0-.06,0,0,0-.07L6.31,2s0,0,0,0,0,0,0,0,0,0,0,0,0,0,0,0,0,0,0-.06,0,0,0,0,0,0,0-.06S6.07,1.7,6,1.66s0,0,0,0H6a0,0,0,0,1,0,0s0,0,0,0,0,.07-.07.08,0,0-.05-.06,0,0-.07-.06,0,.08-.07.09,0-.06,0-.09-.06,0-.09,0,0,0,0,0,0,0,0,0l0,0s0,0,0,0,0,0,0,0a0,0,0,0,1,0,0s0,0,0-.05,0,0,0-.06,0,0,0,0,0,0,0-.05l0,.05s0,0,0,0V1.42s0,0,0,0,0,0,0,0,0,0,0,0,0,0,0,0,0,0,0,.06,0,0,0,0a0,0,0,0,1,0,0,.17.17,0,0,1,0-.05s0,0,0-.05,0,0,0-.06,0,0,0,0,0,0,0,.07,0,.06,0,0,0-.08,0-.08,0,0-.06.06-.1.1-.15.11,0,0,0-.06,0,0,0,0l0,0S5,1.43,5,1.44s0,0,0,0l0,0s0,.05,0,.08,0,0,0,0a1.47,1.47,0,0,0,.06-.14A.13.13,0,0,1,5,1.43s0-.05,0-.07l0,0h0a.22.22,0,0,0,.06-.05s.06-.06,0-.08A1.1,1.1,0,0,1,5,1.38s0,0,0,0,0,0,0,0,0,0,0,0,0,0,0,0,0,0,0,0a0,0,0,0,0,0-.05.31.31,0,0,0-.07.09s0,0-.06,0a0,0,0,0,1,0,0s0,0,0,.06,0,0,0-.05,0,0,0-.06,0,.08-.08.1,0,0,0,.06a.07.07,0,0,1,0-.06s0,0,0,0,0,0,0,0,0-.09,0-.13,0,0,0,0,0,0,0-.06-.06,0-.07.06,0,0,0,0,0,0,0,0,0-.05,0-.07-.08.11-.12.11,0-.06,0-.09l-.07.09a2.25,2.25,0,0,1-.12.21,0,0,0,0,1,0,0s0,0,0,0,0,0,0,0,0,0,0,0,0,.05,0,.05,0-.05,0-.07,0-.05,0,0l0,.07s0,.06,0,.05a0,0,0,0,0,0,0s0,0,0,0,0,.06,0,0,0,.09,0,.11a.18.18,0,0,1,0-.1l0,0s0,0,0,0l0-.05s0,0,0,0,0,0,0,0,0,0,0,0,0,.05,0,0l0,0s0,0,0,0l-.1.1S4,1.7,4,1.73s0,0,0,0a.35.35,0,0,1-.05.08s0,0,0,0a.21.21,0,0,0,0,.07s0,0,0,0l-.06.09s0,0,0,0,0,0,0,.07a.25.25,0,0,0,0,.07s0,0,0,.05l0,0,0,0s0,0,0,.06,0,0,0,0,0,.06-.05,0,0,0,0,0,0,0,0,0,0,0,0,0,0,0,0,0,0,0,0,0l-.06.07s0,0,0,0,0,0,0,0-.07.09-.09.13a.44.44,0,0,0-.06.1s0,0,0,0,0,0,0,0,0,0,0,0,0,0,0,.06L3.12,3a.08.08,0,0,0,0,0s0,0,0,0h0l0,0s0,0,0,0,0,0,0,0l0,.06a.35.35,0,0,1-.08.13s0,0,0,0,0,.06,0,.05,0,0,0,.06,0,0,0,.06,0-.06.07-.09a.83.83,0,0,0,.07-.13,1.28,1.28,0,0,0,.14-.23s0,0,.05,0h0s0,0,0,0l0,0S3.18,3,3.18,3s0-.05.06-.08,0-.05,0,0a1.91,1.91,0,0,0-.16.27A1,1,0,0,0,3,3.27a.9.9,0,0,1-.11.22c-.06.07-.09.15-.15.23a.16.16,0,0,1,0,.09s0,0,0,0a.15.15,0,0,1,0,.06.06.06,0,0,1,0,.05s0,0,0,0l0,0,.05-.09s0,0,0,0h0s0,0,0-.05a.46.46,0,0,0,.08-.13s0,0,0-.06a.23.23,0,0,1,.07-.1s0,0,0,0A.31.31,0,0,1,3,3.35s0,0,0-.05a.51.51,0,0,1,.09-.13s0,0,0-.06a1.57,1.57,0,0,0,.12-.19s0,0,0,0a0,0,0,0,1,0,0s0,0,0,0,0,0,0,0,0,0,.07-.09,0-.06.05-.07,0,0,0,0,0,0,0,0,0,0,0,.05l0,0-.05.08s0,0,0,0a1.82,1.82,0,0,1-.2.29l0,0s0,0,0,0l-.08.14s0,0,0,0a.16.16,0,0,1,0-.07s0-.06,0-.06,0,0,0,.08,0,0,0,0,0,0,0,0,0,0,0,0,0,.07-.08.12l-.11.19s0,0,0,0l0,.07s0,0,0,0v0s0,0,0,0,0,0,0,0A.26.26,0,0,1,3,3.53l0-.09s0,0,0,0,0,0,0,0A.63.63,0,0,0,3,3.52s0,0,0,0,0,0,0,0a.83.83,0,0,0-.09.16,1.26,1.26,0,0,0-.11.17s0,0,0,0,0,.07,0,.08l0,.1,0,0s0,0,0,0a1.09,1.09,0,0,0-.1.19,0,0,0,0,0,0,0s0,0,0,0,0,0,0,0,0,.09-.06.13h0s0,0,0,0h0s0,0,0,0,0,0,0,0l0,0a2,2,0,0,0-.11.26.43.43,0,0,1,0,.07h0s0,0,0,0a.49.49,0,0,0,0,.11s0,0,0,0,0,0,0,0,0,0,0,0l-.11.28,0,0a.32.32,0,0,1,0,.13s0,0,0,.07a9.56,9.56,0,0,0-.3,1l0,.07s0,.06,0,0,0-.17.07-.25,0,0,0,0v0s0,0,0,0v0s0,0,0,0a.32.32,0,0,1,0,.09v0s0,0,0,0h0s0,.06,0,.09,0,0,0,.07v.08s0,0,0,.06,0,0,0,.06,0,0,0,.06,0,0,0,0,0,0,0,0a1.36,1.36,0,0,0,0,.2,1.44,1.44,0,0,0-.05.24s0,.06,0,.06,0,0,0-.06h0a1.69,1.69,0,0,0-.05.24c.05,0,0-.08.05-.08a1.91,1.91,0,0,0,0,.21s0,0,0,0,0,0,0,.06,0-.06,0-.08,0-.07,0-.08a.14.14,0,0,1,0,.07s0,.08,0,.12,0,0,0,0l0,.17h0s0,0,0,.05,0,0,0,.09,0,.2,0,.3a.16.16,0,0,1,0,.07h0s0,0,0,.05,0,.13,0,.18,0,0,0,0,0,0,0,0,0,0,0,0V9s0,0,0,0l0,0s0,0,0,.05a.48.48,0,0,1,0,.12c0,.06,0,.15,0,.21s0,.07,0,.13v.08h0s0,0,0,0a.07.07,0,0,0,0,0,.3.3,0,0,1,0,.1s0,.07,0,.13v.26a.48.48,0,0,1,0,.12.86.86,0,0,0,0,.16s0,0,0,0v0c0,.12,0,.28,0,.41s0,0,0,0v0h0v0l0,.26a.28.28,0,0,1,0,.11s0,0,0,0v.06s0,0,0,0,0,0,0,0l.05.24s0,0,0,.05.05.2.05.28,0,0,0,0,0,0,0,.08l0,.08a.51.51,0,0,1,0,.09s0,.06,0,.11a5.91,5.91,0,0,0,.27.74,1.72,1.72,0,0,0,.12.22s0,0,0,0,0,.05.06.1a1.18,1.18,0,0,1,.11.15s0,.05,0,.08,0,.05.08.06,0,0,.07.08a1.23,1.23,0,0,0,.33.28l.08.06a.93.93,0,0,1,.15.07l0,0,.11.05h.1s0,0,.08,0h.18s0,0,0,0h0s0,0,0,0l.26,0H4s.06,0,.09,0a.11.11,0,0,0,.08,0,.55.55,0,0,0,.16,0h0l0,0,0,0,0,0c-.1,0-.23,0-.31.08H4l-.2,0s0,0,0,0H3.51a.5.5,0,0,0-.13,0l-.16-.05a.3.3,0,0,1-.12,0l-.05,0,0,0s0,0,0,0H3l0,0h0a0,0,0,0,1,0,0l0,0h0l-.07-.06-.06,0s0,0,0-.05a.41.41,0,0,1-.1-.09,2,2,0,0,1-.3-.34s-.06-.09-.11-.13,0-.06,0-.08a.18.18,0,0,1-.05-.08A2,2,0,0,1,2,13.34s0,0,0-.06-.05-.13-.09-.22-.05-.17-.08-.25,0,0,0-.08l-.05-.12s0-.06,0-.06,0,0,0,.06l0-.1s0,0,0,0,0,0,0-.07l0-.06s0,0,0,0a.63.63,0,0,1-.07-.23h0s0,0,0-.06,0,0,0,0,0,0,0-.05a.11.11,0,0,1,0-.06s0-.06,0-.11,0,0,0,0v-.06s0,0,0-.06,0,0,0,0,0,0,0,0a1.43,1.43,0,0,0,0-.16s0,0,0,0,0-.1,0-.11,0,0,0,.05,0,0,0,.05,0,.06,0,.08,0,0,0,0,0,0,0,0,0,0,0,0,0,.1,0,.16,0,0,0,0,0,.06,0,0,0,0,0,0l0,0c0,.1.06.17.06.26s0,0,0,0a1.62,1.62,0,0,1,0,.19.59.59,0,0,1,.06.16v.05a.14.14,0,0,1,0,.06,1.17,1.17,0,0,0,.05.11.11.11,0,0,0,0,.09.23.23,0,0,0,0,.1s0,.08,0,.12a1.73,1.73,0,0,0,.1.24s0,.08,0,.1.18.36.26.46a1.21,1.21,0,0,0,.16.23s0,0,0,0,0,0,.05,0a1.72,1.72,0,0,0,.49.42s0,0,0,0a1,1,0,0,1,.18.09s0,0,.06,0,.18.06.22.09.25.06.34,0h.22a.18.18,0,0,0,.1,0v0s0,0,.07,0h0s0,0,0,0l.06,0h0l0,0h0s.06,0,.08,0,.06,0,.06,0l-.14,0h0s-.07,0-.09,0h.08l.14,0s0,0,.08,0l.14-.06a.47.47,0,0,1,.15-.06,2.37,2.37,0,0,0,.34-.19l.07,0s.08-.07.12-.1l.08,0A.91.91,0,0,0,5.6,14c0-.05,0,0,.07-.06s0,0,0,0h0s0,0,.06-.05,0,0,0,0,0,0,0,0,.14-.14.19-.16,0,0,0,0a.26.26,0,0,0,.09-.09s.06,0,.06,0a.78.78,0,0,1,.13-.18h0s0,0,0,0h0c.07-.1,0,0,.07-.06s0,0,0-.07.1-.16.17-.19-.06.07,0,.08.16-.24.23-.31a2.38,2.38,0,0,0,.23-.45.29.29,0,0,0,.06-.1,3.08,3.08,0,0,0,.23-.85,1.15,1.15,0,0,0,0-.26c0-.08,0-.12,0-.16A3.37,3.37,0,0,1,7,12.17s0,0,0,0,0,0,0,.06a2.55,2.55,0,0,1-.23.43,1.73,1.73,0,0,1-.12.2s0,.08-.07.08-.09.12-.09.15a4.66,4.66,0,0,0,.43-.66s0,0,0-.06A4.69,4.69,0,0,0,7.13,12a4.11,4.11,0,0,0,.13-.73,2.62,2.62,0,0,0,0-.27c0-.09,0-.17,0-.26s0,.18,0,.21a2.91,2.91,0,0,1,0-.3.24.24,0,0,1,0-.09s0-.07,0-.11a.81.81,0,0,0,0-.09c0-.08,0-.18-.06-.27s0,0,0,0-.06-.12,0-.15l.1.32,0,.12s0,0,0,.08,0,0,0,0l0-.16a.08.08,0,0,1,0-.05c0-.08,0-.17-.09-.27s0-.05,0-.09,0-.07-.06-.12,0-.12-.06-.11,0,.05,0,.07a0,0,0,0,0,0,0l0,0,0,.1s0,.07,0,.08,0,0,0,0,0,0,0,0a.65.65,0,0,1,0-.2H7s0,0,0,0S7,9.56,7,9.56l0,.09s0,.07,0,.09a1.1,1.1,0,0,1,.09.29l0,.08s0,.06,0,.07,0-.09-.05-.12a.83.83,0,0,0,0-.15s0,0,0-.07-.06-.12-.09-.22,0,0,0,0,0,0,0,0-.05-.12-.08-.13,0,.05,0,.06a0,0,0,0,1,0-.06s0,0,0-.06,0,0,0,0,0,0,0,0,0,0,0,0,0,0,0-.05,0,0,0-.05,0,0,0-.08,0,0-.06-.06S6.54,9,6.51,9s0,0,0,0,0,0,.08.08a.75.75,0,0,0,.07.12s0,0,0,0l0,0s0,0,0,.08l0-.06s-.06,0-.08,0,0,0,0,0l0,.05s0,.06,0,.08a1.27,1.27,0,0,0-.15-.21s0,0,0,0,0,0,0,0,0,0-.06,0l0,0,.12.15.06.08s0,0,0,.06,0-.06,0,0a.08.08,0,0,1,0,0s0,0,0,0,0-.05-.06-.07l-.07-.08s0,0,0-.06,0,0-.06,0,0,0,0,0l-.14-.1s0,0,0-.05-.06,0-.08,0,0,0,0,0l.08.1s0,0,0,0A.64.64,0,0,1,6.24,9s0,0,0,0l.08.09s0,0,0,.06l.06.08a.66.66,0,0,0,.08.13s.06.09,0,.12a.85.85,0,0,0-.11-.14.37.37,0,0,0-.08-.15s0,0,0,0,0,0,0,0,0-.05-.06-.08,0,0,0,0a.09.09,0,0,1-.08,0A.81.81,0,0,0,6,9s0,0-.06-.05l-.07,0s0,0,0,0-.13-.12-.19-.12.07.07.12.11.13.05.14.1a1.54,1.54,0,0,0-.48-.24s.06,0,.09.05.07,0,.07,0-.09,0-.13,0,0,0-.07,0-.06,0,0,0l.07,0s.06,0,.06,0-.16-.08-.2-.06.07,0,.07,0l-.09,0s-.07,0-.08,0l0,0A1,1,0,0,0,5,8.77H5l.14,0,.11,0s.1,0,.09.05c-.16-.06-.28-.05-.41-.09s0,0,0,0H4.72s0,0-.06,0H4.41s-.08,0-.08,0h.1s0,0,0,0H4.36s-.06,0-.05,0h.43C4.85,9,5,9,5.11,9l0,0s0,0,.06,0,0,0,0,0l.08,0s0,0,0,0,.15.07.16.12l0,0s0,0,0,0-.06,0-.07,0a.12.12,0,0,0-.08,0s0,0,0,0a.33.33,0,0,0-.14,0L5,9.09H4.78s-.06,0,0,0H5l.09,0s0,0,0,0l.08,0s.07,0,.07,0l-.14,0s0,0-.05,0H5s-.1,0-.12,0h.07s0,0,0,0a1.42,1.42,0,0,0,.2,0l.07,0s.06,0,.06,0a.79.79,0,0,0-.24,0,.35.35,0,0,0-.11,0,.1.1,0,0,0-.08,0s0,0,0,.05H4.46c-.11,0-.23,0-.31.08h0Z"/><path class="cls-3" d="M4.43,9.38s0-.07,0-.11h0c0,.05,0,.07,0,.1"/><path class="cls-3" d="M4.42,9.48s0,0,0,0,0,0,0,0,0,0,0,0,0,0,0,0"/><path class="cls-3" d="M4.42,9.5s0,0,0,0,0,0,0,0"/><path class="cls-3" d="M4.41,9.68s0,0,0-.06,0,0,0,0,0,0,0,0"/><path class="cls-3" d="M4.48,10.64h0"/><path class="cls-3" d="M4.48,10.66s0,0,0,0v0s0,0,0,0Z"/><path class="cls-3" d="M4.44,9.05s0,0,0,0,0,0,0,0"/><path class="cls-3" d="M4.43,9.1s0,0,0,0h0v0s0,0,0,0Z"/><path class="cls-3" d="M4.43,9.25h0"/><path class="cls-3" d="M4.42,9.38h0s0,0,0,0"/><path class="cls-3" d="M4.4,9.6a.19.19,0,0,0,0-.08s0,0,0,0,0,0,0,0"/><path class="cls-3" d="M4.41,9.73s0,0,0,0,0,0,0,0"/><path class="cls-3" d="M4.41,9.77s0,0,0,0v0s0,0,0,0Z"/><path class="cls-3" d="M4.42,9.92v0h0s0,0,0,0"/><path class="cls-3" d="M4.42,10.25l0,0v0s0,0,0,0v0"/><path class="cls-3" d="M4.44,10.4s0,0,0,0v0s0,0,0,0Z"/><path class="cls-3" d="M4.45,10.48s0,0,0,0v.07h0v-.08Z"/><path class="cls-3" d="M4.47,10.59h0"/><path class="cls-3" d="M4.47,10.62a0,0,0,0,1,0,0,0,0,0,0,1,0,0"/><path class="cls-3" d="M4.9,11.36h0"/><path class="cls-3" d="M5.15,6.25h0s0,0,0,0"/><path class="cls-3" d="M4.46,8.86v0s0-.05,0,0"/><path class="cls-3" d="M4.45,8.88a0,0,0,0,1,0,0V9s0,0,0,0Z"/><path class="cls-3" d="M4.62,11.44h0"/><path class="cls-3" d="M4.62,11.46h0l0,.1s0,0,0,0,0,0,0-.07"/><path class="cls-3" d="M4.67,11.57Z"/><path class="cls-3" d="M4.68,11.6h0s0,0,0,0"/><path class="cls-3" d="M4.67,11.61h0"/><path class="cls-3" d="M4.67,11.62h0Z"/><path class="cls-3" d="M4.91,11.4h0"/><path class="cls-3" d="M4.92,11.37h0v0"/><path class="cls-3" d="M4.91,11.37h0s0,0,0,0"/><path class="cls-3" d="M4.9,11.37h0s0,0,0,0"/><path class="cls-3" d="M4.91,11.36h0"/><path class="cls-3" d="M4.9,11.36h0"/><path class="cls-3" d="M4.67,11.64h0"/><path class="cls-3" d="M4.67,11.64h0"/><path class="cls-3" d="M4.68,11.65h0"/><path class="cls-3" d="M4.68,11.65h0"/><path class="cls-3" d="M4.69,11.65h0s0,0,0,0"/><path class="cls-3" d="M4.79,11.65h0Z"/><path class="cls-3" d="M4.92,11.4s0,0,0,0h0"/><path class="cls-3" d="M4.91,11.36h0"/><path class="cls-3" d="M4.6,7.85a0,0,0,0,1,0,0,0,0,0,0,1,0,0"/><path class="cls-3" d="M4.6,7.88s0,0,0,0,0,0,0,0"/><path class="cls-3" d="M4.79,11.66h0"/><path class="cls-3" d="M4.94,11.41s0,0,0,0h0s0,0,0,0h0"/><polyline class="cls-3" points="4.8 11.65 4.81 11.64 4.8 11.65"/><path class="cls-3" d="M4.94,11.38h0"/><path class="cls-3" d="M4.89,11.26h0Z"/><path class="cls-3" d="M4.88,11.25h0"/><path class="cls-3" d="M4.85,11.23h0Z"/><path class="cls-3" d="M4.84,11.22h0Z"/><path class="cls-3" d="M4.83,11.21h0"/><path class="cls-3" d="M6.69,3.34s0,0,0,0"/><path class="cls-3" d="M6.67,3.38s0,0,0,0"/><path class="cls-3" d="M6.69,3.34s0,0,0,0"/><path class="cls-3" d="M4.55,10.33h0s0,0,0,0"/><path class="cls-3" d="M6.9,2.22s0,0,0,0h0"/><path class="cls-3" d="M6.7,2.37v0s0,0,0,0"/><path class="cls-3" d="M4.53,10.31h0"/><path class="cls-3" d="M4.66,9.49s0,0,0,0,0,0,0,0"/><path class="cls-3" d="M4.64,9.49h0"/><path class="cls-3" d="M4.32,9.52s.11,0,.14,0,0,0-.06,0h0s0,0-.06,0"/><path class="cls-3" d="M4.29,9.54s0,0,0,0,0,0,0,0"/><path class="cls-3" d="M4.26,9.54s0,0-.07,0l-.14.07s0,0,.06-.05,0,0,0,0l0,0,.1,0"/><path class="cls-3" d="M4,9.66v0s0,0,0,0,0,0,0,0"/><path class="cls-3" d="M4,9.67v0s0,0,0,0"/><path class="cls-3" d="M4,9.71s0,0,0,0,0,0,0,0"/><path class="cls-3" d="M4.06,9.38h0"/><path class="cls-3" d="M4.13,9.34h0"/><path class="cls-3" d="M4.1,9.35s0,0,0,0,0,0,0,0"/><path class="cls-3" d="M5.62,1.48s0,0,0,.05,0,0,0-.05"/><path class="cls-3" d="M5.62,1.48s0,0,0,0,0,0,0,0"/><path class="cls-3" d="M4.71,9.18s0,0,0,0h0"/><path class="cls-3" d="M4.29,9.18s-.08,0-.1,0l-.06,0s0,0,0,0l.1,0h.07"/><path class="cls-3" d="M4.42,9.07s0,0,.06,0,0,0,.06,0h.21s0,0,0,0H4.57a.42.42,0,0,0-.15,0"/><path class="cls-3" d="M4.38,9.06h0"/><path class="cls-3" d="M5.33,9.11s0,0,0,0,0,0,0,0"/><path class="cls-3" d="M4.16,9h0"/><path class="cls-3" d="M5.37,1.25s0,0,0,0,0,0,0,0"/><path class="cls-3" d="M5,8.77c-.06,0,0,0,0,0"/><path class="cls-3" d="M5,8.76H5"/><path class="cls-3" d="M5.05,8.76h0"/><path class="cls-3" d="M5,1.35s0,0,0-.05,0,0,0,.05"/><path class="cls-3" d="M5.45,8.77h0l-.09,0-.16-.05s-.07,0,0,0l.08,0h.06l.13,0s0,0,0,0"/><path class="cls-3" d="M5.1,8.67h0"/><path class="cls-3" d="M5.47,8.74h0"/><path class="cls-3" d="M5.67,8.8s-.06,0,0,0"/><path class="cls-3" d="M5.74,8.8s0,0,0,0l0,0h0Z"/><path class="cls-3" d="M4.83,1.29s0,0,0,0,0,0,0,0"/><path class="cls-3" d="M6.05,9s0,0,0,0,0,0,0,0"/><path class="cls-3" d="M4.94,1.06s0,0,0,0,0,0,0,0"/><path class="cls-3" d="M4.92,1.08s0,0,0,0l0,0s0,0,0,0Z"/><path class="cls-3" d="M4.62,1.45s0,0,0,0Z"/><path class="cls-3" d="M4.83,1.09h0s0,0,0,0"/><path class="cls-3" d="M4.73,1.22s0,0,0,0"/><path class="cls-3" d="M6.77,9.77s0,0,0,0Z"/><path class="cls-3" d="M4.8,1.1a0,0,0,0,1,0,0s0,0,0,0"/><path class="cls-3" d="M4.74,1.17s0,0,0,0,0,.06,0,0"/><path class="cls-3" d="M4.44,1.53s0,0,0,0h0"/><path class="cls-3" d="M6.06,8.75l.11.09-.06,0s-.07,0-.05-.06"/><path class="cls-3" d="M4.38,1.57s0,0,0,0,0,0,0,0"/><path class="cls-3" d="M5.62,8.49h0s0,0,.08,0h0s0,0,0,0,0,0,0,0a.18.18,0,0,1-.11,0"/><path class="cls-3" d="M2,6.12s0,0,0,0v0"/><path class="cls-3" d="M1.94,6.16s0,0,0,0h0"/><path class="cls-3" d="M6.43,9.07s0,0,0,0"/><path class="cls-3" d="M5.83,8.57s0,0,0,0h0"/><path class="cls-3" d="M1.79,6.63s0,.06,0,0Z"/><path class="cls-3" d="M1.66,7.12s0,0,0,0h0"/><path class="cls-3" d="M1.64,7.18s0,0,0,0,0,0,0,0"/><path class="cls-3" d="M1.61,7.28s0,0,0,0,0,0,0,0"/><path class="cls-3" d="M1.61,7.36s0,0,0,0,0,0,0,0"/><path class="cls-3" d="M1.6,7.41s0,0,0,0"/><path class="cls-3" d="M2.14,13.5s0,0,0,0l0,0"/><path class="cls-3" d="M2.18,13.57h0"/><path class="cls-3" d="M6.43,9.07s0-.05,0-.07,0,.05.11.1a0,0,0,0,0,0,0s0-.06-.08-.09,0,0,0,0"/><path class="cls-3" d="M1.61,7.3h0"/><path class="cls-3" d="M1.6,7.41s0,0,0,0"/><path class="cls-3" d="M6.18,8.8h0s0,0,0,0"/><path class="cls-3" d="M6.24,8.84h0"/><path class="cls-3" d="M4.3,1.6s0,0,0,0,0,0,0,0"/><path class="cls-3" d="M6.87,9.69s0,0,0,.05,0,0,0-.05"/><path class="cls-3" d="M6.47,9h0a3.29,3.29,0,0,0-.35-.32s0,0,.07,0,0,0,.06,0L6.46,9Z"/><path class="cls-3" d="M4.33,1.52a0,0,0,0,1,0,0s0,0,0,0"/><path class="cls-3" d="M6.46,9l.07.07A.17.17,0,0,0,6.47,9s0,0,0,0,0,0,.05.06,0,0,0,0A.33.33,0,0,1,6.46,9"/><path class="cls-3" d="M4.71,1h0s0,0,0,0"/><path class="cls-3" d="M1.31,9.11s0,0,0,0a0,0,0,0,1,0,0"/><path class="cls-3" d="M1.5,11.73h0"/><path class="cls-3" d="M3.72,14.64h0"/><path class="cls-3" d="M4,14.61s.09,0,.13,0a.16.16,0,0,1-.13,0"/><path class="cls-3" d="M4.15,14.58h0"/><path class="cls-3" d="M1.29,9.9s0,0,0,.08,0,0,0-.08"/><path class="cls-3" d="M1.29,10s0,.06,0,0,0,0,0,0"/><path class="cls-3" d="M1.29,10.06s0,.06,0,.08a2.45,2.45,0,0,1,0,.25c0,.06,0,0,0-.05v-.12a.25.25,0,0,0,0-.09s0-.05,0-.07"/><path class="cls-3" d="M1.32,10.45v.06a.06.06,0,0,1,0,0s0-.07,0,0"/><path class="cls-3" d="M1.32,10.55v0s0-.08,0,0"/><path class="cls-3" d="M1.33,10.67a0,0,0,0,1,0,0v0s0,0,0,0Z"/><path class="cls-3" d="M1.53,11.91h0"/><path class="cls-3" d="M1.54,12s0,0,0,0,0,0,0,0"/><path class="cls-3" d="M1.56,12.07s0,0,0,0v0s0,0,0,0Z"/><path class="cls-3" d="M1.59,12.18h0"/><path class="cls-3" d="M1.61,12.25h0"/><path class="cls-3" d="M1.65,12.39s0,0,0,0,0,0,0,0"/><path class="cls-3" d="M3.84,14.63H3.9s0,0,0,0-.06,0,0,0"/><path class="cls-3" d="M4.53,1.23h0s0,0,0,0"/><path class="cls-3" d="M3.19,14.56s-.1,0-.15-.05a.83.83,0,0,1-.16-.09s0,0,.06,0L3,14.5s.08,0,.15.06Z"/><path class="cls-3" d="M3.19,14.56h0Z"/><path class="cls-3" d="M3.2,14.57s0,0,.1,0-.07,0-.1,0Z"/><path class="cls-3" d="M3.39,14.62s0,0,.07,0,0,0,0,0-.06,0-.07,0"/><path class="cls-3" d="M3,3.51a0,0,0,0,1,0,0s0,0,0,0"/><path class="cls-3" d="M2.83,3.78v0s0,0,0,0"/><path class="cls-3" d="M2.79,3.86h0s0,0,0,0"/><path class="cls-3" d="M2.77,3.88a0,0,0,0,1,0,0s0,0,0,0"/><path class="cls-3" d="M1.24,10.44s0,0,0,0c0,.25.05.45.09.69,0,0,0,0,0-.05l0-.11a.86.86,0,0,0,0-.17v-.13a3.82,3.82,0,0,1-.06-.61s0-.05,0-.06,0-.29,0-.45c0,0,0,0,0,.06s0,.06,0,.08v.22s0,0,0,.07,0,.05,0,.06,0-.07,0-.07a.15.15,0,0,1,0-.09s0,0,0-.05,0,0,0-.06a.14.14,0,0,1,0-.11s0,0,0,0,0,0,0,0,0,.1,0,.13,0,0,0,0,0,.12,0,.18a.65.65,0,0,1,0,.14s0-.1,0-.15,0,0,0,.07v.08a.09.09,0,0,1,0,0c0,.06,0,.11,0,.15v0"/><path class="cls-3" d="M1.26,10.27s0,0,0,0v0s0,0,0,0Z"/><path class="cls-3" d="M3.3,2.93s0,0,0,0h0"/><path class="cls-3" d="M3.07,3.32h0s0,0,0,0"/><path class="cls-3" d="M2.27,4.93s0,0,0,0a0,0,0,0,1,0,0"/><path class="cls-3" d="M1.42,7.77s0,0,0,0,0,0,0,0"/><path class="cls-3" d="M1.37,8s0,0,0,0h0"/><path class="cls-3" d="M1.38,8.06v0s0-.07,0,0"/><path class="cls-3" d="M1.36,8.16s0,0,0,0"/><path class="cls-3" d="M1.25,9.28s0,0,0,0,0,0,0,0"/><path class="cls-3" d="M1.25,9.28c0,.14,0,.23,0,.39,0,0,0-.07,0-.09s0-.06,0-.09,0-.06,0-.08V9.35s0-.08,0-.07"/><path class="cls-3" d="M6.93,9.65s0,0,0,0,0,0,0,0"/><path class="cls-3" d="M3,3.49H3s0,0,0,0"/><path class="cls-3" d="M1.26,9.09s0,0,0-.06V9s0,0,0,0V9s0,0,0,0Z"/><path class="cls-3" d="M1.25,9.17s0,0,0,0,0,0,0,0"/><path class="cls-3" d="M1.25,9.19h0s0,0,0,0"/><path class="cls-3" d="M1.24,10.44v-.19s0,.05,0,0v.08s0,.08,0,.07"/><path class="cls-3" d="M1.35,11.26s0,0,0,0v0s0,0,0,0v.05a0,0,0,0,1,0,0"/><path class="cls-3" d="M4.48,1.2s0,0,0,0,0,0,0-.06,0,0,0,0,0,0,0-.05,0,.07-.06.11,0,.06,0,.06"/><path class="cls-3" d="M2.11,5.28s0,0,0,0,0,0,0,0"/><path class="cls-3" d="M2.08,5.38A2.07,2.07,0,0,0,2,5.62c0-.06,0-.12.05-.18l0,0s0,0,0-.08,0,0,0,0,0-.06,0,0"/><path class="cls-3" d="M2,5.63H2"/><path class="cls-3" d="M2,5.63s0,.09,0,.11,0-.06,0-.08,0,0,0,0Z"/><path class="cls-3" d="M1.26,8.79s0,0,0,0,0,0,0,0"/><path class="cls-3" d="M1.5,12l0,.1h0a.18.18,0,0,1,0-.1Z"/><path class="cls-3" d="M6.94,9.63h0s0,0,0,0"/><path class="cls-3" d="M6.19,8.66h0"/><path class="cls-3" d="M3,3.45a0,0,0,0,1,0,0v0s0,0,0,0"/><path class="cls-3" d="M2.93,3.52s0,0,0,0,0,0,0,0"/><path class="cls-3" d="M2.08,5.35s0,0,0,0a.93.93,0,0,1,.05-.1s0,0,0,0a4110285003976.62,4110285003976.62,0,0,0,0,.08"/><path class="cls-3" d="M1.91,5.78h0s0,0,0,0"/><path class="cls-3" d="M1.71,6.36s0-.06,0-.09,0,0,0,0,0,0,0-.06,0,0,0,0,0,0,0,0,0,0,0,0,0,.11-.07.16"/><path class="cls-3" d="M1.27,8.7v0s0,0,0,0,0,0,0,0"/><path class="cls-3" d="M1.24,8.91s0,0,0,0a0,0,0,0,1,0,0"/><path class="cls-3" d="M1.51,12.13s0,0,0,0"/><path class="cls-3" d="M1.53,12.26s0,0,0,0,0,0,0,0"/><path class="cls-3" d="M1.56,12.33s0,0,0,0v0s0,0,0,0Z"/><path class="cls-3" d="M1.59,12.43s0,0,0,0,0,0,0,0"/><path class="cls-3" d="M1.62,12.54s0,.1,0,.09,0-.05,0-.09"/><path class="cls-3" d="M6.85,9.45s.06.05.08.1,0,0,0,0,0,0-.06-.06"/><path class="cls-3" d="M2.89,3.56s0,0,0,0,0,0,0,0"/><path class="cls-3" d="M2.87,3.61v0s0,0,0,0"/><path class="cls-3" d="M2.3,4.77s0,0,0,0,0,0,0,0"/><path class="cls-3" d="M2.23,5h0s0,0,0,0"/><path class="cls-3" d="M2.22,5s0,0,0,0,0,0,0,0"/><path class="cls-3" d="M2.19,5a0,0,0,0,1,0,0,0,0,0,0,1,0,0"/><path class="cls-3" d="M2.18,5.06s0,0,0,0,0,0,0,0"/><path class="cls-3" d="M2.13,5.18s0,0,0,0,0,0,0,0"/><path class="cls-3" d="M1.7,6.41s0,0,0,0,0,0,0,0"/><path class="cls-3" d="M1.51,7.19s0,0,0,0v0Z"/><path class="cls-3" d="M1.46,7.38a0,0,0,0,1,0,0,0,0,0,0,1,0,0"/><path class="cls-3" d="M1.43,7.51s0,0,0,0,0,0,0,0"/><path class="cls-3" d="M2.34,14h0s0,0,0,0"/><path class="cls-3" d="M2.81,14.45h0s0,0,0,0"/><path class="cls-3" d="M2.26,4.83s0,0,0,0,0,0,0,0"/><path class="cls-3" d="M2.05,5.35s0,0,0,0,0,0,0,0"/><path class="cls-3" d="M1.55,7s0,0,0,0,0,0,0,0"/><path class="cls-3" d="M1.47,7.25s0,0,0,0v0s0,0,0,0Z"/><path class="cls-3" d="M1.21,9.14s0,0,0,0,0,0,0,0"/><path class="cls-3" d="M1.22,9.25v0s0-.08,0,0"/><path class="cls-3" d="M2.47,14.18s0,0,0,0,0,0,0,0"/><path class="cls-3" d="M1.22,8.83v0s0,0,0,0"/><path class="cls-3" d="M1.22,8.86h0s0,0,0,0"/><path class="cls-3" d="M1.21,9s0,0,0,0,0,0,0,0"/><path class="cls-3" d="M2.11,13.78l0,0s0,0,0,0"/><path class="cls-3" d="M2.35,14.08s0,0-.06-.06.06,0,.06.06"/><path class="cls-3" d="M2.37,14.1l0,0,0,0"/><path class="cls-3" d="M7,9.64s0,0,0,0,0,0,0,0"/><path class="cls-3" d="M6.8,9.3s0,0,0-.05.06.05,0,.05"/><path class="cls-3" d="M6.67,9.1l0,0,0,0s0,0,0,0Z"/><path class="cls-3" d="M2.19,5c0-.06,0,0,0,0"/><path class="cls-3" d="M1.19,9s0,0,0,0,0,0,0,0m0,.49s0,.08,0,.07a.17.17,0,0,1,0-.1,1.48,1.48,0,0,1,0-.21s0,0,0-.06,0-.1,0-.15,0,0,0,0,0,0,0-.06,0,0,0-.06,0-.05,0-.06,0,.05,0,.05l0-.21s0,0,0,0a.16.16,0,0,0,0-.1s0-.08,0-.08,0,.12,0,.17a1.94,1.94,0,0,0,0,.24,1.33,1.33,0,0,0,0,.2.92.92,0,0,1,0,.16v0a.65.65,0,0,1,0,.14s0,0,0,.05,0,0,0,0h0Z"/><path class="cls-3" d="M1.91,13.42h0"/><path class="cls-3" d="M2,13.5s0,0,0,0,0,0,0,0"/><polygon class="cls-3" points="1.99 13.56 2 13.58 1.99 13.6 1.97 13.57 1.99 13.56"/><path class="cls-3" d="M2.11,13.78s0,0,0,0,0,0,0,0Z"/><path class="cls-3" d="M3.23,14.68h0"/><path class="cls-3" d="M3.69,14.76h0"/><path class="cls-3" d="M4,14.73H4l.14,0s0,0,.06,0a.1.1,0,0,1-.08,0H3.76s.1,0,.13,0l.09,0"/><path class="cls-3" d="M6.85,9.31s0,0,0,0h0s0,.05,0,.06.06.09.09.14,0,.06,0,.07a1.85,1.85,0,0,0-.1-.2s0,.08,0,.14,0,0,0,0l0,0,0-.07s0-.06,0-.06Z"/><path class="cls-3" d="M2.19,5s0,0,0,0"/><path class="cls-3" d="M1.25,8.42s0,0,0-.08,0-.3,0-.44,0,0,0,0,0-.05,0-.08.05-.33.09-.5c0,0,0,0,0,.07s0,0,0,0a0,0,0,0,1,0,0,0,0,0,0,0,0,0s0,0,0,0,0,0,0,0v0s0,0,0,.05a2.5,2.5,0,0,0-.09.46s0,.07,0,.08Z"/><path class="cls-3" d="M1.18,9.22h0"/><path class="cls-3" d="M1.17,9.54s0,0,0,0,0,0,0,0"/><path class="cls-3" d="M1.82,13.26l0,0s0,0,0,0"/><path class="cls-3" d="M2.15,13.86h0s0,0,0,0"/><path class="cls-3" d="M2.58,14.33s.08,0,.07.06,0,0,.06,0,0,0-.08,0,0,0,0,0,0,0,0,0"/><path class="cls-3" d="M3,14.6H3"/><path class="cls-3" d="M3.33,14.72s.07,0,0,0,0,0,0,0"/><path class="cls-3" d="M7.2,10.25s0,0,0,0,0,0,0,0"/><path class="cls-3" d="M7.17,10.11s0,0,0,0h0"/><path class="cls-3" d="M1.21,8.66s0,0,0,0v0Z"/><path class="cls-3" d="M2.75,14.47h0"/><path class="cls-3" d="M2.83,14.52h0"/><path class="cls-3" d="M3.7,14.77s-.07,0-.12,0,0,0-.07,0,.05,0,.07,0H3.7"/><path class="cls-3" d="M3.71,14.77h0s-.07,0,0,0"/><path class="cls-3" d="M6.45,13.09s-.06.05-.09.11.07-.1.09-.11"/><path class="cls-3" d="M7.26,10.69c0-.06,0-.06,0-.13s0,.09,0,.13Z"/><path class="cls-3" d="M7.21,10.28h0"/><path class="cls-3" d="M2.59,4s0,0,0,0V4"/><path class="cls-3" d="M2.51,4.2a0,0,0,0,1,0,0v0l0,.06s0,0,0,0v0Z"/><path class="cls-3" d="M2.45,4.32s0,0,0,.07l0,.08c0,.06-.06.1-.07.14s0,0,0,0,0,0,0-.08.07-.15.1-.23l0,0"/><path class="cls-3" d="M1.47,7.05a0,0,0,0,1,0,0v0"/><path class="cls-3" d="M1.16,10.06h0"/><path class="cls-3" d="M3.18,14.7h0"/><path class="cls-3" d="M3.23,14.71s0,0,0,0h0"/><path class="cls-3" d="M3.46,14.76h0"/><path class="cls-3" d="M5.86,13.75s-.05.06-.07.08,0,0,.07-.08"/><path class="cls-3" d="M5.89,13.71,6,13.65s-.08.11-.07.06"/><path class="cls-3" d="M4.18,1.47s0,0,0,0,0-.07,0,0"/><path class="cls-3" d="M2.07,5.17s0,0,0,0v0s0,0,0,0,0,0,0,0V5s0,0,0,0l.09-.22s0,0,0,0l0-.06s0,0,0,0,0,0,0,0,0,0,0,0,0,0,0,0L2.14,5s0,.08,0,.1,0,0,0,.09"/><path class="cls-3" d="M1.43,7.13s0,0,0,0v.06s0,0,0,0V7.16a0,0,0,0,1,0,0"/><path class="cls-3" d="M1.41,7.28s0,0,0,0,0,0,0,0"/><path class="cls-3" d="M1.4,7.32s0,0,0,0v0"/><path class="cls-3" d="M1.2,10.69s0-.08,0-.12,0,0,0,0,0,.05,0,.08"/><path class="cls-3" d="M1.19,10.75s0,0,0-.05,0,0,0,.05"/><path class="cls-3" d="M1.22,10.87v0s0,0,0,0,0,0,0,0"/><path class="cls-3" d="M1.23,11v0s0-.08,0,0"/><path class="cls-3" d="M1.25,11.24s0,0,0,0a.17.17,0,0,1,0-.1V11s0,0,0,0v0l0,.21Z"/><path class="cls-3" d="M2.67,14.43h0"/><path class="cls-3" d="M3.13,14.68h0"/><path class="cls-3" d="M5.66,14s0,0,0,0l0,0"/><path class="cls-3" d="M5.71,13.91l0-.05,0,.05"/><path class="cls-3" d="M7.12,9.85s0,0,0,0,0,0,0,0"/><path class="cls-3" d="M7,9.66s0,0,0,0"/><path class="cls-3" d="M4.13,1.51s0,0,0,0,0,0,0,0"/><path class="cls-3" d="M4.06,1.61h0s0,0,0,0"/><path class="cls-3" d="M4,1.63s0,0,0,0H4"/><path class="cls-3" d="M3.56,2.32s0,0,0,0a0,0,0,0,0,0,0"/><path class="cls-3" d="M2,5.33s0,0,0,0"/><path class="cls-3" d="M1.6,6.51s0,0,0,0,0,0,0,0"/><path class="cls-3" d="M1.57,6.59h0v0l0,.06s0,0,0,0l0-.06h0"/><path class="cls-3" d="M1.52,6.8s0,0,0,0v0"/><path class="cls-3" d="M1.47,7s0,0,0,0l0,.12s0,0,0,0v0l0-.06s0,0,0-.06"/><path class="cls-3" d="M1.13,9.7h0s0,0,0,0"/><path class="cls-3" d="M1.25,11.24c0,.11,0,.22.06.33s0,.09,0,.15v0s0,0,0,0l0-.1s0,0,0-.07a2.21,2.21,0,0,1-.06-.32Z"/><path class="cls-3" d="M1.35,11.81h0"/><path class="cls-3" d="M1.37,11.83a0,0,0,0,0,0,0s0,0,0,0"/><path class="cls-3" d="M2.36,14.17l0,0,0,0"/><path class="cls-3" d="M2.77,14.51h0"/><path class="cls-3" d="M2.81,14.53l.09.05s-.12,0-.09-.05"/><path class="cls-3" d="M4,1.66s0,0,0,0,0,0,0,0"/><path class="cls-3" d="M2,5.38H2s0,0,0,0"/><path class="cls-3" d="M2,5.42s0,0,0,0H2"/><path class="cls-3" d="M1.92,5.52v0s0-.07,0,0"/><path class="cls-3" d="M1.76,6s0,0,0,0,0,0,0,0"/><path class="cls-3" d="M1.74,6s0,0,0,0,0,0,0,0"/><path class="cls-3" d="M1.72,6.09s0,0,0,0a0,0,0,0,1,0,0"/><path class="cls-3" d="M1.67,6.24v0s0,0,0,0"/><path class="cls-3" d="M1.63,6.35s0,0,0,0a0,0,0,0,1,0,0"/><path class="cls-3" d="M1.6,6.46s0,0,0,0h0"/><path class="cls-3" d="M1.5,6.85h0a0,0,0,0,1,0,0"/><path class="cls-3" d="M1.48,6.93s0,0,0,0,0,0,0,0"/><path class="cls-3" d="M1.14,9.23h0"/><path class="cls-3" d="M1.15,9.27v0s0-.08,0,0"/><path class="cls-3" d="M1.94,13.58s-.05-.07-.07-.09a.25.25,0,0,1,.07.09"/><path class="cls-3" d="M2.61,14.41s0,0,0,0,0,0,0,0"/><path class="cls-3" d="M4.74,14.6s0,0,0,0,0,0,0,0"/><path class="cls-3" d="M7,9.59s0-.09,0,0"/><path class="cls-3" d="M6.88,9.3a.35.35,0,0,1-.07-.12,1.25,1.25,0,0,0-.09-.12s0-.05,0-.07a2.16,2.16,0,0,0-.25-.27h0s0,0,0,0a1.09,1.09,0,0,0-.1-.11s0,0,0,.05,0,0,0,0l0,0a2.39,2.39,0,0,1,.48.64"/><path class="cls-3" d="M1.5,6.8s0,0,0,0,0,0,0,0"/><path class="cls-3" d="M1.36,7.4s0,0,0,0h0"/><path class="cls-3" d="M1.34,7.54s0,0,0,0,0,0,0,0"/><path class="cls-3" d="M1.22,8.24s0-.05,0-.08V8.09a.68.68,0,0,1,0-.14l.06-.31s0,0,0,0v.12h0s0,0,0,0,0,0,0,0V7.9h0a.31.31,0,0,1,0,.13,1.38,1.38,0,0,1,0,.2"/><path class="cls-3" d="M1.71,13.14s0,0,0,.06l0,.07s0,0,0-.07Z"/><path class="cls-3" d="M2,5.15s0,0,0,0,0,0,0,0"/><path class="cls-3" d="M2,5.32s0-.05,0-.07,0,0,0,.07"/><path class="cls-3" d="M1.82,5.71a.34.34,0,0,0,0-.12s0,0,0,.07,0,.06,0,0"/><path class="cls-3" d="M1.71,6.09h0v0s0,0,0,0,0,0,0,0"/><path class="cls-3" d="M1.64,6.26s0,0,0,0h0"/><path class="cls-3" d="M1.61,6.36h0"/><path class="cls-3" d="M1.56,6.55s0,0,0,0v0s0,0,0,0Z"/><path class="cls-3" d="M1.54,6.66v.06s0,0,0,0,0-.06,0,0"/><path class="cls-3" d="M1.41,7.14s0,0,0,0v0a0,0,0,0,1,0,0Z"/><path class="cls-3" d="M1.32,7.58s0,0,0,0,0,0,0,0"/><path class="cls-3" d="M1.2,8.32s0,0,0,0,0,0,0,0"/><path class="cls-3" d="M1.19,8.4s0,0,0,0,0,0,0,0"/><path class="cls-3" d="M3.11,14.72h0l0,0,.08,0s-.06,0-.08,0l-.08,0"/><path class="cls-3" d="M3.29,14.78s0,0,0,0,0,0,0,0"/><path class="cls-3" d="M3.78,14.82h0s-.08,0,0,0"/><path class="cls-3" d="M4.09,14.8s0,0,0,0h0"/><path class="cls-3" d="M6.67,12.87s0,0,.06-.08-.06.12-.06.08"/><path class="cls-3" d="M6.77,12.73l0-.05,0,0,.06-.11,0,.09Z"/><path class="cls-3" d="M7.29,11.46s0-.08,0-.11,0-.13,0-.13,0-.13,0-.24a3.75,3.75,0,0,0,0-.5c0-.09,0-.17,0-.26l0,.12c0,.06,0,.12,0,.18a3,3,0,0,1,0,.33,4,4,0,0,1,0,.59Z"/><path class="cls-3" d="M5.31,8.1s0,0,0,0h0"/><path class="cls-3" d="M1.88,5.54s0,0,0,0"/><path class="cls-3" d="M1.09,9.62s0,0,0,0,0,0,0,0"/><path class="cls-3" d="M1.1,9.84h0s0,0,0,0"/><path class="cls-3" d="M4.64,14.67h0"/><path class="cls-3" d="M6.41,13.22s-.06.09-.06.11l-.08.09a.82.82,0,0,1,.14-.2"/><path class="cls-3" d="M6.46,13.17v0s0,0,0,0"/><path class="cls-3" d="M6.8,9.12s0,0,0,0h0"/><path class="cls-3" d="M3.56,2.23s0,0,0,0v0"/><path class="cls-3" d="M3.41,2.46s0,0,0,0h0"/><path class="cls-3" d="M2.76,3.57s0,0,0,0,0,0,0,0"/><path class="cls-3" d="M1.18,8.24s0,0,0,0,0,.09,0,0Z"/><path class="cls-3" d="M1.15,8.49s0,0,0-.05,0,0,0,0,0,.06,0,.09"/><path class="cls-3" d="M1.1,9.35s0,0,0,0v0"/><path class="cls-3" d="M1.09,9.53s0,0,0,0,0,0,0,0"/><path class="cls-3" d="M1.08,9.68s0,.07,0,.06,0,0,0-.06"/><path class="cls-3" d="M1.1,10v0s0,0,0,0,0,0,0,0"/><path class="cls-3" d="M1.11,10.22v0s0-.07,0,0"/><polygon class="cls-3" points="1.12 10.45 1.12 10.47 1.1 10.47 1.1 10.45 1.12 10.45"/><path class="cls-3" d="M1.11,10.48s0,0,0,0,0,0,0,0"/><path class="cls-3" d="M1.12,10.55s0,0,0,0,0,0,0,0"/><path class="cls-3" d="M1.12,10.61h0s0,0,0,0"/><path class="cls-3" d="M1.14,10.72s0,0,0,0v0s0,0,0,0Z"/><path class="cls-3" d="M1.15,10.87s0,0,0,0v0s0,.07,0,.07,0-.11,0-.15"/><path class="cls-3" d="M1.18,11h0s0,0,0,0"/><path class="cls-3" d="M1.2,11.26h0"/><path class="cls-3" d="M1.23,11.37v0s0-.07,0,0"/><path class="cls-3" d="M1.22,11.41s0,0,0,0,0,0,0,0"/><path class="cls-3" d="M1.25,11.49v0s0-.07,0,0"/><path class="cls-3" d="M1.31,11.84h0"/><path class="cls-3" d="M5.66,14s0,0,0-.06,0,0,0,.06"/><path class="cls-3" d="M6,13.66l0,0s0,0,0,0"/><path class="cls-3" d="M6.09,13.61v0s0,0,0,0"/><path class="cls-3" d="M6.17,13.53l0-.06s0,0,0,.06"/><path class="cls-3" d="M6.65,8.9s0,0,.07,0,0,.06,0,.08a2.21,2.21,0,0,1,.28.45s0,0,0,0l0-.05c0-.1-.12-.17-.14-.23s0,0,0,0,0-.07,0-.06,0,0,0-.06-.05,0-.08-.07"/><path class="cls-3" d="M5.93,8.33s.05,0,.09,0-.06,0-.09,0"/><path class="cls-3" d="M4,1.54s0,0,0,0"/><path class="cls-3" d="M3.85,1.8h0s0,0,0,0"/><path class="cls-3" d="M3.43,2.41s0,0,0,0,0,0,0,0"/><path class="cls-3" d="M2.68,3.7s0,0-.05.09,0,0,0,0a.09.09,0,0,1,0-.06"/><path class="cls-3" d="M1.24,7.87s0,0,0,0a.34.34,0,0,1,0-.13s0,.12,0,.18"/><path class="cls-3" d="M1.2,8.17s0,0,0,.06,0-.08,0-.06"/><path class="cls-3" d="M1.12,8.76h0"/><path class="cls-3" d="M1.11,8.83s0,0,0,0v0Z"/><path class="cls-3" d="M1.11,8.9s0,0,0,0v0Z"/><path class="cls-3" d="M1.46,12.47s0,0,0,0,0,0,0,0"/><path class="cls-3" d="M1.5,12.6h0"/><path class="cls-3" d="M1.51,12.64s0,0,0,0,0,0,0,0"/><path class="cls-3" d="M1.53,12.7s0,0,0,0,0,0,0,0"/><path class="cls-3" d="M1.59,12.87s0,0,0,0,0,0,0,0"/><path class="cls-3" d="M3.39,2.45h0"/><path class="cls-3" d="M3.38,2.47s0,.07,0,.08,0,0,0,0l0-.06"/><path class="cls-3" d="M2.61,3.8a0,0,0,0,1,0,0s0,0,0,0"/><path class="cls-3" d="M1.21,8s0,0,0,0V8"/><path class="cls-3" d="M1.14,8.54s0,0,0,0,0,0,0,0"/><path class="cls-3" d="M2.21,14.09l0,0,0,0,.06.06s-.05,0-.07-.06Z"/><path class="cls-3" d="M2.37,14.25l0,0s-.08-.07,0,0"/><path class="cls-3" d="M2.56,14.44h0"/><path class="cls-3" d="M2.63,14.49s0,0,0,0l0,0"/><path class="cls-3" d="M3,14.7H3s0,0,0,0"/><path class="cls-3" d="M3,14.72h0s0,0,0,0"/><path class="cls-3" d="M3.1,14.75h0"/><path class="cls-3" d="M7.24,11.76a.2.2,0,0,1,0,.11s0-.09,0-.11"/><path class="cls-3" d="M7.24,11.73c0-.07,0-.07,0,0"/><path class="cls-3" d="M7.29,11.46s0,.09,0,0"/><path class="cls-3" d="M3.73,2V2s0,0,0,0,0,0,0,0"/><path class="cls-3" d="M1.75,13.37s0,0,0-.06,0,0,0-.06,0-.05,0-.1,0,.09.05.08,0,.08.05.14"/><path class="cls-3" d="M4.05,1.48s0,0,0,0,0,0,0,0"/><path class="cls-3" d="M3.22,2.7s0,.07-.06.11a.08.08,0,0,1,0,0s0,0,0,0,0,0,0-.06"/><path class="cls-3" d="M1.59,13s0,0,0,0,0,0,0,0"/><path class="cls-3" d="M1.63,13.11s0,0,0,0,0,0,0,0"/><path class="cls-3" d="M3.92,14.88s0,0,0,0,0,0,0,0"/><path class="cls-3" d="M4,14.87s0,0,0,0H4"/><path class="cls-3" d="M4.1,14.86l0,0s0,0,0,0"/><path class="cls-3" d="M4.15,14.85l0,0h0l0,0Z"/><path class="cls-3" d="M6.06,13.7s0,0,0,0l0,0"/><path class="cls-3" d="M7,12.33s0,0,0,0,0,0,0,0"/><path class="cls-3" d="M7.1,12.2l0,0,0,0"/><path class="cls-3" d="M2.79,3.41s0,0,0,0,0,0,0,0"/><path class="cls-3" d="M4.24,14.85h0l.06,0,.13,0-.06,0H4.35l-.1,0Z"/><path class="cls-3" d="M4.5,14.78l0,0,0,0"/><path class="cls-3" d="M6.62,13.05l0,0,0-.09s0,.06,0,.09-.1.13,0,0"/><path class="cls-3" d="M6.78,12.82l0,0s-.11.15,0,0"/><path class="cls-3" d="M7.13,9.61s.06.11.09.18,0,0,0-.06,0-.07,0-.12"/><path class="cls-3" d="M7.13,9.59h0"/><path class="cls-3" d="M7.08,9.48h0"/><path class="cls-3" d="M2.36,4.25s0,0,0,0"/><path class="cls-3" d="M1.06,9s0,0,0,0v0s0,0,0,0Z"/><path class="cls-3" d="M1.06,9.1v0s0-.07,0,0"/><path class="cls-3" d="M1.05,9.16s0,0,0,0,0,0,0,0"/><path class="cls-3" d="M5.22,14.45l0,0,0,0"/><path class="cls-3" d="M3.81,1.76s0,0,0,0a0,0,0,0,1,0,0"/><path class="cls-3" d="M1.11,8.38s0,0,0,0h0"/><path class="cls-3" d="M3.93,1.55s0,.07,0,.11a.24.24,0,0,0-.1.1s.06-.08,0-.11a.9.9,0,0,0,.09-.1"/><path class="cls-3" d="M7.4,11.08s0,0,0-.07,0,0,0,.07"/><path class="cls-3" d="M7.41,10.73s0,0,0,0,0,0,0,0"/><path class="cls-3" d="M7.35,10.27s0,.09.05.17a1.94,1.94,0,0,1,0,.24s0,0,0,0,0,0,0,.06v.17s0,0,0-.06,0,0,0-.1a2.45,2.45,0,0,0,0-.39s0,0,0-.09"/><path class="cls-3" d="M7.33,10.18s0,0,0,.07a.24.24,0,0,1,0-.07"/><path class="cls-3" d="M7.27,9.89s0,0,0,0l0,0"/><path class="cls-3" d="M6.17,13.65s0,0,0,0l0,0,.06-.07.14-.15s0,.05-.06.08l-.07.08-.13.14"/><path class="cls-3" d="M6.54,13.22s.06-.08.08-.11a.61.61,0,0,1,.07-.1s-.05.08-.07.11Z"/><path class="cls-3" d="M7.4,11.32s0,0,0-.07,0,0,0,.07m0,0a0,0,0,0,1,0,0l0,.17c0,.1,0,0,0,0s0-.22,0-.32,0-.09,0-.09,0,.11,0,.11,0-.06,0-.06,0,.22,0,.27"/><path class="cls-3" d="M7.33,10.08s0,0,0,0,0,0,0,0"/><path class="cls-3" d="M5.86,14s0,0,0-.06l0,0s0,0,0,.05Z"/><path class="cls-3" d="M6.05,13.78s0,0,0,0,0,0,0,0"/><path class="cls-3" d="M2,4.85s0,0,0,0,0,0,0,0"/><path class="cls-3" d="M1,8.83s0,0,0,0,0,0,0,0"/><path class="cls-3" d="M4.75,14.76s0,0,0,0l.06,0s0,0-.05,0l-.06,0"/><path class="cls-3" d="M7.34,11.67s0,0,0-.05,0,0,0,.05"/><path class="cls-3" d="M7.43,11s0,0,0,0v0"/><path class="cls-3" d="M3.93,1.55s0,0,0,0"/><path class="cls-3" d="M1.12,8s0,0,0,0h0"/><path class="cls-3" d="M1,8.79v0s0-.08,0,0"/><path class="cls-3" d="M1,9.37v0s0-.08,0,0"/><path class="cls-3" d="M1,9.42s0,0,0,.06v.2s0-.06,0-.12Z"/><path class="cls-3" d="M1,9.72s0,0,0,0,0,0,0,0"/><path class="cls-3" d="M1,9.76s0,0,0,0,0,0,0,0"/><path class="cls-3" d="M1,10.13s0-.05,0,0"/><path class="cls-3" d="M1,10.17v0s0-.08,0,0"/><path class="cls-3" d="M1,10.21s0,0,0,0,0,0,0,0"/><path class="cls-3" d="M1,10.31s0,0,0,0,0,0,0,0"/><path class="cls-3" d="M1,10.33H1"/><path class="cls-3" d="M1,10.46s0-.07,0-.11,0,.07,0,.11"/><path class="cls-3" d="M1,10.55s0-.05,0-.07,0,0,0,0,0,0,0,.05"/><path class="cls-3" d="M1,10.56s0,.07,0,.1,0,0,0,0,0,0,0-.06"/><path class="cls-3" d="M1,10.85l0,0,0,0"/><path class="cls-3" d="M1.14,11.5s0,0,0-.06,0,0,0-.06l0-.11s0,0,0,0v.05s0,.07,0,.09a.19.19,0,0,1,0,.07"/><path class="cls-3" d="M1.21,11.86h0s0,0,0,0"/><path class="cls-3" d="M1.26,12.1s0,0,0,0,0,0,0,0"/><path class="cls-3" d="M5.16,14.56s0,0,0,0,0,0,0,0"/><path class="cls-3" d="M5.64,14.18c.07,0,0,0,0,.05s0-.05,0-.05"/><path class="cls-3" d="M7,12.64s0,0,0-.05l0-.05.06-.11s0,.06,0,.09Z"/><path class="cls-3" d="M7.11,12.36s0,0,0,0,0,0,0,0"/><path class="cls-3" d="M3.15,2.66v0s0,0,0,0"/><path class="cls-3" d="M1,9.82H1"/><path class="cls-3" d="M1,9.85s0,0,0,0V10s0,0,0,0V9.85Z"/><path class="cls-3" d="M1,10.07s0,0,0,0,0,0,0,0"/><path class="cls-3" d="M1.13,11.53s0,0,0,0,0,0,0,0"/><path class="cls-3" d="M1.27,12.18s0,0,0,0v.06l0,.09s0,0,0,0v0Z"/><path class="cls-3" d="M1.32,12.39l0,0v0s0,0,0,0Z"/><path class="cls-3" d="M1.35,12.47h0"/><path class="cls-3" d="M1.41,12.63v0s0-.12,0,0"/><path class="cls-3" d="M5.25,14.52s0,0,0,0,0,0,0,0"/><path class="cls-3" d="M5.54,14.28s0,.05-.06.08,0,0,.06-.08"/><path class="cls-3" d="M5.72,14.13v0s0,0,0,0"/><path class="cls-3" d="M5.82,14h0"/><path class="cls-3" d="M6,13.87s0,0,0,0l0,0"/><path class="cls-3" d="M7.45,10.61s0,0,0,0,0,0,0,0"/><path class="cls-3" d="M4.17,1.17s0,0,0,0,0,0,0,0"/><path class="cls-3" d="M3.1,2.73v0s0,0,0,0"/><path class="cls-3" d="M1.92,5.05h0"/><path class="cls-3" d="M1.33,6.85s0,0,0,0a0,0,0,0,1,0,0"/><path class="cls-3" d="M1.33,6.88s0,0,0,0,0,0,0,0"/><path class="cls-3" d="M1.7,13.5h0"/><path class="cls-3" d="M1.77,13.63s0,0,0,0l0,0"/><path class="cls-3" d="M2.62,14.62s0,0,0,0l0,0,.07,0s0,0-.07,0Z"/><path class="cls-3" d="M3.45,15s0,0-.07,0l-.22-.06a1.24,1.24,0,0,1-.32-.14s.09,0,.06,0,.07.05.08,0a1.47,1.47,0,0,0,.47.14"/><path class="cls-3" d="M4.63,14.84s0,0,.07,0l.1,0,0,0h0Z"/><path class="cls-3" d="M5,14.68l0,0,0,0"/><path class="cls-3" d="M5.18,14.57s0,0,.05,0l-.05,0"/><path class="cls-3" d="M5.32,14.48s0,0,0,0,0,0,0,0"/><path class="cls-3" d="M5.76,14.11s0,0,0,0l0,0"/><path class="cls-3" d="M5.82,14s0,0,0,0"/><path class="cls-3" d="M7.33,9.93v0s0,.13,0,0"/><path class="cls-3" d="M1.52,6.15s0,0,0,0v.06s0,0,0,0Z"/><path class="cls-3" d="M1.48,6.26h0s0,0,0,0"/><path class="cls-3" d="M6.18,13.72s0,0,0-.05l0,.05"/><path class="cls-3" d="M7.4,10.16v0l0-.06s0,0,0,0Z"/><path class="cls-3" d="M3.84,1.53s.05-.08.08-.06,0,0,0,.05,0,0,0,0,0,0,0,0"/><path class="cls-3" d="M.93,9.38s0,0,0,0,0,0,0,0"/><path class="cls-3" d="M.93,9.41s0,0,0,0,0,0,0,0"/><path class="cls-3" d="M7,9.13s0,0,0,0l0,0"/><path class="cls-3" d="M1.05,7.93s0,0,0,0a0,0,0,0,1,0,0"/><path class="cls-3" d="M3.84,1.53s0,0,0,0"/><path class="cls-3" d="M6,8.15H6"/><path class="cls-3" d="M2.91,2.88a0,0,0,0,1,0,0,0,0,0,0,1,0,0"/><path class="cls-3" d="M1.43,6.18s0,0,0,0,0,0,0,0"/><path class="cls-3" d="M1.36,6.45s0,0,0,0,0,0,0,0"/><path class="cls-3" d="M1.17,7.18h0s0,0,0,0"/><path class="cls-3" d="M.92,8.7h0a0,0,0,0,1,0,0"/><path class="cls-3" d="M2.6,2.94s0,0,0,0,0,0,0,0"/><path class="cls-3" d="M2.46,3.19v0s0,0,0,0"/><path class="cls-3" d="M13.35,5.44s0,0,0-.05.12-.22.18-.34,0,0,0,0,0,0,0,0h0s0-.06,0-.09,0,0,0,0,0,0,0,0,0,0,0,0,0,0,0,0A3.09,3.09,0,0,1,14.14,4a.12.12,0,0,1,0,0l.07-.1s0,0,0,0,0,0,0,0a5.22,5.22,0,0,0-.38.54s0,0,0,0,0,0,0,0,0,0,0,0,0,0,0,0-.07.1-.07.14-.05.09-.08.13l-.08.15s0,0,0,0a4,4,0,0,0-.2.35"/><path class="cls-3" d="M13.33,5.45s0,0,0,0,0,0,0,0"/><path class="cls-3" d="M13.32,5.47s0,0,0,0,0,0,0,0"/><path class="cls-3" d="M13.29,5.56s0,0,0,0"/><path class="cls-3" d="M12.92,6.32h0"/><path class="cls-3" d="M12.44,11.54h0"/><path class="cls-3" d="M12.44,11.54h0Z"/><path class="cls-3" d="M12.44,11.55h0Z"/><path class="cls-3" d="M12.44,11.55h0"/><path class="cls-3" d="M12.44,11.55h0"/><path class="cls-3" d="M12.42,7.67s0,0,0,0v0s0,0,0,0Z"/><path class="cls-3" d="M12.22,8.74s0,0,0,0,0,0,0,0"/><path class="cls-3" d="M12.44,11.55h0"/><path class="cls-3" d="M12.45,11.54h0"/><path class="cls-3" d="M12.45,11.55h0"/><path class="cls-3" d="M12.45,11.55h0"/><path class="cls-3" d="M12.49,11.49h0s0,0,0,0"/><path class="cls-3" d="M12.36,7.86h0"/><path class="cls-3" d="M12.36,7.88s0,0,0,0,0,0,0,0"/><path class="cls-3" d="M12.35,7.94s0,0,0,0a0,0,0,0,1,0,0"/><path class="cls-3" d="M12.32,8.07v0s0,0,0,0"/><path class="cls-3" d="M12.31,8.11h0"/><path class="cls-3" d="M12.44,11.56h0"/><path class="cls-3" d="M12.45,11.55h0"/><polyline class="cls-3" points="12.45 11.55 12.45 11.54 12.45 11.55"/><path class="cls-3" d="M12.45,11.55h0"/><path class="cls-3" d="M12.45,11.55h0"/><path class="cls-3" d="M12.46,11.54h0s0,0,0,0"/><path class="cls-3" d="M12.46,11.54h0"/><path class="cls-3" d="M12.46,11.54h0"/><path class="cls-3" d="M12.46,11.54h0"/><path class="cls-3" d="M12.47,11.53h0"/><path class="cls-3" d="M12.47,11.53h0"/><polyline class="cls-3" points="12.47 11.53 12.47 11.52 12.47 11.53"/><path class="cls-3" d="M12.48,11.52h0"/><polyline class="cls-3" points="12.48 11.52 12.48 11.52 12.48 11.52 12.48 11.52 12.48 11.52"/><path class="cls-3" d="M12.48,11.52h0"/><path class="cls-3" d="M12.28,8.25s0,0,0,0,0,0,0,0"/><path class="cls-3" d="M12.27,8.28h0"/><path class="cls-3" d="M12.46,11.54h0"/><path class="cls-3" d="M12.46,11.54Z"/><path class="cls-3" d="M12.47,11.54h0"/><path class="cls-3" d="M12.47,11.53Z"/><polyline class="cls-3" points="12.48 11.53 12.48 11.52 12.48 11.53"/><path class="cls-3" d="M12.11,9.24s0-.05,0-.07,0,0,0,0v0a.58.58,0,0,1,0-.14c0-.05,0-.08,0-.13h0l0,0h0s0,0,0,0V8.67a.24.24,0,0,0,0-.09v0h0s0,0,0,0v0h0s0-.06,0-.08a.14.14,0,0,1,0-.06,2.65,2.65,0,0,1,0-.27s0,0,0,0,0,0,0,0h0l0,0s0,0,0-.05.05-.17.06-.26l0-.12,0-.06a.06.06,0,0,0,0-.06.06.06,0,0,0,0-.06.09.09,0,0,1,0,0s0,0,0,0v.06a.18.18,0,0,0,0,.1l-.05.18a1.74,1.74,0,0,1-.05.22.25.25,0,0,1,0,.12s0,0,0,0v0a.18.18,0,0,0,0,.06.68.68,0,0,1,0,.14s0,0,0,0a.8.8,0,0,0-.05.26s0,0,0,.06,0,.1,0,.16a.58.58,0,0,1,0,.14s0,.06,0,.08v0h0v.06a0,0,0,0,1,0,0s0,.05,0,.07"/><path class="cls-3" d="M12.12,10h0a0,0,0,0,1,0,0"/><path class="cls-3" d="M12.12,10s0,0,0,0"/><path class="cls-3" d="M14.31,3.68h0s0,0,0,0"/><path class="cls-3" d="M12.11,9.56s0,0,0,0,0,0,0,0"/><path class="cls-3" d="M12.1,9.64h0"/><path class="cls-3" d="M12.11,9.88h0"/><path class="cls-3" d="M12.11,10.07h0"/><path class="cls-3" d="M12.11,9.34s0,0,0,.06,0,0,0,0,0,0,0,0"/><path class="cls-3" d="M12.1,9.6s0,0,0,0,0,0,0,0"/><path class="cls-3" d="M12.09,9.61h0"/><path class="cls-3" d="M13.94,4.16h0"/><path class="cls-3" d="M13.85,4.28h0s0,0,0,0"/><path class="cls-3" d="M12.52,7h0"/><path class="cls-3" d="M12.46,7.21s0,0,0,0v0s0,0,0,0,0,0,0,0v0Z"/><path class="cls-3" d="M12.45,11.33h0"/><path class="cls-3" d="M14.84,10.1h0M11.45,2s0,0,0,0,0,0,0,0m-.23.34s0,0,0,0,0,0,0,0a.06.06,0,0,0,0,0l-.09.12s0-.08.07-.11a0,0,0,0,0,0,0s0,0,0-.05l0,0,.15-.16s0,0,0,.06-.06.05-.06.08,0,0,0,0,0,0,0,0m-.13.25s0,0,0,0a0,0,0,0,1,0,0m1.14,12.05s0,0,0,0,0,0,0,0m-.08,0,0,0,0,0M11.47,2s0,0,0,0,0,0-.07.09,0,0,0-.07L11.47,2m.95,12.52,0,0,0,0m-.15.06,0,0s0,0,0,0m-1-12.26s0,0,0,0l0,0s0,0,0,0ZM11.48,2s0-.08,0-.08.06-.07.09-.1,0,.05,0,.07-.06.08-.1.11m.18-.23s0,0,0,0a0,0,0,0,1,0,0m2.71,10.88s0,0,0,0v0m-.26.37a.05.05,0,0,1,0,0s0-.06,0-.05-.07.09-.09.08M11.71,1.7s0,0,0,0v0s0,0,0,0Zm.08,13,0,0,0,0m3-4.3s0,.07,0,.12,0-.09,0-.12m-3,4.29,0,0s0,0,0,0m0,0s0,0,0,0v0m-.06,0s0,0,0,0l0,0m-.06,0h0s0,0,0,0m-.05,0h0m-.11,0h0m-.22,0h0m-.1,0h0m3.67-4.42s0,.05,0,.09,0-.09,0-.09M9.22,7s0,0,0,0,0,0,0,0m0,0s0,0,0,0m0-.08s0,0,0,.07,0,0,0-.07m2.83,7.69,0,0,0,0m-2.74-1.9s0,0,0,0v0m-.05-.16s0,0,0,0v0M11,2.89v0a.08.08,0,0,1,0,0m0,0v0s0-.06,0,0M9.21,7.16a.06.06,0,0,1,0-.06l0-.09,0-.16,0-.09,0,0s0,0,0,0l0,.17s0,0,0,0ZM10.8,3.22h0s0,0,0,0m.09-.16s0,0,0-.05,0,0,0,.05m3.29,9.69s0,0,0-.07l0,0,0,.06Zm-5-5.21s0,0,0,0a0,0,0,0,1,0,0m0-.35s0,.06,0,.07,0,0,0,.09,0,0,0,0,0,0,0,0v0s0,0,0,0V7.42s0,0,0,0,0,0,0-.06,0-.05,0,0a.25.25,0,0,1,0-.09m.66-2s0,0,0,0l-.06.14a0,0,0,0,1,0,0v0l0-.07Zm0,0s.05,0,0,0m0-.07s0,0,0,0,0,0,0,0m4.84,6.19v0s0,.15,0,0m-.26,1s0,0,0-.05,0,0,0,.05m-.13.24s0,.05,0,.08,0,.05,0,.08,0-.1.07-.16m-2.14,2s0,0,0,0l0,0m-.18,0h0s-.09,0,0,0M9.09,7.82s0,0,0,0a0,0,0,0,1,0,0m5.37,1.77s0,0,0,0,0,0,0,0m-2.19,4.82h0s-.1,0,0,0m-.18.07.05,0s0,0-.05,0Zm2.3-5s0,0,0,0h0m0,0h0c0-.05,0-.1-.07-.15s.05.08.07.11.07.15,0,.06l0,0s0,0,0,0,0,0,0,0m.2,2.29s0,0,0,0,0,0,0,0m-.47,1,0-.06s0,0,0,.06m-.09.13s.06-.08.09-.11-.06.12-.11.18a4.16,4.16,0,0,1-.32.39s-.06.05-.06.06-.07,0-.06.07c-.15.12-.34.32-.5.46L13,14,13,14s0,0,0,0l.1-.08a1.94,1.94,0,0,1,.27-.25s0,0,0,0l.39-.39c.06-.07.09-.07.1-.12h0l0-.05a0,0,0,0,1,0,0L14,13a.09.09,0,0,0,0-.06l0,0c0-.06.09-.11,0,0M9,9.86s0,0,0,0,0-.08,0-.14,0,0,0,0,0,0,0,0h0a.15.15,0,0,1,0,.08m0-.21v0h0v0Zm5.75,1.61v-.11s0,0,0,.07,0,.13,0,0m0,.14s0,0,0,0,0,0,0,0m0,.14s0,0,0-.06v-.06a.06.06,0,0,1,0,.06.13.13,0,0,1,0,.06m0,0s0,0,0,.09,0-.05,0-.09m-.06.25s-.06.18-.07.25,0,.1-.07.14l-.07.14a2.49,2.49,0,0,1-.15.28s0,0,0,0l0-.06s.06-.09.05-.1.12-.26.22-.46,0-.1.06-.18M14,13s0,0,0,0,0,0,0,0M9.06,11.21s0,0,0,0,0,0,0,0M8.93,9.63l0-.38s0,0,0-.05,0,0,0,0,0,0,0,0h0V9.1s0,0,0,0,0-.23,0-.35v0a.32.32,0,0,1,0-.08A.57.57,0,0,0,9,8.5a1.11,1.11,0,0,0,0-.17.17.17,0,0,1,0-.07s0-.07,0-.08a.49.49,0,0,0,0-.14.22.22,0,0,1,0-.08s0-.06,0,0a1.57,1.57,0,0,0,0,.27s0,0,0,.06a1.83,1.83,0,0,1,0,.21.88.88,0,0,1,0,.17c0,.12,0,.27,0,.4s0,0,0,0,0,.16,0,.29,0,.09,0,.15v.07s0,0,0,0M14.71,11s0,.05,0,.1,0-.05,0-.1m-.26-1.4s0,0,0,0,0-.06,0-.06,0,.09,0,.12a1.11,1.11,0,0,1,.12.31.11.11,0,0,1,0,.05,2.75,2.75,0,0,1,.12.56c0,.06,0-.05,0-.07s0,.09,0,.13,0,0,0,0,0,.11,0,.15,0,.21,0,.28,0,0,0,0,0-.05,0-.09a.12.12,0,0,1,0-.08s0,0,0,0,0-.15,0-.18a.2.2,0,0,1,0-.11s0,0,0,0a0,0,0,0,1,0-.05.2.2,0,0,0,0-.07s0,0,0,.06a0,0,0,0,1,0,0l0-.1s0,0,0,0,0,0,0,0,0,0,0-.08,0,0,0-.07,0-.14-.07-.25a1.2,1.2,0,0,1-.13-.28M11,14.54s-.05,0-.08,0,.05,0,.08,0m-.14,0h0m-.13,0s.08,0,.11,0-.09,0-.11,0m0,0s-.06,0-.08,0l-.07,0-.14-.09s.07,0,.1.05a.09.09,0,0,1,.06,0s.1,0,.13.07m-.32-.21,0,0s0,0,0,0h0m2.43-.17s0,0,0,0,0,0,0,0M9,10.07H9s0,0,0,0M9,10s0,0,0,0,0,0,0,0m.12-2a0,0,0,0,1,0,0s0,0,0,0m.05-.24v0h0v0Zm5.42,2.3s0,.05,0,.09,0-.06,0-.09m-.3-.7s.06.08.08.12,0-.08-.08-.12m-3.93,4.84a.55.55,0,0,1-.11-.1h0s0,0,0,0,0,0,0,0l0-.05,0,0,0,0s0,0,0,0l0-.07a.38.38,0,0,1-.08-.11.78.78,0,0,1-.1-.15s0,0,0-.06h0c-.07-.13-.14-.28-.22-.47a1.12,1.12,0,0,1-.08-.24.23.23,0,0,0,0-.09l0-.05s0,0,0,0,0-.14-.07-.22l0-.17A1.32,1.32,0,0,1,9.24,12s0-.08,0-.11h0s0,0,0,0,0,.1,0,.17.07.24.11.36.11.36.17.54l0,.07a.11.11,0,0,1,0,.05l.05.1a2.91,2.91,0,0,0,.18.35s0,.07,0,.08l.05.08s0,0,0,.05.06.06,0,.07,0,0,0,0,.08.08.1.13l.06.07s.07,0,.06.06l.07.06s0,0,0,.05M9.14,11.42h0s0,0,0,0m.3-4.85s0,0,0,0,0,.06,0,.06,0,0,0,.08,0,.08,0,.1,0,.1,0,.15a0,0,0,0,1,0,0s0,0,0,0,0,0,0,.07a2.33,2.33,0,0,0-.08.36s0,0,0,0,0,0,0,.06,0,0,0,0,0,0,0,0a.79.79,0,0,1,0,.13s0-.06,0-.08,0,0,0-.08,0-.2,0-.28,0,0,0-.06c0-.19.1-.32.15-.55,0,0,0,0,0,0h0s0,0,0,0,0,0,0,0M9.65,6s0,0,0,0l0,0m.26-.73s0,0,0,0,0,0,0,0m4.46,4.36c.05,0,.09.15.13.24s-.08-.17-.13-.24m-2.92,5h0m-1-.34h0M9.19,11.64l0,0s0,0,0,0m0-.07s0,0,0,0v0s0,0,0,0Zm0-.13s0,0,0,0,0,0,0,0m.43-5.36s0,0,0,0,0,0,0,0l0,0s0,0,0,0,0,0,0,.06h0s0,0,0,0,0,0,0,0h0s0,0,0,0,0,0,0,0,0,0,0,0,0,0,0,.08,0,0,0,0a0,0,0,0,1,0,0s0,0,0,0a.84.84,0,0,1,0-.17s0,0,0,0a.67.67,0,0,0,.06-.15s0-.06,0-.08m2.18,8.39s0,0,0,0a.1.1,0,0,1,0,0m-.06,0s0,0-.06,0,0,0,.06,0m-.43,0s.09,0,.13,0-.05,0-.08,0-.07,0-.05,0m-.14,0h0m-2-3.13s0-.07,0-.12,0-.1,0-.14c-.06-.31-.08-.68-.11-1a0,0,0,0,1,0,0v.07c0,.06,0,.07,0,.12s0,.19,0,.28a1.37,1.37,0,0,1,0,.23s0,0,0,0,0,.2,0,.3a.38.38,0,0,0,0,.15m2.09,3.15h0s.06,0,0,0m-.14-.05h0s-.08,0-.12,0a1.78,1.78,0,0,1-.53-.25s0,0,.09,0l.1.06.18.08s.07,0,.08,0l.19,0m3.37-4.6h0s0,0,0,0m-.73-1h0M14.5,10s0,0,0,0l0,.08s0-.08,0-.11,0,0,0,0m-.21-.45s0,0,0,0l0,0,0,0Zm.05.1,0,0s0,0,0,0m.05.09s0,0,0,0,0,0,0,0,0,0,0,0,0,0,0-.06a0,0,0,0,0,0,0l-.06-.11s-.08-.09,0-.11a1.74,1.74,0,0,1,.25.49s0,0,0,0,0,0,0,0v0s0,0,0,0M12.32,1.3s0,0,0,0v0a0,0,0,0,1,0,0Zm-.09.17s0,.05-.05.07,0,0,0-.05,0,0,0-.06a.74.74,0,0,0,.13-.12s0,.07,0,.07a.35.35,0,0,1-.05.08h0s0,0,0,0,0,0,0,0M14,9.35l0,0,0,0s0,0,0,0Zm-.71-.47h0s0,0,0,0m.16.12s0,0,0,0-.07,0-.13-.08,0,0,0,0h0s0,0,0,0,.12.06.17.09M13,8.91h0Zm-.54-7s.05-.06.06-.08,0,0,0,0,0,0,0,0h0m.36-.44s0,0,0,0,0,0,0,0m-.67,7.45h0m1.17.44h0l0,0s0,0,0,0Zm-.15-.09h0m-.57.45h0m-.4.6h0s0,0,0,0h0l0,0m.28.22h0m0,0h0m-.12.07Zm0,0h0m.06,0h0s0,0,0,0m1.83-8h0l0,0s0,0,0,0a.13.13,0,0,0,.07-.06s0,0,0,0l0,0s0,0,0,.06,0,0,0,0m-1.55,8.71h0M13.85,4s0,0,0,0V4m-.28.49s0,0,0,0,0,0,0,0a.3.3,0,0,1,0-.08,1,1,0,0,1,.11-.17A.5.5,0,0,1,13.84,4s0,0,0,.07l0,.07a1.94,1.94,0,0,1-.2.33M12.12,7.88s0,0,0-.06l0-.06s0,0,0,0,0-.09,0-.13,0,0,0,0,0-.09,0-.12,0-.07,0-.11,0,0,0,0a0,0,0,0,0,0,0s0,0,0-.06,0,0,0,0v.07s0,.09,0,.12,0,.17-.07.21a1.55,1.55,0,0,1-.07.23m.39,3.74s0,0,0,0h0l0,0h0l0,0s0,0,0,0m-.58-2s0,0,0,0l0-.53a0,0,0,0,1,0,0v.16s0,0,0,0,0,0,0,0a1.77,1.77,0,0,1,0,.32m.61,1.92s0,0,0,0,0,0,0,0l0,0h0v0h0M12.07,11s0-.09,0-.14a.06.06,0,0,1,0,0s0,0,0,0v.07s0,0,0,0,0,0,0,0,0,0,0,0m.18.57h0m-.49-2.24c.05,0,.11,0,.15,0s-.06,0-.05,0,0,0,0,0l0,0L12,9.37h.27c0,.05,0,0,0,.08s0,0,0,0h0s.07,0,.06.05-.07,0-.11,0,0,0-.05,0-.13,0-.18,0l-.11,0s0,0,0,.05-.1,0-.15.09,0,0,0,.06a0,0,0,0,0,0,0l-.06.06s0,0,0,0l0,0s0,0,0,0a.82.82,0,0,1,.45-.16h0s.1,0,.13,0,0,0,.05,0h.07l0,0s.06,0,.07,0-.14,0-.18,0h-.1s0,0,0,0,0,0,0,0h0a1.42,1.42,0,0,0-.16,0c-.07.05-.13.05-.19.11s0,0,0,0a.13.13,0,0,0-.05.07l0,0s0,0,0,.05a.62.62,0,0,1,.21-.15s0,0,.06.05,0,0,0,0,0,0,0,0H12s0,0,0,0l-.05,0s0,0,0,0,0,0,0,0a.54.54,0,0,1,.18,0l.06,0s0,0,0,0h0a.75.75,0,0,0-.18.07H12s0,0,0,0h0l-.07,0s0,0,0,0,0,0,0,0h0l0,0s0,0,0,0h.08s0,0,0,0h0v0h0l0,0h0l0,0a.42.42,0,0,1,.07.11l0,.05s0,0,0,0v0h.09s0,0,0,0,0,0,0,0h-.06s0,0,0,0H12.3v0h0a.28.28,0,0,0,0-.11.36.36,0,0,0-.06-.11v0l0,0a.07.07,0,0,1,0,0,.52.52,0,0,1,.06.16v0h0s0,0,0,0h0v-.05l0,0a.08.08,0,0,0,0,0v0h0v.06a.58.58,0,0,0-.09-.23s0,0,0,0h0l0,0v0a.58.58,0,0,1,0,.11v0s0,.08,0,.11h0l0,.4h.07s0,0,0,0h-.08l0-.41h0v0a.2.2,0,0,0,0-.07.47.47,0,0,0-.07-.17v0h0v0a.77.77,0,0,1,.07.16.17.17,0,0,1,0,.07v0h0c0-.1.07.84,0,.44h.07s0,0,0,0h0s0,0,0,0,0,0,0,0,.06,0,.09,0h0s0,0,0,0a.31.31,0,0,1,.06.13v0h0a0,0,0,0,0,0-.05s0,0,0,0v0h0s0,0,0,0l0,0h0s0,0,0,0h0s0,0,0,0h0s0,0,0,0,0,0,0,0a.07.07,0,0,1,0,.05s0,0,0,0l0,0v0h0s0,0,0,0h0s0,0,0,0h0s0,0,0,0h0l0,0h-.07l0,0h0s0,0-.05,0h0l0,0s0,0,0,0,0,0,0,0h0s0,0,0,0,0,0,0,0h0s0,0,0,0,0-.1,0-.15,0,0,0,0a.22.22,0,0,0,0-.14c0-.06,0-.13,0-.19a2.25,2.25,0,0,1-.09-.35s0,0,0,0a4,4,0,0,1-.08-.4v-.19s0,0,0,0,0,0,0,0,0,0,0-.05v-.1c0-.05,0-.05,0-.09s0,0,0,0a.31.31,0,0,1,0-.08h0v0s0-.06,0-.09,0,0,0,0,0,0,0,0a.08.08,0,0,1,0,0,.17.17,0,0,0,0-.07s0-.07,0-.11l0,0a.05.05,0,0,0,0,0s0,0,0-.05a.06.06,0,0,1,0,0s0,0,0,0,0,0,0,0A.11.11,0,0,1,12,9s0,0,0-.05,0,0,0,0,0,0,0,0a2.07,2.07,0,0,0,0-.22s0,0,0,0,0-.07,0-.11,0,0,0-.05a2.38,2.38,0,0,0,.05-.26s0,0,0,0,0,0,0,0,0,0,0,0V8s0,0,0-.08,0,0,0-.08,0-.08,0-.12a3.59,3.59,0,0,0,.12-.35.75.75,0,0,1,.09-.29V7s0-.12.07-.16,0,0,0-.07a3.29,3.29,0,0,1,.16-.44s0,0,0,0c.08-.19.14-.35.23-.52,0,0,0,0,0,0h0a.33.33,0,0,0,0-.06s0,0,0,0a.48.48,0,0,1,.05-.14.94.94,0,0,1,.14-.26.27.27,0,0,1,.06-.12c.06-.13.14-.22.2-.35s0,0,0,0-.13.24-.22.4c0,0,0,0,0,0a0,0,0,0,0,0,0A2.21,2.21,0,0,0,13.39,5c.11-.15.19-.35.29-.49s.05-.09.07-.14a.07.07,0,0,0,0,0s.05,0,0,0a.05.05,0,0,1,0,0s0-.06.05-.09,0-.05,0-.05,0,0,0,0l.07-.1,0,0s0,0,0,0l0-.06a1.74,1.74,0,0,0,.11-.18l.08-.11a.85.85,0,0,1,.08-.17.34.34,0,0,0,0-.1s0,0,0,.06l-.06.07s0,0,0,0a.22.22,0,0,0-.06.07l0,0,0,0,0,.05a.14.14,0,0,1,0-.15s0,0,0,0,0,0,0,0,0-.06.06-.08a.62.62,0,0,1,.08-.12c0-.05.06-.1.08-.15s0,0,0,0,0,0,0,0,0,0,0,0,0,0,0-.06,0,.05-.05,0a.82.82,0,0,1,.11-.17.54.54,0,0,1,.1-.18s0,0,0,0h0s0,0,0,0L14.3,3s0,0,0,0,0,0,0,0,0,0-.05,0l0,0s0,0,0,0l0,0,0-.05s0,0,0,0,0,0,0,0l.08-.09s0,0,0,0l.05-.06a0,0,0,0,0,0,0s0,0,0,0,0,.07-.05.1,0,.07-.08,0,.05-.12.11-.19,0,0,0,0v0s0,0,0-.06,0,0,0,0,.09-.1.14-.17,0,0,0,0,0,0,0,0-.09.09-.15.17,0,0,0,0,0,0,0,0,0,0,0,0,0,0,0,0,0,0,0,0l0,0h0l0,0a0,0,0,0,0,0,0s0,0,0,0,0,0,0,0,0,0,0,0,0,0,0-.05,0,0,0,0a.42.42,0,0,1,.06-.08s0,0,0,0,0,0,0,0-.05,0-.07,0h-.06a.14.14,0,0,0,0-.06s0,0,0-.06,0,0-.06-.07l-.05,0s0,0,0,0,0,0,0,0,0,0-.05,0,0,0,0,0,0,0,0-.06,0,0,0,0,0,0,0-.06,0-.08-.1-.12,0,0,0,0h0s0,0,0,0,0,0,0,0,0,.07-.08.08,0,0-.05-.06,0,0-.07-.06,0,.08-.07.09,0-.06,0-.09-.06,0-.09,0,0,0,0,0,0,0,0,0l0,0s0,0,0,0,0,0,0,0h0s0,0,0-.05,0,0,0-.06,0,0,0,0,0,0,0-.05l0,.05s0,0,0,0V1.42s0,0,0,0,0,0,0,0,0,0,0,0,0,0,0,0-.05,0,0,.06a0,0,0,0,1,0,0s0,0,0,0,0,0,0-.05,0,0,0-.05,0,0,0-.06,0,0,0,0,0,0,0,.07,0,.06,0,0,0-.08,0-.08,0,0-.06.06-.1.1-.15.11,0,0,0-.06,0,0,0,0,0,0,0,0,0,0,0,.05,0,0,0,0a.08.08,0,0,0,0,0,.35.35,0,0,1-.05.08s0,0,0,0,.05-.1.07-.14a.08.08,0,0,1,.05-.05s0-.05.06-.07v0h0s0,0,.05-.05.07-.06,0-.08a1.1,1.1,0,0,1-.14.18s0,0,0,0,0,0,0,0,0,0,0,0,0,0,0,0,0,0,0,0a.05.05,0,0,0,0-.05.23.23,0,0,0-.08.09l-.06,0s0,0,0,0,0,0,0,.06,0,0,0-.05,0,0,0-.06,0,.08-.08.1,0,0,0,.06a.07.07,0,0,1,0-.06s0,0,0,0,0,0,0,0,0-.09,0-.13,0,0,0,0,0,0,0-.06-.06,0-.06.06,0,0-.05,0,0,0,0,0,0-.05,0-.07-.08.11-.11.11,0-.06,0-.09l-.08.09c0,.07-.09.14-.12.21a0,0,0,0,1,0,0l0,0s0,0,0,0,0,0,0,0,0,.05,0,.05a.64.64,0,0,1,0-.07s0-.05,0,0l-.05.07s0,.06-.05.05,0,0,0,0,0,0,0,0,0,.06,0,0,0,.09-.05.11a.13.13,0,0,1,0-.1s0,0,0,0,0,0,0,0l0-.05s0,0,0,0,0,0,0,0,0,0,0,0,0,.05,0,0l0,0a0,0,0,0,0,0,0l-.1.1s0,.05-.08.08,0,0,0,0a.35.35,0,0,1,0,.08s0,0,0,0a.21.21,0,0,0,0,.07s0,0,0,0l-.07.09s0,0,0,0,0,0,0,.07a.25.25,0,0,0,0,.07s0,0,0,.05l0,0s0,0,0,0,0,0,0,.06,0,0,0,0,0,.06-.05,0,0,0,0,0,0,0,0,0,0,0,0,0-.05,0,0,0,0,0,0,0l-.06.07s0,0,0,0,0,0,0,0-.07.09-.08.13a.26.26,0,0,0-.07.1s0,0,0,0,0,0,0,0,0,0,0,0,0,0,0,.06L10.75,3s0,0,0,0,0,0,0,0,0,0,0,0,0,0,0,0,0,0,0,0a.05.05,0,0,1,0,0l0,.06-.08.13s0,0,0,0,0,.06-.05.05,0,0,0,.06,0,0,0,.06,0-.06.07-.09a.83.83,0,0,0,.07-.13.88.88,0,0,0,.14-.23s0,0,.05,0h0a0,0,0,0,1,0,0s0,0,0,0,.05-.06.05-.1,0-.05.07-.08,0-.05,0,0a2,2,0,0,0-.17.27.61.61,0,0,0-.12.16,1.64,1.64,0,0,1-.12.22c-.06.07-.09.15-.15.23a.16.16,0,0,1,0,.09s0,0,0,0l0,.06a.09.09,0,0,1,0,.05s0,0,0,0l0,0,.05-.09,0,0h0s0,0,0-.05a.46.46,0,0,0,.08-.13s0,0,.05-.06a.25.25,0,0,1,.08-.1s0,0,0,0l.08-.1s0,0,0-.05a.51.51,0,0,1,.09-.13s0,0,0-.06a.88.88,0,0,0,.12-.19s0,0,.05,0,0,0,0,0,0,0,0,0,0,0,0,0,0,0,.07-.09,0-.06,0-.07,0,0,0,0,0,0,0,0,0,0,0,.05l0,0,0,.08s0,0,0,0a1.82,1.82,0,0,1-.2.29l0,0s0,0,0,0l-.08.14s0,0,0,0a.43.43,0,0,1,0-.07s0-.06,0-.06,0,0,0,.08,0,0,0,0,0,0,0,0,0,0,0,0,0,.07-.08.12l-.11.19s0,0,0,0l0,.07s0,0,0,0l0,0s0,0,0,0,0,0,0,0a.26.26,0,0,1,.07-.1l0-.09s0,0,0,0,0,0,0,0a.36.36,0,0,0-.08.12h0s0,0,0,0a.83.83,0,0,0-.09.16.69.69,0,0,0-.1.17s0,0,0,0,0,.07,0,.08l-.05.1,0,0s0,0,0,0-.07.15-.1.19a0,0,0,0,0,0,0s0,0,0,0,0,0,0,0,0,.09-.06.13h0s0,0,0,0h0s0,0,0,0,0,0,0,0l0,0a2,2,0,0,0-.11.26.43.43,0,0,1,0,.07s0,0,0,0l0,0s0,.07,0,.11,0,0,0,0,0,0,0,0,0,0,0,0l-.11.28s0,0,0,0,0,.11-.06.13,0,0,0,.07a9.56,9.56,0,0,0-.3,1l0,.07s0,.06,0,0,0-.17.07-.25,0,0,0,0v0s0,0,0,0v0s0,0,0,0,0,.06,0,.09,0,0,0,0,0,0,0,0h0s0,.06,0,.09,0,0,0,.07a.22.22,0,0,1,0,.08s0,0,0,.06,0,0,0,.06,0,0,0,.06,0,0,0,0,0,0,0,0a.67.67,0,0,0,0,.2,1.4,1.4,0,0,0-.06.24s0,.06,0,.06,0,0,0-.06h0a1.72,1.72,0,0,0,0,.24s0-.08,0-.08a.82.82,0,0,0,0,.21s0,0,0,0,0,0,0,.06,0-.06,0-.08,0-.07,0-.08a.14.14,0,0,1,0,.07S9,8,9,8,9,8,9,8l0,.17s0,0,0,0,0,0,0,.05,0,0,0,.09,0,.2-.05.3a.16.16,0,0,1,0,.07h0a0,0,0,0,1,0,.05,1.41,1.41,0,0,0,0,.18s0,0,0,0,0,0,0,0,0,0,0,0V9s0,0,0,0l0,0s0,0,0,.05,0,.07,0,.12,0,.15,0,.21,0,.07,0,.13v.08h0s0,0,0,0,0,0,0,0a.31.31,0,0,1,0,.1A.51.51,0,0,1,9,10v.26a.48.48,0,0,1,0,.12.86.86,0,0,1,0,.16H9s0,0,0,0,0,.28,0,.41,0,0,0,0,0,0,0,0h0v0a2.34,2.34,0,0,0,0,.26.81.81,0,0,1,0,.11s0,0,0,0v.06s0,0,0,0,0,0,0,0l0,.24s0,0,0,.05.05.2.05.28,0,0,0,0,0,0,0,.08l0,.08,0,.09a.52.52,0,0,0,0,.11,5.91,5.91,0,0,0,.27.74,1.72,1.72,0,0,0,.12.22s0,0,0,0,0,.05.06.1a1.18,1.18,0,0,1,.11.15s0,.05,0,.08,0,.05.08.06,0,0,.07.08a1.23,1.23,0,0,0,.33.28l.08.06a.93.93,0,0,1,.15.07s0,0,.05,0l.1.05h.1l.08,0h.18s0,0,0,0h0c.05,0,0,0,0,0l.26,0h.07s.06,0,.09,0,.07,0,.08,0a.55.55,0,0,0,.16,0s0,0,0,0v0l0,0-.05,0c-.1,0-.23,0-.3.08h-.05l-.19,0s0,0-.06,0h-.18a.58.58,0,0,0-.14,0l-.16-.05a.35.35,0,0,1-.12,0l-.05,0,0,0s0,0,0,0h0l0,0h0a0,0,0,0,1,0,0l0,0h0l-.07-.06-.06,0s0,0,0-.05a.44.44,0,0,1-.11-.09,2,2,0,0,1-.3-.34s-.06-.09-.1-.13-.06-.06,0-.08a.18.18,0,0,1-.06-.08c0-.09-.06-.1-.11-.21s0,0,0-.06-.05-.13-.09-.22a2.5,2.5,0,0,1-.09-.25s0,0,0-.08l-.05-.12s0-.06,0-.06,0,0,0,.06l0-.1s0,0,0,0,0,0,0-.07l0-.06h0a.62.62,0,0,1-.08-.23h0s0,0,0-.06,0,0,0,0,0,0,0-.05a.11.11,0,0,1,0-.06.65.65,0,0,0,0-.11s0,0,0,0v-.06s0,0,0-.06,0,0,0,0h0s0-.1,0-.16,0,0,0,0,0-.1,0-.11,0,0,0,.05,0,0,0,.05,0,.06,0,.08,0,0,0,0,0,0,0,0,0,0,0,0a1.57,1.57,0,0,1,0,.16s0,0,0,0,0,.06,0,0,0,0,0,0l0,0a1.38,1.38,0,0,1,.06.26s0,0,0,0a1.48,1.48,0,0,1,0,.19.38.38,0,0,1,.06.16v.05a.14.14,0,0,1,0,.06,1.17,1.17,0,0,0,.05.11.37.37,0,0,0,0,.09.51.51,0,0,0,0,.1s0,.08,0,.12a1,1,0,0,0,.09.24s0,.08,0,.1.18.36.26.46A1.21,1.21,0,0,0,10,14s0,0,0,0,0,0,.05,0a1.72,1.72,0,0,0,.49.42s0,0,0,0a1.4,1.4,0,0,1,.17.09s0,0,.06,0,.18.06.23.09.24.06.33,0h.23a.15.15,0,0,0,.09,0v0s.05,0,.07,0h0s0,0,.05,0l.06,0h0l.05,0h0s.05,0,.07,0,.06,0,.06,0l-.14,0h0s-.07,0-.09,0h.09l.13,0s0,0,.08,0l.14-.06.16-.06a3,3,0,0,0,.33-.19l.07,0s.08-.07.12-.1l.09,0a1.12,1.12,0,0,0,.2-.18c0-.05,0,0,.07-.06s0,0,0,0h0l.07-.05s0,0,0,0l0,0s.14-.14.18-.16,0,0,0,0a.2.2,0,0,0,.09-.09s.06,0,.06,0a.78.78,0,0,1,.13-.18h0s0,0,0,0h0c.08-.1,0,0,.07-.06s0,0,0-.07.1-.16.17-.19-.06.07-.05.08.16-.24.23-.31a2.38,2.38,0,0,0,.23-.45.29.29,0,0,0,.06-.1,3.51,3.51,0,0,0,.24-.85l0-.26c0-.08,0-.12,0-.16a3.17,3.17,0,0,1-.24,1.21s0,0,0,0,0,0-.05.06a3.48,3.48,0,0,1-.22.43l-.13.2s0,.08-.06.08-.1.12-.09.15a5.67,5.67,0,0,0,.42-.66s0,0,.05-.06a3,3,0,0,0,.18-.45,4.11,4.11,0,0,0,.13-.73,2.62,2.62,0,0,0,0-.27,2.26,2.26,0,0,0,0-.26s0,.18,0,.21a2.91,2.91,0,0,1,0-.3.24.24,0,0,1,0-.09.4.4,0,0,1,0-.11.3.3,0,0,1,0-.09c0-.08,0-.18-.06-.27s0,0,0,0-.06-.12,0-.15l.1.32,0,.12s0,0,0,.08,0,0,0,0l0-.16a.08.08,0,0,1,0-.05,2.13,2.13,0,0,0-.09-.27s0-.05,0-.09,0-.07-.06-.12,0-.12-.06-.11,0,.05,0,.07v0l0,0,0,.1s0,.07,0,.08,0,0,0,0,0,0,0,0,0-.12-.05-.2h0s0,0,0,0,0-.11-.07-.11l0,.09c-.05,0,0,.07,0,.09a1.1,1.1,0,0,1,.09.29l0,.08s0,.06,0,.07,0-.09,0-.12l0-.15s0,0,0-.07a.93.93,0,0,0-.09-.22s0,0,0,0,0,0,0,0,0-.12-.08-.13,0,.05,0,.06,0,0,0-.06,0,0,0-.06,0,0,0,0v0s0,0,0,0a.06.06,0,0,0,0-.05s0,0,0-.05a.12.12,0,0,0,0-.08s0,0,0-.06A.28.28,0,0,0,14.14,9s0,0-.05,0,.05,0,.08.08a.75.75,0,0,0,.07.12.08.08,0,0,1,0,0l0,0s.06,0,0,.08l0-.06s-.06,0-.08,0,0,0,0,0l0,.05s0,.06,0,.08l-.15-.21s0,0,0,0,0,0,0,0,0,0,0,0,0,0-.06,0a1.58,1.58,0,0,1,.12.15l.06.08s.05,0,0,.06,0-.06,0,0,0,0,0,0,0,0,0,0,0-.05-.06-.07L14,9.09s0,0,0-.06,0,0-.06,0,0,0,0,0l-.14-.1s0,0,0-.05-.06,0-.08,0,0,0,0,0,.07.07.08.1,0,0,0,0a.52.52,0,0,1,.17.13,0,0,0,0,0,0,0l.08.09s0,0,0,.06l.06.08a.66.66,0,0,0,.08.13s.06.09,0,.12a.85.85,0,0,0-.11-.14A.37.37,0,0,0,14,9.27s0,0-.05,0,0,0,0,0a.35.35,0,0,0-.05-.08s0,0,0,0a.07.07,0,0,1-.07,0L13.63,9s0,0-.06-.05l-.07,0s0,0,0,0-.14-.12-.2-.12.07.07.12.11.13.05.14.1a1.54,1.54,0,0,0-.48-.24s.07,0,.09.05.08,0,.08,0-.09,0-.14,0,0,0-.07,0-.06,0,0,0l.06,0s.07,0,.06,0S13,8.77,13,8.79s.08,0,.07,0l-.09,0s-.07,0-.08,0l0,0a1.18,1.18,0,0,0-.31-.05h0l.14,0,.12,0s.1,0,.08.05-.28-.05-.41-.09,0,0,0,0h-.19s0,0-.06,0H12s-.08,0-.08,0h.1s0,0,0,0H12s-.07,0-.06,0h.43c.12,0,.24,0,.37.07s0,0,0,0,0,0,.06,0,0,0,0,0l.08,0s0,0,0,0,.16.07.16.12l0,0s0,0,0,0-.06,0-.07,0a.1.1,0,0,0-.07,0s0,0,0,0a.33.33,0,0,0-.14,0l-.08,0h-.26s-.06,0-.05,0h.23l.09,0s0,0,.05,0l.08,0s.07,0,.07,0l-.14,0s0,0,0,0h-.09s-.11,0-.13,0h.07s0,0,0,0a1.77,1.77,0,0,0,.2,0l.08,0s.05,0,.05,0a.79.79,0,0,0-.24,0,.35.35,0,0,0-.11,0,.1.1,0,0,0-.08,0s0,0,0,.05h-.35c-.1,0-.23,0-.31.08h0Z"/><path class="cls-3" d="M12.06,9.38s0-.07,0-.11h0c0,.05,0,.07,0,.1"/><path class="cls-3" d="M12.06,9.48s0,0,0,0,0,0,0,0,0,0,0,0,0,0,0,0"/><path class="cls-3" d="M12.06,9.5h0s0,0,0,0"/><path class="cls-3" d="M12.05,9.68s0,0,0-.06,0,0,0,0,0,0,0,0"/><path class="cls-3" d="M12.11,10.64h0"/><path class="cls-3" d="M12.12,10.66s0,0,0,0v0s0,0,0,0Z"/><path class="cls-3" d="M12.07,9.05s0,0,0,0,0,0,0,0"/><path class="cls-3" d="M12.06,9.1s0,0,0,0h0v0s0,0,0,0Z"/><path class="cls-3" d="M12.06,9.25h0"/><path class="cls-3" d="M12.05,9.38h0"/><path class="cls-3" d="M12,9.6a.19.19,0,0,0,0-.08s0,0,0,0,0,0,0,0"/><path class="cls-3" d="M12,9.73s0,0,0,0,0,0,0,0"/><path class="cls-3" d="M12,9.77s0,0,0,0v0s0,0,0,0Z"/><path class="cls-3" d="M12.06,9.92v0h0s0,0,0,0"/><path class="cls-3" d="M12.06,10.25s0,0,0,0v0s0,0,0,0v0"/><path class="cls-3" d="M12.08,10.4s0,0,0,0v0s0,0,0,0Z"/><path class="cls-3" d="M12.09,10.48s0,0,0,0v.07h0v-.08Z"/><path class="cls-3" d="M12.1,10.59h0"/><path class="cls-3" d="M12.1,10.62a0,0,0,0,1,0,0,0,0,0,0,1,0,0"/><path class="cls-3" d="M12.53,11.36h0"/><path class="cls-3" d="M12.78,6.25h0s0,0,0,0"/><path class="cls-3" d="M12.09,8.86v0s0-.05,0,0"/><path class="cls-3" d="M12.08,8.88a0,0,0,0,1,0,0V9s0,0,0,0Z"/><path class="cls-3" d="M12.25,11.44h0"/><path class="cls-3" d="M12.26,11.46h0l0,.1s0,0,0,0,0,0,0-.07"/><path class="cls-3" d="M12.3,11.57Z"/><path class="cls-3" d="M12.31,11.6h0s0,0,0,0"/><path class="cls-3" d="M12.3,11.61h0"/><path class="cls-3" d="M12.31,11.62h0Z"/><path class="cls-3" d="M12.55,11.4h0"/><path class="cls-3" d="M12.55,11.37h0v0"/><path class="cls-3" d="M12.54,11.37h0s0,0,0,0"/><path class="cls-3" d="M12.54,11.37h0s0,0,0,0"/><path class="cls-3" d="M12.54,11.36h0"/><path class="cls-3" d="M12.54,11.36h0"/><path class="cls-3" d="M12.3,11.64h0"/><path class="cls-3" d="M12.31,11.64h0"/><path class="cls-3" d="M12.31,11.65h0"/><path class="cls-3" d="M12.32,11.65h0"/><path class="cls-3" d="M12.33,11.65h0s0,0,0,0"/><path class="cls-3" d="M12.42,11.65h0Z"/><path class="cls-3" d="M12.56,11.4h0"/><path class="cls-3" d="M12.55,11.36h0"/><path class="cls-3" d="M12.24,7.85s0,0,0,0,0,0,0,0"/><path class="cls-3" d="M12.23,7.88h0"/><path class="cls-3" d="M12.42,11.66h0"/><path class="cls-3" d="M12.57,11.41s0,0,0,0h0"/><polyline class="cls-3" points="12.44 11.65 12.44 11.64 12.44 11.65"/><path class="cls-3" d="M12.57,11.38h0"/><path class="cls-3" d="M12.52,11.26Z"/><path class="cls-3" d="M12.51,11.25h0"/><path class="cls-3" d="M12.48,11.23h0Z"/><path class="cls-3" d="M12.47,11.22h0Z"/><path class="cls-3" d="M12.46,11.21h0"/><path class="cls-3" d="M14.32,3.34s0,0,0,0"/><path class="cls-3" d="M14.3,3.38s0,0,0,0"/><path class="cls-3" d="M14.32,3.34s0,0,0,0"/><path class="cls-3" d="M12.18,10.33h0s0,0,0,0"/><path class="cls-3" d="M14.53,2.22h0"/><path class="cls-3" d="M14.33,2.37s0,0,0,0,0,0,0,0"/><path class="cls-3" d="M12.16,10.31h0"/><path class="cls-3" d="M12.3,9.49h0s0,0,0,0"/><path class="cls-3" d="M12.27,9.49h0"/><path class="cls-3" d="M12,9.52s.11,0,.14,0,0,0-.06,0h0s0,0-.06,0"/><path class="cls-3" d="M11.92,9.54s0,0,0,0,0,0,0,0"/><path class="cls-3" d="M11.89,9.54s-.05,0-.06,0a1,1,0,0,0-.15.07s0,0,.06-.05,0,0,0,0l0,0,.1,0"/><path class="cls-3" d="M11.67,9.66v0s0,0,0,0v0"/><path class="cls-3" d="M11.64,9.67v0"/><path class="cls-3" d="M11.58,9.71v0s0,0,0,0"/><path class="cls-3" d="M11.69,9.38h0"/><path class="cls-3" d="M11.76,9.34h0"/><path class="cls-3" d="M11.74,9.35h0"/><path class="cls-3" d="M13.26,1.48s0,0,0,.05,0,0,0-.05"/><path class="cls-3" d="M13.26,1.48s0,0,0,0,0,0,0,0"/><path class="cls-3" d="M12.34,9.18s0,0,0,0h0"/><path class="cls-3" d="M11.92,9.18s-.08,0-.1,0l-.06,0s0,0,0,0l.1,0h.07"/><path class="cls-3" d="M12.05,9.07s0,0,.06,0,0,0,.06,0h.21s0,0,0,0H12.2a.42.42,0,0,0-.15,0"/><path class="cls-3" d="M12,9.06h0"/><path class="cls-3" d="M13,9.11s0,0,0,0,0,0,0,0"/><path class="cls-3" d="M11.79,9s0,0,0,0h0"/><path class="cls-3" d="M13,1.25s0,0,0,0,0,0,0,0"/><path class="cls-3" d="M12.58,8.77c-.06,0,0,0,0,0"/><path class="cls-3" d="M12.63,8.76h0"/><path class="cls-3" d="M12.68,8.76h0"/><path class="cls-3" d="M12.65,1.35s0,0,0-.05,0,0,0,.05"/><path class="cls-3" d="M13.08,8.77h0a.14.14,0,0,0-.09,0l-.15-.05h0l.09,0h.06l.13,0s0,0,0,0"/><path class="cls-3" d="M12.74,8.67h0"/><path class="cls-3" d="M13.1,8.74h0"/><path class="cls-3" d="M13.3,8.8s-.05,0,0,0"/><path class="cls-3" d="M13.37,8.8s0,0,0,0l0,0h0Z"/><path class="cls-3" d="M12.46,1.29s0,0,0,0h0"/><path class="cls-3" d="M13.68,9s0,0,.05,0,0,0-.05,0"/><path class="cls-3" d="M12.57,1.06s0,0,0,0v0"/><path class="cls-3" d="M12.55,1.08s0,0,0,0v0s0,0,0,0Z"/><path class="cls-3" d="M12.25,1.45s0,0,0,0Z"/><path class="cls-3" d="M12.46,1.09h0s0,0,0,0"/><path class="cls-3" d="M12.36,1.22s0,0,0,0"/><path class="cls-3" d="M14.41,9.77a0,0,0,0,1,0,0Z"/><path class="cls-3" d="M12.43,1.1a0,0,0,0,1,0,0s0,0,0,0"/><path class="cls-3" d="M12.37,1.17s0,0,0,0,0,.06,0,0"/><path class="cls-3" d="M12.08,1.53h0s0,0,0,0"/><path class="cls-3" d="M13.69,8.75l.11.09-.06,0s-.07,0-.05-.06"/><path class="cls-3" d="M12,1.57s0,0,0,0,0,0,0,0"/><path class="cls-3" d="M13.26,8.49h0s0,0,.09,0h0l0,0s0,0,0,0a.14.14,0,0,1-.1,0"/><path class="cls-3" d="M9.59,6.12v0s0,0,0,0"/><path class="cls-3" d="M9.57,6.16s0,0,0,0h0"/><path class="cls-3" d="M14.06,9.07s0,0,0,0"/><path class="cls-3" d="M13.46,8.57s0,0,0,0,0,0,0,0"/><path class="cls-3" d="M9.42,6.63s0,.06,0,0Z"/><path class="cls-3" d="M9.29,7.12s0,0,0,0h0"/><path class="cls-3" d="M9.28,7.18v0s0,0,0,0"/><path class="cls-3" d="M9.25,7.28v0s0,0,0,0"/><path class="cls-3" d="M9.24,7.36s0,0,0,0h0"/><path class="cls-3" d="M9.23,7.41s0,0,0,0"/><path class="cls-3" d="M9.77,13.5s0,0,0,0l0,0"/><path class="cls-3" d="M9.81,13.57h0"/><path class="cls-3" d="M14.06,9.07S14,9,14,9s0,.05.1.1l0,0s0-.06-.09-.09,0,0,0,0"/><path class="cls-3" d="M9.24,7.3h0"/><path class="cls-3" d="M9.23,7.41s0,0,0,0"/><path class="cls-3" d="M13.82,8.8h0s0,0,0,0"/><path class="cls-3" d="M13.87,8.84h0"/><path class="cls-3" d="M11.93,1.6s0,0,0,0,0,0,0,0"/><path class="cls-3" d="M14.5,9.69s0,0,0,.05,0,0,0-.05"/><path class="cls-3" d="M14.1,9h0a3.29,3.29,0,0,0-.35-.32s0,0,.07,0,0,0,.06,0l.22.23Z"/><path class="cls-3" d="M12,1.52a0,0,0,0,1,0,0s0,0,0,0"/><path class="cls-3" d="M14.09,9l.07.07A.17.17,0,0,0,14.1,9s0,0,.05,0,0,0,0,.06,0,0,0,0A.53.53,0,0,1,14.09,9"/><path class="cls-3" d="M12.34,1h0s0,0,0,0"/><path class="cls-3" d="M9,9.11s0,0,0,0,0,0,0,0"/><path class="cls-3" d="M9.13,11.73h0"/><path class="cls-3" d="M11.36,14.64h0"/><path class="cls-3" d="M11.63,14.61s.09,0,.13,0a.16.16,0,0,1-.13,0"/><path class="cls-3" d="M11.78,14.58h0s0,0,0,0"/><path class="cls-3" d="M8.92,9.9s0,0,0,.08,0,0,0-.08"/><path class="cls-3" d="M8.92,10s0,.06,0,0,0,0,0,0"/><path class="cls-3" d="M8.92,10.06s0,.06,0,.08a1.78,1.78,0,0,0,0,.25c0,.06,0,0,0-.05v-.12a.25.25,0,0,0,0-.09s0-.05,0-.07"/><path class="cls-3" d="M9,10.45v.06a.06.06,0,0,1,0,0s0-.07,0,0"/><path class="cls-3" d="M9,10.55v0s0-.08,0,0"/><path class="cls-3" d="M9,10.67a0,0,0,0,1,0,0v0s0,0,0,0Z"/><path class="cls-3" d="M9.16,11.91h0"/><path class="cls-3" d="M9.17,12s0,0,0,0,0,0,0,0"/><path class="cls-3" d="M9.2,12.07s0,0,0,0v0s0,0,0,0Z"/><path class="cls-3" d="M9.22,12.18h0"/><path class="cls-3" d="M9.24,12.25h0"/><path class="cls-3" d="M9.28,12.39s0,0,0,0,0,0,0,0"/><path class="cls-3" d="M11.48,14.63h.06s0,0,0,0-.06,0,0,0"/><path class="cls-3" d="M12.16,1.23h0s0,0,0,0"/><path class="cls-3" d="M10.82,14.56s-.1,0-.15-.05a1.29,1.29,0,0,1-.16-.09s.05,0,.07,0l.08.05s.08,0,.15.06Z"/><path class="cls-3" d="M10.82,14.56s0,0,0,0Z"/><path class="cls-3" d="M10.83,14.57s.05,0,.1,0-.07,0-.1,0Z"/><path class="cls-3" d="M11,14.62s.05,0,.07,0,0,0,0,0-.06,0-.07,0"/><path class="cls-3" d="M10.6,3.51a0,0,0,0,1,0,0s0,0,0,0"/><path class="cls-3" d="M10.46,3.78a0,0,0,0,1,0,0s0,0,0,0"/><path class="cls-3" d="M10.42,3.86s0,0,0,0,0,0,0,0"/><path class="cls-3" d="M10.41,3.88h0s0,0,0,0"/><path class="cls-3" d="M8.88,10.44v0c0,.25,0,.45.08.69,0,0,0,0,0-.05V11c0-.08,0-.1,0-.17l0-.13a3.82,3.82,0,0,1-.06-.61s0-.05,0-.06,0-.29,0-.45c0,0,0,0,0,.06s0,.06,0,.08v.22s0,0,0,.07,0,.05,0,.06,0-.07,0-.07,0-.07,0-.09,0,0,0-.05,0,0,0-.06a.41.41,0,0,1,0-.11s0,0,0,0,0,0,0,0,0,.1,0,.13,0,0,0,0,0,.12,0,.18,0,.08,0,.14,0-.1,0-.15,0,0,0,.07v.08a.09.09,0,0,1,0,0c0,.06,0,.11,0,.15s0,0,0,0"/><path class="cls-3" d="M8.9,10.27s0,0,0,0v0s0,0,0,0Z"/><path class="cls-3" d="M10.93,2.93s0,0,0,0h0"/><path class="cls-3" d="M10.7,3.32s0,0,0,0h0"/><path class="cls-3" d="M9.91,4.93h0s0,0,0,0"/><path class="cls-3" d="M9.05,7.77s0,0,0,0,0,0,0,0"/><path class="cls-3" d="M9,8S9,8,9,8,9,8,9,8"/><path class="cls-3" d="M9,8.06v0s0-.07,0,0"/><path class="cls-3" d="M9,8.16s0,0,0,0"/><path class="cls-3" d="M8.88,9.28s0,0,0,0,0,0,0,0"/><path class="cls-3" d="M8.88,9.28c0,.14,0,.23,0,.39,0,0,0-.07,0-.09s0-.06,0-.09V9.41s0,0,0-.06,0-.08,0-.07"/><path class="cls-3" d="M14.56,9.65l0,0s0,0,0,0"/><path class="cls-3" d="M10.6,3.49s0,0,0,0h0"/><path class="cls-3" d="M8.89,9.09s0,0,0-.06V9s0,0,0,0V9s0,0,0,0Z"/><path class="cls-3" d="M8.88,9.17s0,0,0,0,0,0,0,0"/><path class="cls-3" d="M8.88,9.19h0s0,0,0,0"/><path class="cls-3" d="M8.88,10.44v-.19s0,.05,0,0v.08s0,.08,0,.07"/><path class="cls-3" d="M9,11.26s0,0,0,0v0s0,0,0,0v.05l0,0"/><path class="cls-3" d="M12.11,1.2s0,0,0,0,.05,0,0-.06,0,0,0,0,0,0,0-.05,0,.07-.06.11,0,.06,0,.06"/><path class="cls-3" d="M9.74,5.28s0,0,0,0v0"/><path class="cls-3" d="M9.71,5.38a2.07,2.07,0,0,0-.09.24c0-.06,0-.12.05-.18l0,0s0,0,0-.08,0,0,0,0,0-.06,0,0"/><path class="cls-3" d="M9.61,5.63h0"/><path class="cls-3" d="M9.61,5.63s0,.09,0,.11,0-.06,0-.08,0,0,0,0Z"/><path class="cls-3" d="M8.89,8.79s0,0,0,0,0,0,0,0"/><path class="cls-3" d="M9.13,12l0,.1h0a.36.36,0,0,1,0-.1Z"/><path class="cls-3" d="M14.57,9.63h0s0,0,0,0"/><path class="cls-3" d="M13.83,8.66h0"/><path class="cls-3" d="M10.6,3.45s0,0,0,0v0s0,0,0,0"/><path class="cls-3" d="M10.56,3.52s0,0,0,0,0,0,0,0"/><path class="cls-3" d="M9.72,5.35l0,0a1,1,0,0,1,0-.1s0,0,0,0a.08.08,0,0,1,0,0v0"/><path class="cls-3" d="M9.55,5.78s0,0,0,0,0,0,0,0"/><path class="cls-3" d="M9.35,6.36s0-.06,0-.09l0,0s0,0,0-.06,0,0,0,0,0,0,0,0,0,0,0,0a.77.77,0,0,0-.07.16"/><path class="cls-3" d="M8.9,8.7v0s0,0,0,0,0,0,0,0"/><path class="cls-3" d="M8.88,8.91s0,0,0,0,0,0,0,0"/><path class="cls-3" d="M9.14,12.13s0,0,0,0"/><path class="cls-3" d="M9.17,12.26h0s0,0,0,0"/><path class="cls-3" d="M9.19,12.33s0,0,0,0v0s0,0,0,0Z"/><path class="cls-3" d="M9.22,12.43s0,0,0,0,0,0,0,0"/><path class="cls-3" d="M9.25,12.54s.06.1,0,.09,0-.05,0-.09"/><path class="cls-3" d="M14.48,9.45s.06.05.09.1,0,0,0,0,0,0-.06-.06"/><path class="cls-3" d="M10.53,3.56v0s0,0,0,0"/><path class="cls-3" d="M10.5,3.61s0,0,0,0,0,0,0,0"/><path class="cls-3" d="M9.93,4.77s0,0,0,0h0"/><path class="cls-3" d="M9.86,5s0,0,0,0h0"/><path class="cls-3" d="M9.85,5s0,0,0,0,0,0,0,0"/><path class="cls-3" d="M9.82,5a0,0,0,0,1,0,0V5"/><path class="cls-3" d="M9.81,5.06s0,0,0,0,0,0,0,0"/><path class="cls-3" d="M9.76,5.18s0,0,0,0,0,0,0,0"/><path class="cls-3" d="M9.33,6.41s0,0,0,0,0,0,0,0"/><path class="cls-3" d="M9.14,7.19s0,0,0,0v0Z"/><path class="cls-3" d="M9.09,7.38a0,0,0,0,1,0,0s0,0,0,0"/><path class="cls-3" d="M9.06,7.51s0,0,0,0,0,0,0,0"/><path class="cls-3" d="M10,14h0s0,0,0,0"/><path class="cls-3" d="M10.44,14.45h0s0,0,0,0"/><path class="cls-3" d="M9.9,4.83v0s0,0,0,0"/><path class="cls-3" d="M9.69,5.35s0,0,0,0a0,0,0,0,1,0,0"/><path class="cls-3" d="M9.18,7s0,0,0,0h0"/><path class="cls-3" d="M9.11,7.25s0,0,0,0v0s0,0,0,0Z"/><path class="cls-3" d="M8.85,9.14h0s0,0,0,0"/><path class="cls-3" d="M8.85,9.25v0s0-.08,0,0"/><path class="cls-3" d="M10.1,14.18s0,0,0,0,0,0,0,0"/><path class="cls-3" d="M8.85,8.83v0s0,0,0,0"/><path class="cls-3" d="M8.85,8.86h0s0,0,0,0"/><path class="cls-3" d="M8.84,9s0,0,0,0,0,0,0,0"/><path class="cls-3" d="M9.75,13.78l0,0s0,0,0,0"/><path class="cls-3" d="M10,14.08s-.05,0-.07-.06.06,0,.07.06"/><path class="cls-3" d="M10,14.1l0,0,0,0"/><path class="cls-3" d="M14.62,9.64s0,0,0,0,0,0,0,0"/><path class="cls-3" d="M14.43,9.3l0-.05s.05.05,0,.05"/><path class="cls-3" d="M14.3,9.1l0,0,0,0,0,0Z"/><path class="cls-3" d="M9.82,5c0-.06,0,0,0,0"/><path class="cls-3" d="M8.82,9h0s0,0,0,0m0,.49s0,.08,0,.07a.17.17,0,0,1,0-.1.74.74,0,0,1,0-.21s0,0,0-.06,0-.1,0-.15,0,0,0,0,0,0,0-.06,0,0,0-.06,0-.05,0-.06,0,.05,0,.05a1.49,1.49,0,0,1,0-.21s0,0,0,0,0-.06,0-.1,0-.08,0-.08,0,.12,0,.17a1,1,0,0,0,0,.24.66.66,0,0,0,0,.2.92.92,0,0,1,0,.16s0,0,0,0,0,.09,0,.14,0,0,0,.05,0,0,0,0h0Z"/><path class="cls-3" d="M9.54,13.42h0"/><path class="cls-3" d="M9.58,13.5l0,0s0,0,0,0"/><polygon class="cls-3" points="9.62 13.56 9.63 13.58 9.62 13.6 9.6 13.57 9.62 13.56"/><path class="cls-3" d="M9.75,13.78s0,0,0,0,0,0,0,0Z"/><path class="cls-3" d="M10.86,14.68h0"/><path class="cls-3" d="M11.32,14.76h0"/><path class="cls-3" d="M11.61,14.73h0l.14,0s0,0,.06,0a.1.1,0,0,1-.08,0h-.34s.1,0,.14,0l.08,0"/><path class="cls-3" d="M14.48,9.31s0,0,0,0h0a.18.18,0,0,1,0,.06s0,.09.08.14,0,.06,0,.07a.92.92,0,0,0-.1-.2s0,.08.05.14,0,0,0,0l0,0,0-.07s0-.06,0-.06Z"/><path class="cls-3" d="M9.82,5s0,0,0,0"/><path class="cls-3" d="M8.88,8.42s0,0,0-.08,0-.3.05-.44,0,0,0,0,0-.05,0-.08S9,7.53,9,7.36c0,0,0,0,0,.07s0,0,0,0v0s0,0,0,0,0,0,0,0v0a.08.08,0,0,0,0,.05,1.9,1.9,0,0,0-.08.46s0,.07,0,.08Z"/><path class="cls-3" d="M8.82,9.22h0"/><path class="cls-3" d="M8.8,9.54s0,0,0,0,0,0,0,0"/><path class="cls-3" d="M9.45,13.26l0,0s0,0,0,0"/><path class="cls-3" d="M9.79,13.86h0s0,0,0,0"/><path class="cls-3" d="M10.22,14.33s.07,0,.06.06,0,0,.07,0-.06,0-.08,0,0,0,0,0a.05.05,0,0,0,0,0"/><path class="cls-3" d="M10.63,14.6h0"/><path class="cls-3" d="M11,14.72s.07,0,0,0,0,0,0,0"/><path class="cls-3" d="M14.83,10.25s0,0,0,0h0"/><path class="cls-3" d="M14.8,10.11h0s0,0,0,0"/><path class="cls-3" d="M8.84,8.66s0,0,0,0v0Z"/><path class="cls-3" d="M10.38,14.47h0"/><path class="cls-3" d="M10.47,14.52h0"/><path class="cls-3" d="M11.33,14.77s-.07,0-.12,0,0,0-.07,0,0,0,.07,0h.12"/><path class="cls-3" d="M11.34,14.77h0s-.06,0,0,0"/><path class="cls-3" d="M14.08,13.09s-.05.05-.09.11.08-.1.09-.11"/><path class="cls-3" d="M14.89,10.69c0-.06,0-.06,0-.13s0,.09,0,.13Z"/><path class="cls-3" d="M14.84,10.28h0"/><path class="cls-3" d="M10.23,4V4s0,0,0,0"/><path class="cls-3" d="M10.14,4.2s0,0,0,0v0l0,.06s0,0,0,0v0Z"/><path class="cls-3" d="M10.08,4.32s0,0,0,.07l0,.08c0,.06,0,.1-.06.14s0,0,0,0,0,0,0-.08l.11-.23,0,0"/><path class="cls-3" d="M9.11,7.05s0,0,0,0,0,0,0,0"/><path class="cls-3" d="M8.79,10.06h0"/><path class="cls-3" d="M10.81,14.7h0"/><path class="cls-3" d="M10.86,14.71s0,0,0,0h0"/><path class="cls-3" d="M11.09,14.76h0"/><path class="cls-3" d="M13.5,13.75s-.06.06-.08.08,0,0,.08-.08"/><path class="cls-3" d="M13.52,13.71l.07-.06s-.08.11-.07.06"/><path class="cls-3" d="M11.82,1.47s0,0,0,0,0-.07,0,0"/><path class="cls-3" d="M9.7,5.17s0,0,0,0v0s0,0,0,0,0,0,0,0V5s0,0,0,0l.09-.22s0,0,0,0l0-.06s0,0,0,0,.05,0,0,0,0,0,0,0,0,0,0,0L9.78,5s0,.08,0,.1a.63.63,0,0,0,0,.09"/><path class="cls-3" d="M9.07,7.13s0,0,0,0v.06s0,0,0,0V7.16s0,0,0,0"/><path class="cls-3" d="M9.05,7.28v0s0,0,0,0"/><path class="cls-3" d="M9,7.32a0,0,0,0,1,0,0,0,0,0,0,1,0,0"/><path class="cls-3" d="M8.83,10.69s0-.08,0-.12,0,0,0,0,0,.05,0,.08"/><path class="cls-3" d="M8.83,10.75s0,0,0-.05a0,0,0,0,1,0,.05"/><path class="cls-3" d="M8.85,10.87v0s0,0,0,0,0,0,0,0"/><path class="cls-3" d="M8.86,11v0s0-.08,0,0"/><path class="cls-3" d="M8.88,11.24s0,0,0,0a.33.33,0,0,1,0-.1V11s0,0,0,0v0l0,.21Z"/><path class="cls-3" d="M10.3,14.43h0"/><path class="cls-3" d="M10.76,14.68h0"/><path class="cls-3" d="M13.29,14s0,0,0,0l0,0"/><path class="cls-3" d="M13.34,13.91l0-.05s0,0,0,.05"/><path class="cls-3" d="M14.75,9.85s0,0,0,0,0,0,0,0"/><path class="cls-3" d="M14.67,9.66s0,0,0,0"/><path class="cls-3" d="M11.76,1.51s0,0,0,0,0,0,0,0"/><path class="cls-3" d="M11.69,1.61s0,0,0,0,0,0,0,0"/><path class="cls-3" d="M11.67,1.63s0,0,0,0h0"/><path class="cls-3" d="M11.19,2.32s0,0,0,0,0,0,0,0"/><path class="cls-3" d="M9.62,5.33s.05,0,0,0"/><path class="cls-3" d="M9.23,6.51s0,0,0,0,0,0,0,0"/><path class="cls-3" d="M9.2,6.59h0v.09s0,0,0,0l0-.06h0"/><path class="cls-3" d="M9.15,6.8a0,0,0,0,1,0,0,0,0,0,0,1,0,0"/><path class="cls-3" d="M9.1,7s0,0,0,0l0,.12s0,0,0,0v0L9.1,7s0,0,0-.06"/><path class="cls-3" d="M8.76,9.7a0,0,0,0,1,0,0h0"/><path class="cls-3" d="M8.88,11.24c0,.11,0,.22.06.33s0,.09,0,.15v0s0,0,0,0l0-.1s0,0,0-.07a2.09,2.09,0,0,1,0-.32Z"/><path class="cls-3" d="M9,11.81H9s0,0,0,0"/><path class="cls-3" d="M9,11.83a0,0,0,0,0,0,0s0,0,0,0"/><path class="cls-3" d="M10,14.17l0,0,0,0"/><path class="cls-3" d="M10.4,14.51h0"/><path class="cls-3" d="M10.44,14.53l.09.05s-.12,0-.09-.05"/><path class="cls-3" d="M11.64,1.66s0,0,0,0a0,0,0,0,1,0,0"/><path class="cls-3" d="M9.6,5.38s0,0,0,0h0"/><path class="cls-3" d="M9.58,5.42h0"/><path class="cls-3" d="M9.55,5.52v0s0-.07,0,0"/><path class="cls-3" d="M9.39,6s0,0,0,0,0,0,0,0"/><path class="cls-3" d="M9.37,6s0,0,0,0,0,0,0,0"/><path class="cls-3" d="M9.35,6.09s0,0,0,0,0,0,0,0"/><path class="cls-3" d="M9.3,6.24a0,0,0,0,1,0,0,0,0,0,0,1,0,0"/><path class="cls-3" d="M9.27,6.35v0a0,0,0,0,1,0,0"/><path class="cls-3" d="M9.24,6.46s0,0,0,0,0,0,0,0"/><path class="cls-3" d="M9.13,6.85a0,0,0,0,1,0,0,0,0,0,0,1,0,0"/><path class="cls-3" d="M9.11,6.93a0,0,0,0,1,0,0s0,0,0,0"/><path class="cls-3" d="M8.77,9.23s0,0,0,0h0"/><path class="cls-3" d="M8.78,9.27v0s0-.08,0,0"/><path class="cls-3" d="M9.57,13.58s-.05-.07-.07-.09a.25.25,0,0,1,.07.09"/><path class="cls-3" d="M10.25,14.41l0,0,0,0"/><path class="cls-3" d="M12.37,14.6l0,0,0,0"/><path class="cls-3" d="M14.66,9.59s0-.09,0,0"/><path class="cls-3" d="M14.52,9.3s-.06-.09-.08-.12a.54.54,0,0,0-.09-.12s0-.05,0-.07a2.1,2.1,0,0,0-.24-.27h0s0,0,0,0l-.11-.11s.05,0,.06.05,0,0,0,0,0,0,0,0a2.62,2.62,0,0,1,.48.64"/><path class="cls-3" d="M9.14,6.8v0s0,0,0,0"/><path class="cls-3" d="M9,7.4s0,0,0,0,0,0,0,0"/><path class="cls-3" d="M9,7.54s0,0,0,0,0,0,0,0"/><path class="cls-3" d="M8.85,8.24s0-.05,0-.08V8.09a.68.68,0,0,1,0-.14l.06-.31s0,0,0,0v.12h0v0s0,0,0,0,0,0,0,.05h0s0,.09,0,.13a.69.69,0,0,1,0,.2"/><path class="cls-3" d="M9.34,13.14s0,0,0,.06l0,.07s0,0,0-.07Z"/><path class="cls-3" d="M9.67,5.15s0,0,0,0,0,0,0,0"/><path class="cls-3" d="M9.6,5.32s0-.05,0-.07,0,0,0,.07"/><path class="cls-3" d="M9.45,5.71a.34.34,0,0,0,0-.12s0,0,0,.07,0,.06,0,0"/><path class="cls-3" d="M9.34,6.09h0v0s0,0,0,0,0,0,0,0"/><path class="cls-3" d="M9.27,6.26s0,0,0,0h0"/><path class="cls-3" d="M9.24,6.36h0"/><path class="cls-3" d="M9.19,6.55s0,0,0,0v0Z"/><path class="cls-3" d="M9.17,6.66v.06s0,0,0,0,0-.06,0,0"/><path class="cls-3" d="M9,7.14s0,0,0,0v0a0,0,0,0,1,0,0Z"/><path class="cls-3" d="M9,7.58s0,0,0,0,0,0,0,0"/><path class="cls-3" d="M8.83,8.32s0,0,0,0,0,0,0,0"/><path class="cls-3" d="M8.82,8.4s0,0,0,0,0,0,0,0"/><path class="cls-3" d="M10.74,14.72h0l0,0,.08,0s-.06,0-.08,0l-.08,0"/><path class="cls-3" d="M10.92,14.78s0,0,0,0,0,0,0,0"/><path class="cls-3" d="M11.42,14.82h0s-.08,0,0,0"/><path class="cls-3" d="M11.72,14.8s0,0,0,0,0,0,0,0"/><path class="cls-3" d="M14.3,12.87s0,0,.06-.08-.06.12-.06.08"/><path class="cls-3" d="M14.4,12.73l0-.05,0,0,.06-.11s0,.06,0,.09Z"/><path class="cls-3" d="M14.92,11.46s0-.08,0-.11,0-.13,0-.13,0-.13,0-.24a3.75,3.75,0,0,0,0-.5,2.34,2.34,0,0,0,0-.26.34.34,0,0,1,0,.12c0,.06,0,.12,0,.18a3,3,0,0,1,0,.33,4,4,0,0,1-.05.59Z"/><path class="cls-3" d="M12.94,8.1s0,0,0,0,0,0,0,0"/><path class="cls-3" d="M9.52,5.54s0,0,0,0"/><path class="cls-3" d="M8.73,9.62v0"/><path class="cls-3" d="M8.73,9.84h0"/><path class="cls-3" d="M12.27,14.67h0"/><path class="cls-3" d="M14,13.22s-.06.09-.06.11l-.08.09a1.25,1.25,0,0,1,.14-.2"/><path class="cls-3" d="M14.1,13.17s0,0,0,0,0,0,0,0"/><path class="cls-3" d="M14.43,9.12s0,0,0,0h0"/><path class="cls-3" d="M11.19,2.23s0,0,0,0,0,0,0,0"/><path class="cls-3" d="M11,2.46s0,0,0,0h0"/><path class="cls-3" d="M10.39,3.57s0,0,0,0,0,0,0,0"/><path class="cls-3" d="M8.81,8.24s0,0,0,0,0,.09,0,0Z"/><path class="cls-3" d="M8.78,8.49s0,0,0-.05,0,0,0,0,0,.06,0,.09"/><path class="cls-3" d="M8.73,9.35s0,0,0,0,0,0,0,0"/><path class="cls-3" d="M8.72,9.53s0,0,0,0,0,0,0,0"/><path class="cls-3" d="M8.72,9.68s0,.07,0,.06,0,0,0-.06"/><path class="cls-3" d="M8.73,10v0s0,0,0,0,0,0,0,0"/><path class="cls-3" d="M8.74,10.22v0s0-.07,0,0"/><polygon class="cls-3" points="8.75 10.45 8.75 10.47 8.73 10.47 8.73 10.45 8.75 10.45"/><path class="cls-3" d="M8.74,10.48s0,0,0,0,0,0,0,0"/><path class="cls-3" d="M8.75,10.55s0,0,0,0,0,0,0,0"/><path class="cls-3" d="M8.76,10.61h0s0,0,0,0"/><path class="cls-3" d="M8.77,10.72s0,0,0,0v0Z"/><path class="cls-3" d="M8.79,10.87a.06.06,0,0,1,0,0v0s0,.07,0,.07a.86.86,0,0,1,0-.15"/><path class="cls-3" d="M8.81,11h0s0,0,0,0"/><path class="cls-3" d="M8.83,11.26h0"/><path class="cls-3" d="M8.86,11.37v0s0-.07,0,0"/><path class="cls-3" d="M8.86,11.41s0,0,0,0,0,0,0,0"/><path class="cls-3" d="M8.88,11.49v0s0-.07,0,0"/><path class="cls-3" d="M9,11.84H9s0,0,0,0"/><path class="cls-3" d="M13.29,14s0,0,.05-.06,0,0-.05.06"/><path class="cls-3" d="M13.67,13.66l0,0s0,0,0,0"/><path class="cls-3" d="M13.72,13.61v0s0,0,0,0"/><path class="cls-3" d="M13.8,13.53l0-.06,0,.06"/><path class="cls-3" d="M14.29,8.9s0,0,.06,0,0,.06.05.08a2.21,2.21,0,0,1,.28.45s0,0,0,0l0-.05c0-.1-.12-.17-.14-.23s0,0,0,0,0-.07-.05-.06,0,0,0-.06,0,0-.07-.07"/><path class="cls-3" d="M13.56,8.33s.06,0,.1,0-.07,0-.1,0"/><path class="cls-3" d="M11.67,1.54s.05,0,0,0"/><path class="cls-3" d="M11.48,1.8s0,0,0,0,0,0,0,0"/><path class="cls-3" d="M11.07,2.41a0,0,0,0,0,0,0s0,0,0,0"/><path class="cls-3" d="M10.31,3.7s0,0-.05.09,0,0,0,0a.15.15,0,0,1,0-.06"/><path class="cls-3" d="M8.88,7.87s0,0,0,0,0-.08,0-.13,0,.12,0,.18"/><path class="cls-3" d="M8.83,8.17s0,0,0,.06,0-.08,0-.06"/><path class="cls-3" d="M8.75,8.76s0,0,0,0h0"/><path class="cls-3" d="M8.75,8.83v.05s0,0,0,0Z"/><path class="cls-3" d="M8.74,8.9s0,0,0,0v0Z"/><path class="cls-3" d="M9.09,12.47s0,0,0,0,0,0,0,0"/><path class="cls-3" d="M9.13,12.6s0,0,0,0h0"/><path class="cls-3" d="M9.15,12.64v0s0,0,0,0"/><path class="cls-3" d="M9.16,12.7s0,0,0,0,0,0,0,0"/><path class="cls-3" d="M9.22,12.87s0,0,0,0,0,0,0,0"/><path class="cls-3" d="M11,2.45h0s0,0,0,0"/><path class="cls-3" d="M11,2.47s0,.07,0,.08,0,0,0,0a.33.33,0,0,1,0-.06"/><path class="cls-3" d="M10.25,3.8h0s0,0,0,0"/><path class="cls-3" d="M8.84,8s0,0,0,0,0,0,0,0"/><path class="cls-3" d="M8.77,8.54s0,0,0,0v0"/><path class="cls-3" d="M9.84,14.09s0,0,0,0l0,0,.06.06s0,0-.07-.06Z"/><path class="cls-3" d="M10,14.25l0,0s-.07-.07,0,0"/><path class="cls-3" d="M10.19,14.44h0"/><path class="cls-3" d="M10.26,14.49s0,0,0,0l0,0"/><path class="cls-3" d="M10.61,14.7h0s0,0,0,0"/><path class="cls-3" d="M10.66,14.72s0,0,0,0,0,0,0,0"/><path class="cls-3" d="M10.74,14.75h0"/><path class="cls-3" d="M14.87,11.76a.2.2,0,0,1,0,.11s0-.09,0-.11"/><path class="cls-3" d="M14.87,11.73c0-.07.05-.07,0,0"/><path class="cls-3" d="M14.92,11.46s0,.09,0,0"/><path class="cls-3" d="M11.36,2V2s0,0,0,0,0,0,0,0"/><path class="cls-3" d="M9.38,13.37s0,0,0-.06,0,0,0-.06,0-.05,0-.1,0,.09.05.08,0,.08.05.14"/><path class="cls-3" d="M11.68,1.48s0,0,0,0v0"/><path class="cls-3" d="M10.85,2.7s0,.07,0,.11,0,0,0,0,0,0,0,0,0,0,0-.06"/><path class="cls-3" d="M9.23,13v0"/><path class="cls-3" d="M9.27,13.11l0,0s0,0,0,0"/><path class="cls-3" d="M11.55,14.88s0,0,0,0h0"/><path class="cls-3" d="M11.67,14.87h0"/><path class="cls-3" d="M11.73,14.86l0,0s0,0,0,0"/><path class="cls-3" d="M11.79,14.85l0,0h0l0,0Z"/><path class="cls-3" d="M13.69,13.7l0,0,0,0"/><path class="cls-3" d="M14.67,12.33s0,0,0,0,0,0,0,0"/><path class="cls-3" d="M14.74,12.2s0,0,0,0,0,0,0,0"/><path class="cls-3" d="M10.42,3.41s0,0,0,0,0,0,0,0"/><path class="cls-3" d="M11.87,14.85h.05l.07,0,.12,0-.06,0H12l-.1,0Z"/><path class="cls-3" d="M12.13,14.78l0,0,0,0"/><path class="cls-3" d="M14.25,13.05l0,0,.06-.09a.28.28,0,0,1-.05.09c0,.05-.11.13,0,0"/><path class="cls-3" d="M14.41,12.82l0,0s-.11.15,0,0"/><path class="cls-3" d="M14.76,9.61s.06.11.09.18,0,0,0-.06,0-.07-.06-.12"/><path class="cls-3" d="M14.76,9.59h0"/><path class="cls-3" d="M14.71,9.48h0"/><path class="cls-3" d="M10,4.25s0,0,0,0"/><path class="cls-3" d="M8.69,9s0,0,0,0v0s0,0,0,0Z"/><path class="cls-3" d="M8.7,9.1v0s0-.07,0,0"/><path class="cls-3" d="M8.68,9.16s0,0,0,0,0,0,0,0"/><path class="cls-3" d="M12.86,14.45l0,0,0,0"/><path class="cls-3" d="M11.44,1.76a0,0,0,0,1,0,0s0,0,0,0"/><path class="cls-3" d="M8.74,8.38s0,0,0,0h0"/><path class="cls-3" d="M11.56,1.55s0,.07,0,.11a.24.24,0,0,0-.1.1s.06-.08.05-.11a.9.9,0,0,0,.09-.1"/><path class="cls-3" d="M15,11.08s0,0,0-.07,0,0,0,.07"/><path class="cls-3" d="M15,10.73v0s0,0,0,0"/><path class="cls-3" d="M15,10.27s0,.09,0,.17a2,2,0,0,1,0,.24s0,0,0,0,0,0,0,.06v.17s0,0,0-.06,0,0,0-.1,0-.26,0-.39,0,0,0-.09"/><path class="cls-3" d="M15,10.18s0,0,0,.07,0,0,0-.07"/><path class="cls-3" d="M14.9,9.89s0,0,0,0,0,0,0,0"/><path class="cls-3" d="M13.8,13.65s0,0,0,0l0,0,.07-.07.13-.15s0,.05-.06.08l-.07.08-.13.14"/><path class="cls-3" d="M14.17,13.22s.06-.08.08-.11l.07-.1s-.05.08-.07.11Z"/><path class="cls-3" d="M15,11.32s0,0,0-.07,0,0,0,.07m0,0v0l0,.17c0,.1,0,0,0,0s0-.22,0-.32,0-.09,0-.09,0,.11,0,.11,0-.06,0-.06,0,.22,0,.27"/><path class="cls-3" d="M15,10.08s0,0,0,0,0,0,0,0"/><path class="cls-3" d="M13.5,14s0,0,0-.06l.06,0,0,.05Z"/><path class="cls-3" d="M13.68,13.78s0,0,0,0,0,0,0,0"/><path class="cls-3" d="M9.66,4.85s0,0,0,0,0,0,0,0"/><path class="cls-3" d="M8.66,8.83v0s0,0,0,0"/><path class="cls-3" d="M12.38,14.76s0,0,0,0l.06,0s0,0,0,0l-.07,0"/><path class="cls-3" d="M15,11.67s0,0,0-.05,0,0,0,.05"/><path class="cls-3" d="M15.06,11v0s0,0,0,0"/><path class="cls-3" d="M11.56,1.55s0,0,0,0"/><path class="cls-3" d="M8.75,8s0,0,0,0h0"/><path class="cls-3" d="M8.66,8.79v0s0-.08,0,0"/><path class="cls-3" d="M8.63,9.37v0s0-.08,0,0"/><path class="cls-3" d="M8.62,9.42s0,0,0,.06v.2s0-.06,0-.12Z"/><path class="cls-3" d="M8.61,9.72s0,0,0,0,0,0,0,0"/><path class="cls-3" d="M8.61,9.76s0,0,0,0,0,0,0,0"/><path class="cls-3" d="M8.62,10.13s0-.05,0,0"/><path class="cls-3" d="M8.63,10.17v0s0-.08,0,0"/><path class="cls-3" d="M8.63,10.21s0,0,0,0,0,0,0,0"/><path class="cls-3" d="M8.64,10.31s0,0,0,0,0,0,0,0"/><path class="cls-3" d="M8.63,10.33h0"/><path class="cls-3" d="M8.64,10.46s0-.07,0-.11,0,.07,0,.11"/><path class="cls-3" d="M8.64,10.55s0-.05,0-.07,0,0,0,0,0,0,0,.05"/><path class="cls-3" d="M8.64,10.56s0,.07,0,.1,0,0,0,0,0,0,0-.06"/><path class="cls-3" d="M8.68,10.85s0,0,0,0,0,0,0,0"/><path class="cls-3" d="M8.77,11.5s0,0,0-.06,0,0,0-.06v-.11s0,0,0,0v.05a.15.15,0,0,1,0,.09.19.19,0,0,1,0,.07"/><path class="cls-3" d="M8.84,11.86h0s0,0,0,0"/><path class="cls-3" d="M8.89,12.1s0,0,0,0,0,0,0,0"/><path class="cls-3" d="M12.8,14.56s0,0,0,0,0,0,0,0"/><path class="cls-3" d="M13.28,14.18c.06,0,0,0,0,.05s0-.05,0-.05"/><path class="cls-3" d="M14.6,12.64l0-.05,0-.05.06-.11s0,.06,0,.09Z"/><path class="cls-3" d="M14.74,12.36s0,0,0,0,0,0,0,0"/><path class="cls-3" d="M10.78,2.66s0,0,0,0v0"/><path class="cls-3" d="M8.6,9.82h0"/><path class="cls-3" d="M8.61,9.85V10s0,0,0,0V9.85Z"/><path class="cls-3" d="M8.61,10.07s0,0,0,0,0,0,0,0"/><path class="cls-3" d="M8.76,11.53s0,0,0,0,0,0,0,0"/><path class="cls-3" d="M8.9,12.18s0,0,0,0v.06l0,.09s0,0,0,0v0Z"/><path class="cls-3" d="M9,12.39s0,0,0,0v0s0,0,0,0Z"/><path class="cls-3" d="M9,12.47H9"/><path class="cls-3" d="M9,12.63v0s0-.12,0,0"/><path class="cls-3" d="M12.88,14.52s0,0,0,0,0,0,0,0"/><path class="cls-3" d="M13.18,14.28s0,.05-.07.08,0,0,.07-.08"/><path class="cls-3" d="M13.35,14.13s0,0,0,0,0,0,0,0"/><path class="cls-3" d="M13.46,14s0,0,0,0"/><path class="cls-3" d="M13.63,13.87l0,0,0,0"/><path class="cls-3" d="M15.08,10.61s0,0,0,0,0,0,0,0"/><path class="cls-3" d="M11.8,1.17s0,0,0,0,0,0,0,0"/><path class="cls-3" d="M10.73,2.73v0s0,0,0,0"/><path class="cls-3" d="M9.56,5.05h0s0,0,0,0"/><path class="cls-3" d="M9,6.85H9s0,0,0,0"/><path class="cls-3" d="M9,6.88s0,0,0,0H9"/><path class="cls-3" d="M9.34,13.5h0"/><path class="cls-3" d="M9.4,13.63s0,0,0,0l0,0"/><path class="cls-3" d="M10.26,14.62h0l0,0,.06,0s-.05,0-.07,0Z"/><path class="cls-3" d="M11.08,15s0,0-.06,0l-.23-.06a1.43,1.43,0,0,1-.32-.14s.09,0,.06,0,.07.05.08,0a1.55,1.55,0,0,0,.47.14"/><path class="cls-3" d="M12.26,14.84s.05,0,.08,0l.09,0,0,0h-.05Z"/><path class="cls-3" d="M12.63,14.68s0,0,0,0,0,0,0,0"/><path class="cls-3" d="M12.82,14.57s0,0,0,0l0,0"/><path class="cls-3" d="M13,14.48s0,0,0,0,0,0,0,0"/><path class="cls-3" d="M13.39,14.11l0,0,0,0"/><path class="cls-3" d="M13.46,14s0,0,0,0"/><path class="cls-3" d="M15,9.93v0s0,.13,0,0"/><path class="cls-3" d="M9.15,6.15s0,0,0,0v0l0,0s0,0,0,0Z"/><path class="cls-3" d="M9.11,6.26h0s0,0,0,0"/><path class="cls-3" d="M13.81,13.72l0-.05,0,.05"/><path class="cls-3" d="M15,10.16s0,0,0,0v-.06s0,0,0,0Z"/><path class="cls-3" d="M11.47,1.53s0-.08.08-.06,0,0,0,.05,0,0,0,0,0,0,0,0"/><path class="cls-3" d="M8.57,9.38s0,0,0,0v0"/><path class="cls-3" d="M8.57,9.41v0s0,0,0,0"/><path class="cls-3" d="M14.65,9.13l0,0,0,0"/><path class="cls-3" d="M8.68,7.93s0,0,0,0a0,0,0,0,1,0,0"/><path class="cls-3" d="M11.47,1.53s0,0,0,0"/><path class="cls-3" d="M13.67,8.15h0"/><path class="cls-3" d="M10.55,2.88h0s0,0,0,0"/><path class="cls-3" d="M9.06,6.18a0,0,0,0,1,0,0s0,0,0,0"/><path class="cls-3" d="M9,6.45s0,0,0,0H9"/><path class="cls-3" d="M8.8,7.18a0,0,0,0,1,0,0s0,0,0,0"/><path class="cls-3" d="M8.55,8.7s0,0,0,0a0,0,0,0,1,0,0"/><path class="cls-3" d="M10.24,2.94V3s0,0,0,0"/><path class="cls-3" d="M10.09,3.19v0s0,0,0,0"/></g></svg>