<svg id="Layer_2" data-name="Layer 2" xmlns="http://www.w3.org/2000/svg" viewBox="0 0 170 60" width="170" heght="60"><defs><style>.cls-1{fill:#77c7cc;}.cls-2{fill:#fff;}</style></defs><title>logo</title><path class="cls-1" d="M56.08,32c.18,0,.16,0,.25.08s.05.08.09.25c-.46.78.21,2.65-.25,3.37l-.26.16c.56.69.14,4-.08,4.61-.14.39-.42.52-.5,1a.63.63,0,0,1,.33.66c-.41.32-1.18,1.39-.5,1.81a2.19,2.19,0,0,0-.17.41h-.17a.63.63,0,0,0-.33-.08c0,.34.16.38.17.49s-.15.07-.34.09v.24l-.5-.08v.08a.56.56,0,0,1,.33.5A1,1,0,0,0,54,46h-.16v-.08c-.16-.28-.07-.45-.34-.74l-.08.08-.17.33c.27.06.13,0,.25.16h.08a.3.3,0,0,1-.08.08c-.13.28-.24.5-.59.58-.1-.2,0-.06-.16-.17,0,.42,0,.65-.26.83s-.28.11-.42.33a2.7,2.7,0,0,0-.16,1.31h-.25c-.09-.06,0,0-.17-.08a6,6,0,0,1-.34,1.23h.17c.14-.2.36-.36.5-.33s.1,0,.17.25c-.3.25-.28.57-.33.91-.37.2-.68.53-1,.74a1.25,1.25,0,0,1-.84.16,7.74,7.74,0,0,0-1.68,1.56c.33.06.32.06.42.33h-.08c-.45.29-1.11.24-1.26.82-.5.08-.5.29-.92.25,0,.26.06.2,0,.41-.18,0-.21,0-.42-.08a1.1,1.1,0,0,1-.09.33c-.22-.06-.2-.1-.42-.17,0,.38-.14.51-.5.58-.14-.33,0-.36-.42-.41v.33c.27.07.13,0,.25.16a1.07,1.07,0,0,0-.16.25c-.49,0-.55.33-1.26.08,0,.39-.17.34-.34.58-.84-.16-1.44.59-2.18.74,0-.34.14-.2-.08-.33-.25.74-.71.36-1.26.49-.22.05-.28.39-.59.25s-.23,0-.33-.25c.32-.18,1.18-.4,1.34-.66h-.09c-.09.06-1.93.5-1.93.5v-.17a1.46,1.46,0,0,0-.67-.08,1.66,1.66,0,0,1-1.17.66c-.06-.26-.06-.17-.17-.33h-.17c0,.29,0,.21-.16.33a.87.87,0,0,1-.59.25,1.1,1.1,0,0,1-.09-.33c.2-.07.14,0,.26-.17a2.36,2.36,0,0,1-1-.33c-.13,0-.37.31-.67.17L33.18,57c-.06,0-1.61-.08-1.68-.08-.64-.07-1.78.16-2.18-.25a5,5,0,0,1,1.43-.08c.3.17.44-.11.75-.09a11.34,11.34,0,0,0,4.11-.65v-.09h-.5c-.49.35-1.4,0-1.76-.24v.24h-.67l-.09-.57.09-.08a21.17,21.17,0,0,0,3.86-.41V54.6c-.39-.52-.24-.45-1.18-.41-.19.13-.9,0-1.42.08-1.23.25-2.81-.22-4.28-.16,0-.17,0-.16.08-.25a.91.91,0,0,1,.5-.08,27.47,27.47,0,0,0,2.86.08c.06-.08,0,0,.08-.16a1.53,1.53,0,0,0-.5-.08c-.09.06-.08.05-.25.08,0-.44,0-.2-.17-.58a13.24,13.24,0,0,1,1.42,0h.09l-.09.17h.09c.21-.38.68-.41,1.26-.41-.07-.27,0-.13-.17-.25a.65.65,0,0,1-.67-.08c-.07-.09,0-.08-.09-.25h.17c.37.21.7-.25,1.09-.25,1.08,0,2.21-.15,3.52-.16a2.29,2.29,0,0,0,.17.66,5.76,5.76,0,0,1,1.09-.66v-.08c.45-.2.49.25.76-.17-.14-.11-.1,0-.17-.24.28-.08.26,0,.34-.33h.67a2.37,2.37,0,0,1,.33,1c.18,0,.16,0,.25-.08l.09-.08c-.19-.14-.25-.14-.17-.33a.91.91,0,0,1,.5-.58V50.9h-.16c-.14.15-.08.12-.34.17a1,1,0,0,1-.17-.41,2.65,2.65,0,0,0,1.76-1.57c-.13-.11-.09-.05-.16-.24H44c0,.26-.14.11.09.24.11-.13,0-.09.25-.16.12.2,0,.18.33.25.4-.55.72-.63,1.6-.5V48.6a.81.81,0,0,1-.42-.58c.22-.14.11-.13.08-.49.36-.08.55-.07.67-.41,0-.09-.06-.34-.08-.66a2.09,2.09,0,0,1,.59-.16c0,.17,0,.16.08.24s.13.15.25.09a1.27,1.27,0,0,0,.34-.66h-.25c-.14.15-.08.11-.34.16V46h.08c.17-.49.61-.57.84-1,.15.05.08,0,.17.08.15.25-.07.25.17.41v.09l.08-.09a1.58,1.58,0,0,0,.42-.74c.18.07.15,0,.25.09s.06.29.25.41c0-.27-.12-.38,0-.58s.4-.11.51-.24c.26-.33.19-.83.42-1v.08l.17-.08c.28-.57.8-.77.92-1.48h-.09a.56.56,0,0,1-.58.16c-.07-.09,0-.08-.09-.24A4.44,4.44,0,0,0,51.38,39h-.16a1.54,1.54,0,0,1-.34.82,1.27,1.27,0,0,0-.33-.16v.16c-.12.2.44.83.08,1.4-.1.27-.1.27-.42.33a1,1,0,0,1-.17-.41,1.45,1.45,0,0,0,.34-.74h-.09a.63.63,0,0,1-.33.08,2.19,2.19,0,0,1,.67-1.57c.15-.11.42-.16.5-.32s-.13-.4.17-.83l-.08-.08c-.16.11-.08.11-.34.17a1.12,1.12,0,0,1-.08-.42c.26,0,.26.09.42,0a5,5,0,0,0,0-1.72h.25c.06-.58.37-.54.42-1.15a.58.58,0,0,1-.17-.33c.17,0,.16,0,.25-.09-.26-.1-.19,0-.25-.32.06-.13,0,0,0-.25.37,0,.44.1.5-.33,0-.11.22-.6.25-1a2.26,2.26,0,0,1-.67-1h.51a1.59,1.59,0,0,0,.25.33v-.66a1.43,1.43,0,0,1-.09-1h-.25v-.25c.34-.07.31-.2.51-.16s.05.29.25.41V29.6c-.23-.15-.35-.35-.59-.49v-.25c-.17,0-.16,0-.25-.08a2.63,2.63,0,0,1-.09-1.15c-.13-.21.11-1.11.09-1.56-.4-.11-.51-.23-.5-.75-.21-.36.12-.67-.26-.9a1.06,1.06,0,0,1-.08.41l-.08-.08c-.07-.16-.09.16-.09.16a2.84,2.84,0,0,1,.51,1.48c-.26.19-.23.4-.59.5-.13-.24-.09-.27-.42-.33,0-.22-.06-.44-.08-.66s.25-.32.16-.66a8.76,8.76,0,0,1-.33-.82c-.06-.4.33-.41.25-.74l-.17-.08c-.07-.29.14-.31.17-.41L50.38,22c-.24-.37-.74-.62-.93-1.07s-.06-1.3-.25-1.57-.54-.22-.67-.41a12.81,12.81,0,0,0-.67-1.23c-.13-.14-1-.34-1.17-.49s-.47-.89-.84-1.16-.93-.17-1.26-.65c-.21.14-.14.2-.34.16-.77-.23-.84-.69-1.34-1.07a6.89,6.89,0,0,0-1.42-.66c-.54-.25-1.13-.74-1.68-1a12.94,12.94,0,0,0-2.35-.83c-.21,0-.53.1-.84,0-.52-.16-1.15-.5-1.68-.65-1-.28-2.29-.19-3.19-.42a1.77,1.77,0,0,0-.67.09c-.4.06-.77-.16-1.25-.09a13.13,13.13,0,0,0-1.93.5c-.33.11-1.18-.14-1.6,0-.68.23-1.74.75-2.52,1.07s-1.8,0-2.68.33a4.61,4.61,0,0,0-1.17.82c-1,.66-2.12,1-3.11,1.64a16.8,16.8,0,0,0-2.51,3.13,16,16,0,0,0-1.68,2.22c-.06.33-.11.66-.17,1l-.25.16A9.65,9.65,0,0,0,11.87,23c-.14.37-.51.89-.67,1.24s0,.63-.08.9-.43.63-.51.82a11.49,11.49,0,0,0-.41,5.6c0,.28-.09.75-.09,1.15a18.19,18.19,0,0,0,.25,3.94,14.72,14.72,0,0,0,1,3.29c.51.95,1.52,1.69,2,2.64.06.24.11.49.17.74a7.57,7.57,0,0,0,2.68,2.71c.07,0,.38,0,.59.08A13.68,13.68,0,0,0,18.5,47a18,18,0,0,1,1.85.42c1.14.51,2.62,1.11,3.85,1.56.68.25,1.09-.21,1.68,0,1.42.49,3.94,2.59,3.27,4.52a6,6,0,0,1-2.93,3.37,7.58,7.58,0,0,1-2.44.5,3.14,3.14,0,0,0-.92-.17,15,15,0,0,1-6.37-1.07,36.76,36.76,0,0,1-6-3.2l-.84-.83a6.33,6.33,0,0,1-1.34-1c-1-1.21-1.83-2.4-2.68-3.7C4,44.77,2.46,42.67,2,38.81H1.72c-.05-.14,0-.08-.08-.16a3.2,3.2,0,0,0-.09-1.89,2.19,2.19,0,0,1,.09-.66c-.09-.77-.17-1.54-.25-2.3a5.32,5.32,0,0,1-.34-2.64c.31-1.25.27-2.77.67-4,.09-.26.35-.82.42-1.06,0-.08-.14-.23-.08-.42s.19-.88.33-1.31.51-1.09.67-1.56L3.15,22c.26-.79.51-1.45.75-2.14v-.49A18.27,18.27,0,0,1,5.33,17.1a16.11,16.11,0,0,1,1.34-2.3C7.2,14.19,8,13.64,8.43,13a15,15,0,0,1,1.93-2.39,24.16,24.16,0,0,1,3.36-1.89,19.42,19.42,0,0,1,2.35-1.48l.25.08A6.14,6.14,0,0,0,17.24,7c3.53-1.56,7.38-1.78,11.41-2.46a6,6,0,0,1,1.51.08c.52.09,1.18-.25,1.93-.08a12.09,12.09,0,0,0,2.52.24,4.64,4.64,0,0,1,.67.33h.42L38.21,6l.93.16c.8.32,1.7.8,2.43,1.15H42c.08.09.17.17.25.25.3.13.58.07.84.25a18.52,18.52,0,0,1,1.76,1.56,23.24,23.24,0,0,0,2,1.23,17.56,17.56,0,0,1,3.36,3.87l1.43,1.4c.67.93,1.32,1.92,1.92,2.88.06.24.12.49.17.74.16.4.49.86.67,1.23s.09.78.26,1.23c.49,1.4,1,3.52,1.42,5.35a4.72,4.72,0,0,1-.17,1.89c-.08.32.2.72.26,1A11.81,11.81,0,0,1,56.08,32"/><path class="cls-2" d="M160.61,38.65c-.1,2.17,1.45,3.12,3.56,3.12,3.16,0,3.41-1.94,3.41-2.55,0-1.46-1.05-2-2.31-2.35l-2.17-.54c-.73-.17-1.35-.52-1.35-1.36,0-1.32,1.07-1.77,2.23-1.77a2.2,2.2,0,0,1,2.44,2h.85c0-1.83-1.54-2.78-3.3-2.78-2.51,0-3.07,1.64-3.07,2.51,0,1.39,1,1.89,2,2.15l2,.49c.82.2,1.83.6,1.83,1.61,0,1.3-1.42,1.81-2.36,1.81-1.62,0-3-.56-2.91-2.39Zm-7.12-5.26h3.11v8.19h.85V33.39h3.11v-.73h-7.07Zm-7.7,8.19h.85V34h0l5.2,7.54h.95V32.66H152v7.55h0l-5.19-7.55h-1Zm-7.07,0h6.22v-.72h-5.37V37.33h5v-.72h-5V33.39h5.31v-.73h-6.16Zm-1.48-4.53h-3.79v.72h3A3,3,0,0,1,133.4,41c-2.36,0-3.36-2-3.36-3.92s1-3.92,3.36-3.92a2.77,2.77,0,0,1,2.87,2.23h.85a3.5,3.5,0,0,0-3.72-3c-2.81,0-4.21,2.21-4.21,4.65s1.4,4.65,4.21,4.65A3.23,3.23,0,0,0,136.49,40h0l.11,1.62h.62Zm-11.9-3.54,1.73,4.57h-3.51Zm-4,8.07h.91l1.07-2.77h4.06l1.09,2.77h.91l-3.5-8.92h-.94Zm-9.65,0h6.22v-.72h-5.37V37.33h5v-.72h-5V33.39h5.31v-.73h-6.16Zm-1.48-4.53h-3.79v.72h3A3,3,0,0,1,106.34,41c-2.36,0-3.36-2-3.36-3.92s1-3.92,3.36-3.92a2.79,2.79,0,0,1,2.88,2.23h.85a3.51,3.51,0,0,0-3.73-3c-2.81,0-4.21,2.21-4.21,4.65s1.4,4.65,4.21,4.65A3.23,3.23,0,0,0,109.43,40h0l.12,1.62h.61ZM93.94,41.58h.85V34h0l5.2,7.54H101V32.66h-.85v7.55h0l-5.2-7.55h-1Zm-4.67-8.07L91,38.08H87.48Zm-4,8.07h.91l1.08-2.77h4.06l1.09,2.77h.91l-3.5-8.92h-1Zm-7.67,0h.85V37.26h5.3v4.32h.85V32.66h-.85v3.87h-5.3V32.66h-.85Zm-1.21-6.22a3.42,3.42,0,0,0-3.59-2.89c-2.81,0-4.21,2.21-4.21,4.65s1.4,4.65,4.21,4.65a3.65,3.65,0,0,0,3.72-3.59h-.85A2.93,2.93,0,0,1,72.76,41c-2.36,0-3.36-2-3.36-3.92s1-3.92,3.36-3.92a2.71,2.71,0,0,1,2.74,2.16Z"/><path class="cls-2" d="M134.68,26.24c0,2.2,1.82,3.17,3.8,3.17,2.42,0,3.71-1.22,3.71-2.86,0-2-2-2.43-2.65-2.6-2.24-.57-2.66-.66-2.66-1.35s.72-1,1.35-1c.94,0,1.7.28,1.76,1.35h1.9c0-2.06-1.71-2.87-3.57-2.87-1.62,0-3.34.87-3.34,2.7,0,1.67,1.34,2.18,2.66,2.53s2.65.51,2.65,1.48-1,1.11-1.74,1.11c-1.05,0-2-.46-2-1.65Zm-4-3.76h0l1.13,3.27h-2.31Zm-4.36,6.72h2l.7-2h3.34l.67,2h2l-3.33-8.92h-2Zm-10.2-3c0,2.2,1.83,3.17,3.8,3.17,2.42,0,3.71-1.22,3.71-2.86,0-2-2-2.43-2.65-2.6-2.23-.57-2.66-.66-2.66-1.35s.73-1,1.35-1c.94,0,1.7.28,1.76,1.35h1.9c0-2.06-1.71-2.87-3.57-2.87-1.61,0-3.34.87-3.34,2.7,0,1.67,1.34,2.18,2.66,2.53s2.65.51,2.65,1.48-1,1.11-1.73,1.11c-1,0-2-.46-2-1.65Zm-6-4.44h2.15c.87,0,1.34.38,1.34,1.24s-.47,1.28-1.34,1.28h-2.15Zm-2,7.4h2V25.71h2c1,0,1.35.42,1.48,1.35a9.64,9.64,0,0,0,.32,2.14h2a4.91,4.91,0,0,1-.38-2.11c-.06-.9-.33-1.84-1.3-2.09v0a2.2,2.2,0,0,0,1.42-2.24A2.46,2.46,0,0,0,113,20.28h-4.81Zm-7.68,0h6.77V27.55h-4.81V25.36h4.32V23.84h-4.32V21.93h4.71V20.28h-6.67Zm-6.81-7.27h1.4c2,0,2.58,1.15,2.58,2.95,0,2-1.09,2.67-2.23,2.67H93.65Zm-2,7.27h3.85c2.73,0,4-1.92,4-4.51,0-3-1.74-4.41-4-4.41H91.69ZM87,22.48h0l1.13,3.27H85.84ZM82.64,29.2h2l.7-2h3.34l.67,2h2L88,20.28H86Zm-6.91,0H82.5V27.55H77.69V25.36H82V23.84H77.69V21.93H82.4V20.28H75.73Zm-6.79,0h6.31V27.55H70.9V20.28h-2Z"/></svg>