<svg id="Layer_2" data-name="Layer 2" xmlns="http://www.w3.org/2000/svg" viewBox="0 0 16 16" width="16" height="16"><defs><style>.cls-1{fill:#fff;}</style></defs><title>quote</title><path class="cls-1" d="M.75,9.06s0,0,0,0a.76.76,0,0,1-.12.19s0,0,0,0,0,0,0,0h0s0,0,0,0,0,0,0,0,0,0,0,0,0,0,0,0,0,0,0,0a1,1,0,0,1-.28.36h0l0,0s0,0,0,0,0,0,0,0a1.88,1.88,0,0,0,.25-.24s0,0,0,0,0,0,0,0,0,0,0,0,0,0,0,0,0,0,0-.07,0-.05.05-.07l.06-.07s0,0,0,0a1.56,1.56,0,0,0,.14-.19"/><path class="cls-1" d="M.76,9.06s0,0,0,0,0,0,0,0"/><path class="cls-1" d="M.77,9.05s0,0,0,0,0,0,0,0"/><path class="cls-1" d="M.79,9s0,0,0,0"/><path class="cls-1" d="M1.08,8.58h0"/><path class="cls-1" d="M2.74,5.37h0"/><path class="cls-1" d="M2.76,5.36h0Z"/><path class="cls-1" d="M2.83,5.31h0Z"/><path class="cls-1" d="M2.87,5.28h0"/><path class="cls-1" d="M2.87,5.27h0"/><path class="cls-1" d="M1.55,7.78s0,0,0,0v0a0,0,0,0,1,0,0Z"/><path class="cls-1" d="M1.83,7.08h0"/><polyline class="cls-1" points="2.89 5.26 2.89 5.26 2.89 5.26"/><path class="cls-1" d="M2.9,5.25h0"/><path class="cls-1" d="M2.91,5.24h0Z"/><path class="cls-1" d="M3.7,4.68l0,0,0,0,0,0-.11-.11,0,0,0-.06h0v0h0v0h0s0,0,0,0h0l0,0,.08.11,0,0,0,0,0,0,0,0,.13.12"/><path class="cls-1" d="M1.61,7.66h0"/><path class="cls-1" d="M1.62,7.65a0,0,0,0,1,0,0,0,0,0,0,1,0,0"/><path class="cls-1" d="M1.63,7.62a0,0,0,0,1,0,0s0,0,0,0"/><path class="cls-1" d="M1.67,7.53v0s0,0,0,0"/><path class="cls-1" d="M1.68,7.5h0"/><path class="cls-1" d="M2.92,5.23h0l.28-.31h0l-.28.31Z"/><polyline class="cls-1" points="3.19 4.93 3.19 4.94 3.19 4.93"/><path class="cls-1" d="M3.19,4.93h0s0,0,0,0h0"/><path class="cls-1" d="M3.21,4.9h0v0h0s0,0,0,0"/><path class="cls-1" d="M3.25,4.83s0,0,0,0l0,0"/><path class="cls-1" d="M3.27,4.8s0,0,0,0l0,0"/><path class="cls-1" d="M3.27,4.8h0"/><path class="cls-1" d="M3.35,4.55v0"/><path class="cls-1" d="M3.36,4.52v0s0,0,0,0"/><path class="cls-1" d="M3.37,4.39h0"/><path class="cls-1" d="M3.36,4.34h0"/><path class="cls-1" d="M3.36,4.32h0"/><path class="cls-1" d="M1.73,7.41s0,0,0,0,0,0,0,0"/><path class="cls-1" d="M1.74,7.39h0"/><path class="cls-1" d="M3.28,4.77h0s0,0,0,0"/><path class="cls-1" d="M3.29,4.75h0v0Z"/><path class="cls-1" d="M3.32,4.67h0v0s0,0,0,0"/><path class="cls-1" d="M3.36,4.48h0v0Z"/><path class="cls-1" d="M3.9,4.83h0"/><path class="cls-1" d="M2,6.75s0,0,0,.06,0,0,0,0v0A.26.26,0,0,1,2,7a.32.32,0,0,1,0,.09h0a0,0,0,0,0,0,0l0,0s0,0,0,.06,0,0,0,.06h0s0,0,0,0h0a.13.13,0,0,0,0,.06l0,0a1.68,1.68,0,0,1,0,.18s0,0,0,0,0,0,0,0h0s0,0,0,0v0c0,.06-.06.11-.07.16l0,.08,0,0a0,0,0,0,0,0,0s0,0,0,0,0,0,0,0a.06.06,0,0,1,0,0l0,0a.64.64,0,0,1,0-.07.61.61,0,0,1,0-.12.39.39,0,0,1,.05-.14.11.11,0,0,1,0-.08s0,0,0,0v0a0,0,0,0,0,0,0s0-.07,0-.1,0,0,0,0a.38.38,0,0,0,.08-.17s0,0,0,0a.76.76,0,0,1,0-.11A.16.16,0,0,1,2,6.94s0,0,0-.06l0,0H2l0,0a0,0,0,0,0,0,0s0,0,0,0"/><path class="cls-1" d="M2.15,6.27h0"/><path class="cls-1" d="M2.15,6.24s0,0,0,0"/><path class="cls-1" d="M.15,10s0,0,0,0h0"/><path class="cls-1" d="M2.08,6.53s0,0,0,0,0,0,0,0"/><path class="cls-1" d="M2.1,6.47h0"/><path class="cls-1" d="M2.14,6.32h0s0,0,0,0"/><path class="cls-1" d="M2.18,6.2h0"/><path class="cls-1" d="M2,6.68s0,0,0,0,0,0,0,0H2"/><path class="cls-1" d="M2.1,6.5h0"/><path class="cls-1" d="M2.1,6.49h0"/><path class="cls-1" d="M.41,9.79h0"/><path class="cls-1" d="M.46,9.74h0s0,0,0,0"/><path class="cls-1" d="M1.47,8.22h0"/><path class="cls-1" d="M1.53,8.11s0,0,0,0h0v0h0v0Z"/><polyline class="cls-1" points="3.44 4.87 3.44 4.87 3.44 4.87"/><path class="cls-1" d="M.8,3.68s0,0,0,0,0,0,0,0M3.32,13s0,0,0,0,0,0,0,0m.22-.24,0,0s0,0,0,0,0,0,0,0a.6.6,0,0,0,.08-.08s0,.06-.06.08,0,0,0,0,0,0,0,0l0,0a.71.71,0,0,0-.14.1s0,0,0,0,.06,0,.06-.05,0,0,0,0,0,0,0,0m.13-.18a0,0,0,0,1,0,0v0M4.81,2.24h0s0,0,0,0m.08,0s0,0,0,0h0M3.29,12.94s0,0,0,0,.06,0,.08-.05,0,0,0,.05l-.06,0M4.63,2.15s0,0,0,0h0m.14.08s0,0,0,0,0,0,0,0M3.49,12.72a0,0,0,0,1,0,0v0s0,0,0,0ZM3.28,13s0,.07,0,.07a.24.24,0,0,1-.1.05s.05,0,0-.06.06,0,.1-.06m-.18.16a0,0,0,0,1,0,0s0,0,0,0m-1-10.89s0,0,0,0,0,0,0,0M2.48,2h0c-.05,0-.08,0-.08,0s.12,0,.13,0m.57,11.1s0,0,0,0h0s0,0,0,0ZM5.22,2.59s0,0,0,0,0,0,0,0M1,3.58s0-.06,0-.09,0,.07,0,.09m4.26-.92h0s0,0,0,0m0,0s0,0,0,0h0m.06.05s0,0,0,0l0,0m0,0s0,0,0,0,0,0,0,0m0,0h0s0,0,0,0m.09.1s0,0,0,0,0,0,0,0m.16.19s0,0,0,0,0,0,0,0m.07.09s0,0,0,0,0,0,0,0M1,3.65s0,0,0-.06,0,.09,0,.06M5.5,9.44v0m0,0s0,0,0,0m0,.06s0,0,0,0,0,0,0,0M4.9,2.43s0,0,0,0,0,0,0,0M6.44,5.26l0,0s0,0,0,0m0,.1h0s0,0,0,0m-2.7,6.9s0,0,0,0h0s0,0,0,0m0,0h0s0,0,0,0m1.78-3s0,0,0,0l0,.06,0,.11,0,.06,0,0s0,0,0,0l0-.11s0,0,0,0ZM3.93,12h0m-.09.11s0,0,0,0,0,0,0,0M2.3,2.22s0,0,0,0l-.06,0s0,0,.05,0ZM5.59,9s0,0,0,0,0,0,0,0m-.07.24s0,0,0,0,0,0,0-.06,0,0,0,0,0,0,0,0v0s0,0,0,0l0,.06s0,0,0,0,0,0,0,0,0,0,0,0,0,0,0,.06m-.68,1.38s0,0,0,0l.06-.09s0,0,0,0l0,0,0,0Zm0,0s-.05,0,0,0m0,.05s0,0,0,0,0,0,0,0M1.36,3.1l0,0s.06-.08,0,0m.47-.55s0,0,0,0,0,0,0,0M2,2.41s0,0,.06-.06.05,0,.07-.06-.08.08-.13.12m2.74,0h0s0,0,0,0m.17.13h0s.08.06,0,0m.72,6.34s0,0,0,0,0,0,0,0M.87,4.28s0,0,0,0,0,0,0,0M4.7,2.38l0,0s.09.06,0,0m.17.1,0,0s0,0,.06,0Zm-4,1.94s0,0,0,0v0m0,0h0c0,.07,0,.09,0,.15s0-.09,0-.13,0-.14,0-.05,0,0,0,0,0,0,0,0,0,0,0,0M1.6,2.81s0,0,0,0,0,0,0,0m.74-.57s0,0-.06,0l.06,0m.15-.07s-.09,0-.13.05.11-.08.18-.11A3.3,3.3,0,0,1,3.06,2s.07,0,.08,0,.09,0,.09,0A3.49,3.49,0,0,1,3.88,2l.1,0H4s0,0,0,0l-.12,0a1.53,1.53,0,0,1-.33,0s0,0,0,0A2.44,2.44,0,0,0,3,2c-.09,0-.12,0-.16,0s0,0,0,0,0,0-.07,0,0,0,0,0l-.13,0-.07,0-.06,0c0,.05-.14.05,0,0M6.08,7.52s0,0,0,0a.22.22,0,0,1,0,.1s0,0,0,0,0,0,0,0h0a.08.08,0,0,1,0-.05m0,.14v0H6ZM1.39,3.12l0,0,0,0s0,0,0-.05.06-.06,0,0m0-.08s0,0,0,0,0,0,0,0M1.49,3s0,0,0,0l0,0s0,0,0,0Zm0,0s0,0,0-.06,0,0,0,.06m.12-.14s.09-.12.12-.17.07-.06.1-.08L2,2.47a2.2,2.2,0,0,1,.25-.17s0,0,0,0l-.06,0s-.1,0-.09.06a4.11,4.11,0,0,0-.35.27c-.05,0-.05.08-.09.12m1-.67s0,0,0,0,0,0,0,0M6.32,6.5s0,0,0,0,0,0,0,0M6.06,7.68,6,7.92S6,8,6,8,6,8,6,8H6V8S6,8,6,8s-.06.15-.08.23v0a.11.11,0,0,1,0,.05.12.12,0,0,0,0,.1.42.42,0,0,0,0,.1s0,0,0,.05a.07.07,0,0,0,0,.06s0,0,0,.09,0,0,0,0,0,0,0,0a.76.76,0,0,0,.06-.18s0,0,0,0,0-.09,0-.14,0-.07,0-.11a.87.87,0,0,1,.08-.26s0,0,0,0,0-.11.06-.19a.16.16,0,0,0,0-.09l0,0s0,0,0,0M1.32,3.25s0,0,0-.06,0,0,0,.06m-.42,1s0,0,0,0,0,.06,0,0,0-.1,0-.1A.9.9,0,0,1,1,3.88s0,0,0,0a2.21,2.21,0,0,1,.14-.41s0,0,0,0,0,0,0-.07,0,0,0,0,0,0,0-.09.07-.13.11-.15,0,0,0,0,0,0-.05,0,0,0,0,.08,0,0,0,0,0,.09,0,.13,0,.06-.05.06,0,0,0,0,0,0,0,0l0,0s0,0,0,0,0,0,0,0l0,.07s0,0,0,0,0,0,0,0,0,0,0,.06,0,0,0,0S1,3.91,1,4s0,.19-.06.26m4.81-.84a.05.05,0,0,1,0,0s0,0,0,0m.07.1a0,0,0,0,1,0,0s0,0,0,0m.06.1s0-.06-.06-.08.07,0,.06.08m0,0s0,0,0,0l0,.06L6,3.86s0,0-.05-.06a.07.07,0,0,1,0-.06s-.06-.06,0-.1M6,3.91v0s0,0,0,0H6M4.14,2.17s0,0,0,0,0,0,0,0m2,5.19h0s0,0,0,0m0,0h0M5.65,8.7h0s0,0,0,0m-.08.15h0ZM1.05,3.9s0,0,0-.08,0,.05,0,.08m-.14.65s0-.09,0-.13,0,.08,0,.13M6,3.93s0,.08,0,.11h0s0,0,0,0,0,0,0,0,0,0,0,0l0,0,0,0h0l0,.06s0,.06,0,.1,0,.08,0,.12,0,.05,0,.05h0c0,.11,0,.22.06.36a.51.51,0,0,1,0,.17s0,0,0,.06l0,0h0c0,.19,0,.43,0,.62,0,0,0,.07,0,.1h0s0,0,0,0a.39.39,0,0,0,0-.16c0-.21,0-.48-.05-.72,0,0,0,0,0,0s0,0,0,0a.34.34,0,0,1,0-.08l-.06-.27s0-.06,0-.07l0-.07a0,0,0,0,0,0,0s0-.05,0-.06,0,0,0,0,0-.07,0-.11l0-.07s0-.05,0-.06L6,4s0,0,0,0m.27,2.38s0,0,0,0,0,0,0,0m-1,3.36h0s0,0,0,0,0,0,0-.05,0-.06,0-.06,0-.07,0-.11h0l0,0s0,0,0-.05.06-.18.1-.24,0,0,0,0,0,0,0,0,0,0,0,0,0,0,0,0a.12.12,0,0,1,0-.08s0,0,0,.05,0,0,0,0-.06.13-.06.19,0,0,0,0a2.92,2.92,0,0,1-.17.37s0,0,0,0h0s0,0,0,0,0,0,0,0M5,10.08s0,0,0,0H5m-.26.49h0M1,4.36c0-.05,0-.16,0-.24s0,.16,0,.24M5.4,3.07s0,0,0,0,0,0,0,0M6,3.94l0,0a0,0,0,0,1,0,0M6.3,6.12s0,0,0,0,0,0,0,0m0,0h0v0s0,0,0,0Zm0,.11s0,0,0,0,0,0,0,0M5.08,10s0,0,0,0,0,0,0,0h0s0,0,0,0,0,0,0,0h0s0,0,0,0v0h0s0,0,0,0l0,0s0,0,0,0,0,0,0-.05h0v0s0,0,0,0,0,.07,0,.12,0,0,0,0a.61.61,0,0,0-.07.1s0,0,0,.06m0-7.18s0,0,.06,0,0,0-.06,0m.06,0s0,0,.06,0-.06,0-.06,0m.33.38c0-.05-.07-.07-.08-.12s0,0,.06,0,0,.06,0,.07m.09.1s0,0,0,0h0m.66,3s0,.07,0,.1,0,.09,0,.13a5.86,5.86,0,0,1-.14.75s0,0,0,0v0s0,0,0-.09a.86.86,0,0,1,0-.21.4.4,0,0,1,0-.18s0,0,0,0a1.29,1.29,0,0,0,0-.25c0-.05,0-.07,0-.12M5.55,3.25l0,0s-.07,0,0,0m0,.16s0,0,0,0l0,0s.06.05.08.08.16.25.24.42c0,0,0,0-.06-.06l0-.08L5.75,3.6s0,0,0-.07a.44.44,0,0,1-.11-.12M1.05,4.1s0,0,0,0,0,0,0,0M1,5.35s0,0,0,0,0,0,0,0M1.1,4s0,0,0,0l0-.06s0,.07,0,.1,0,0,0,0M1,4.43a.06.06,0,0,1,0,0v0s0,0,0,0Zm0-.1s0,0,0,0,0,0,0,0m0-.09s0,0,0,0,0,0,0,0,0,0,0,0,0,0,0,.06a0,0,0,0,0,0,0l0,.12s0,.12,0,.11A2.09,2.09,0,0,1,1,4.13c.05,0,0,0,0,.06s0,0,0,0H1s0,0,0,0m1.38,9s0,0,0,0h0v0Zm.08-.13s0,0,.05,0,0,0,0,0,0,0,0,0-.09,0-.13.06,0-.05,0-.05l0-.06h0s0,0,0,0h0M1.12,4.78a.06.06,0,0,1,0,0v0s0,0,0,0Zm.35.89h0s0,0,0,0m-.06-.21s0,0,0,0,0,.08.07.15,0,0,0,.06,0,0,0,0,0,0,0,0-.06-.14-.09-.2m.46.45v0h0v0Zm.41,6.7s0,0-.06.05,0,0,0,0,0,0,0,0h0m-.34.27a0,0,0,0,1,0,0s0,0,0,0m.67-6.45h0m-.7-1s0,0,0,0v0l0,0ZM2,5.53H2m.94-.14h0s0,0,0,0M3.39,5s0,0,0,0V5h0m.06-.17Zm0,0Zm0,0h0m0,0ZM.46,11v0h0s0,0,0,0l0,0s0,0,0,0h0s0,0,0,0,0,0,0,0M3.9,4.86h0M.53,10s0,0,0,0,0,0,0,0m.19-.26s0,0,0,0,0,0,0,0,0,0,0,.05L.6,9.92s0,.05-.06.07,0,0,0-.05l0,0a.38.38,0,0,1,.14-.17m1.19-2s0,0,0,0v0s0,0,0,0,0,.06,0,.09,0,0,0,0,0,.06,0,.07-.05,0,0,.07,0,0,0,0h0s0,0,0,0,0,0,0,0l0,0s0-.05,0-.08.05-.11.09-.13a.61.61,0,0,1,.07-.14M3.36,4.46v.07a.74.74,0,0,1-.05.19v0s0,0,0,0v0a.77.77,0,0,0,0-.19v0m-1,2.07s0,0,0,0l-.12.37s0,0,0,0,0,0,0,0l0,0v0s0,0,0,0l0,0a.94.94,0,0,1,.07-.22m1-2.23h0a.18.18,0,0,0,0,.06v0a.11.11,0,0,1,0-.05h0M2.47,5.79s0,0,0,.06v0h0s0,0,0,0,0,0,0,0h0m-.05-.18h0s0,0,0,0m.71.52s-.08,0-.08-.1,0,0,0,0,0,0,0,0,0,0,0,0L3,6l-.16-.13c0-.05,0-.06,0-.1s0,0,0,0,0,0,0,0-.05,0,0-.08.06,0,.08,0,0,0,0,0,.09,0,.11.08a.08.08,0,0,1,.08,0s0,0,0,0,.08,0,.12,0,0,0,0,0,0,0,0,0h.06s0,0,0,0h0s0,0,0,0-.19-.09-.3-.13,0,0,0,0-.06,0-.06,0,0,0,0,0l0,0s0,0,0,0,0,0,0,0,.07.05.11,0a.09.09,0,0,0,0,0s0,0,0,0,0,0,0,0,0,0,0,0,.06,0,.1,0,.07,0,.12,0,0,0,0,0a.06.06,0,0,0,0,0h0s0,0,0,0a.45.45,0,0,1-.14-.06s0,0,0-.09a0,0,0,0,0,0,0s0,0,0,0,0,0,0,0,0,0,0,0a0,0,0,0,1,0,0s0,0,0,0v0s0-.07,0-.11h0s0,0,0,0h0a.08.08,0,0,1,0,0v0a.2.2,0,0,0,0,0h0v0h0v0h0v0h0s0,0,0,0h0a.25.25,0,0,1,0-.08.13.13,0,0,0,0,0s0,0,0,0,0,0,0,0l0-.06h0l0,0v0s0,0,0,.06,0,.06,0,.08V5l0-.09v0h0v0h0v0h0v0a.4.4,0,0,0,0,.13v0h0V5h0A.17.17,0,0,1,3.4,5h0v0l0,0h0a.49.49,0,0,0,0,.16h0a.27.27,0,0,1,0-.16h0s0,0-.06,0l0,0h0l.16-.07h0a.91.91,0,0,1,.33,0h0a.69.69,0,0,0-.2,0H3.5l-.16.07.16-.06h.33a.39.39,0,0,1,.14,0H4l.07.05H4l0,0-.16-.11L3.73,4.7l-.12-.1,0,0-.06-.05s0,0,0,0l.12.11a.52.52,0,0,1-.11-.1l-.05-.05a.74.74,0,0,1-.08-.13h0s0,.08,0,.14v.09a.52.52,0,0,1,0,.11l0,.08a1.17,1.17,0,0,1-.1.2h0s0,0,0,0h0l-.29.32-.05,0-.06,0a1,1,0,0,1-.26.16h0l0,0h0l-.06,0h0s0,0,0,0,0,0,0,0h0s0,0,0,0h0s0,0,0,0,0,0,0,0,0,0,0,0,0,0,0,0,0,0,0,.06,0,.1,0,.15,0,0,0,0,0,.13,0,.21l0,.11s0,0,0,0,0,0,0,0,0,0,0,0l0,.07s0,0,0,.06,0,0,0,0l0,0h0s0,0,0,.07l0,0s0,0,0,0l0,0a.06.06,0,0,0,0,.06s0,0,0,.07,0,0,0,0,0,0,0,0,0,0,0,0v0s0,0,0,0,0,0,0,0,0,0,0,0,0,0,0,0,0,0,0,0,0,0,0,0,0,.11-.06.15,0,0,0,0,0,0-.05.07,0,0,0,0,0,.12-.07.16,0,0,0,0,0,0,0,0,0,0,0,0v0s0,0,0,0,0,0,0,.05,0,.06,0,.08S1.71,8,1.65,8a.25.25,0,0,1-.08.18s0,0,0,0,0,.07-.08.09,0,0,0,.05a2.15,2.15,0,0,1-.14.26s0,0,0,0-.12.21-.19.3h0s0,0,0,0h0l0,0s0,0,0,0,0,.05,0,.08a.25.25,0,0,1-.1.15s0,.05,0,.06-.1.11-.15.18,0,0,0,0,.1-.11.16-.2,0,0,0,0a0,0,0,0,0,0,0c0,.05-.07.07-.09.11s-.12.19-.19.25,0,.05,0,.08,0,0,0,0,0,0,0,0h0s0,0,0,0,0,0,0,0,0,0,0,0l0,0s0,0,0,0,0,0,0,0l0,0L.29,10l0,.05a.18.18,0,0,1,0,.1s0,.06,0,.09,0,0,0,0l0,0s0,0,0,0l0,0h0l0,0,0,0a.09.09,0,0,1,0,.11s0,0,0,0,0,0,0,0l0,0s0,.05-.06.06,0,.05,0,.08v0s0,0,0,0,0,0,0,0,0,0,0,0,0,0,0,0,0,.07-.07.1a.19.19,0,0,1,0,.1s0,0,0,0h0v0c.05,0,.08-.06.13-.07s0,0,0,0,0,0,0,0,0,0,0,0l0,0s0,0,0,0a0,0,0,0,1,0,0l0,0s0,0,0,0,0,0,0,0l-.06.05s0,0,0,0l0,0s0,0,0,0l0,.05s0-.05,0-.07,0,0,.06,0,0,.09-.07.11,0,0,0,0,0,0,0,0,0,0,0,0,0,0,0,0-.06.05-.1.08,0,0,0,0,0,0,0,0,.07,0,.12-.07,0,0,0,0,0,0,0,0,0,0,0,0,0,0,0,0,0,0,0,0H.48s0,0,0,0,0,0,0,0h0s0,0,0,0,0,0,0,0,0,0,0,0,0,0,0,0l0,0s0,0,.06,0l.06,0a.13.13,0,0,0,0,.07s0,.06,0,.07a.27.27,0,0,1,.06.1l.05.06s0,.06,0,0,0,0,0,0,0,0,0,0,0,0,0,0,0,0,0,.06L1,12S1,12,1,12a.81.81,0,0,1,.1.18s0,0,.05,0l0,0h0s0,0,0,0,0-.05.06,0l.05.08c0,.06.06.06.08.11s0-.06.06-.06,0,0,0,.09.05,0,.09,0,0,0,0,0,0,0,0,0l0,0s0,0,0,0,0,0,0,0h0s0,0,0,0,0,0,0,0,0,0,0,0,0,0,0,0l0,0s0,0,0,0v.06s0,0,0,0,0,0,.05,0v0s0,0,0,0,.05,0,0,0,0,0,0,0,0,0,0,0,0,0,0,0,0,0,0,0,0,0,0,0,0,0,0,0,0,0,0,0,0-.05,0,0,0,.06,0,.08,0,0,.06,0,.09-.06.14,0,0,0,0,0l0,0H2s.05,0,.05,0,0,0,0,0,0,0,0,0,0,0,0-.07,0,0,0,0a.34.34,0,0,0-.06.12.06.06,0,0,1-.05,0s0,0-.06,0H2s0,0-.05,0-.07,0,0,.07L2.09,13s0,0,0,0,0,0,0,0,0,0,0,0,0,0,0,0,0,0,0,0,0,0,0,.05a.13.13,0,0,0,.07-.06h.06s0,0,0,0,0,0,0,0,0,0,0,.05,0,0,0,.06,0-.08.07-.07a0,0,0,0,1,0-.06,0,0,0,0,1,0,.06s0,0,0,0,0,0,0,0,0,.08,0,.12,0,0-.05,0,0,0,0,.06,0,0,.06,0l0,0s0,0,0,0,0,0,0,.06.07-.08.11-.06,0,.05,0,.08l.08-.06c0-.06.09-.1.11-.16l0,0h0s0,0,0,0,0,0,0,0,0-.05,0,0,0,.05,0,.06,0,0,0,0l.05,0s0-.05,0,0,0,0,0,0a0,0,0,0,0,0,0s0,0,0,0S2.92,13,3,13s0,.06,0,.09,0,0,0,0,0,0,0,0l0,0s0,0,0,0,0,0,0,0,0,0,0,0,0,0,0,0l0,0s0,0,0,0l.1-.06s0,0,.08,0,0,0,0,0,0,0,0-.06,0,0,0,0,0,0,0-.06,0,0,0,0L3.27,13s0,0,0,0,0,0,.05,0a.09.09,0,0,0,0-.06s0,0,.06,0l0,0s0,0,0,0,0,0,0,0,0,0,0,0,0-.05.05,0,0,0,0,0,0,0,0,0,0,0,0,0,0,0,0,0h0a.07.07,0,0,1,0,0s0,0,0-.05,0,0,0,0l.08-.09s.05,0,.07-.06,0,0,0,0,0,0,0,0h0s0,0,0-.05l.06,0a0,0,0,0,0,0,0s0,0,0,0,0,0,0,0h0a.08.08,0,0,1,0,0l0,0,0,0A.16.16,0,0,1,4.25,12s0,0,0,0,0,0,0,0,0,0,0,0,0,0,0-.05,0,0-.07.06a.31.31,0,0,0-.07.09.36.36,0,0,0-.14.16s0,0-.05,0H4s0,0,0,0,0,0,0,0,0,0,0,.08,0,0-.06.06,0,0,0,0,.12-.11.15-.2a.43.43,0,0,0,.13-.09c0-.06.07-.11.11-.17s.08-.1.15-.15,0-.06,0-.07,0,0,0,0l0,0a.08.08,0,0,1,0,0s0,0,0,0l0,0,0,.06,0,0h0s0,0,0,0a.18.18,0,0,0-.08.09s0,0,0,0,0,.06-.07.06,0,0,0,0,0,0-.09,0,0,0,0,.05,0,.05-.1.08,0,0,0,.05-.08.09-.12.13,0,0-.05,0,0,0,0,0,0,0,0,0l0,0s0,0-.07.05,0,0,0,0,0,0,0,0,0,0,0,0,0,0,0,0l0,0,0-.06s0,0,0,0a1.89,1.89,0,0,1,.2-.2l0,0s0,0,0,0L4,12s0,0,0,0l0,0s0,.05-.05,0,0,0,0,0,0,0,0,0,0,0,0,0,0,0,0,0,0,0,.08-.07l.1-.14s0,0,0,0l0-.06,0,0,0,0,0,0s0,0,0,0,0,0-.06.07l0,.06H4s0,0,0,0A.18.18,0,0,0,4,11.8s0,0,0,0,0,0,0,0,.06-.08.09-.11.07-.07.1-.12,0,0,0,0,0-.06,0-.06l0-.07s0,0,0,0h0s.08-.1.1-.13h0s0,0,0,0v0s0-.07.06-.09h0v0h0s0,0,0,0,0,0,0,0l0,0,.11-.18,0,0h0s0,0,0,0a.25.25,0,0,1,0-.07s0,0,0,0,0,0,0,0,0,0,0,0L5,10.43s0,0,0,0,0-.07.06-.08,0,0,0-.05c.11-.21.21-.43.31-.64l0-.05s0-.05,0,0a.79.79,0,0,1-.08.16s0,0,0,0l0,0s0,0,0,0v0h0s0,0,0-.07,0,0,0,0h0v0s0,0,0-.06,0,0,0,0,0,0,0-.06,0,0,0,0,0,0,0,0,0,0,0,0,0,0,0,0,0,0,0,0a.78.78,0,0,0,0-.14s0-.11.08-.16,0-.05,0,0,0,0,0,0h0c0-.05,0-.1.06-.16s0,.06-.06.05a.44.44,0,0,0,0-.15l0,0s0,0,0,0,0,0,0,.06,0,0,0,.05l0,0s0-.05,0-.09,0,0,0,0l0-.11h0s0,0,0,0,0,0,0-.06a1.54,1.54,0,0,0,.08-.19s0,0,0,0h0a.06.06,0,0,1,0,0s0-.08,0-.11,0,0,0,0,0,0,0,0,0,0,0,0v0s0,0,0,0H6S6,8,6,8s0,0,0-.08,0-.09,0-.14,0,0,0-.09,0,0,0,0a0,0,0,0,0,0,0s0,0,0,0,0,0,0,0a.2.2,0,0,1,0-.07s0,0,0-.09l.06-.19s0-.05,0-.08l0-.13h0l0,0a3,3,0,0,0,.06-.32s0,0,0,0v0a0,0,0,0,1,0,0s0,0,0,0l0-.21a.34.34,0,0,1,0-.1s0,0,0,0v0s0,0,0,0,0,0,0,0l0-.22s0,0,0,0a1.1,1.1,0,0,1,0-.26s0,0,0,0,0-.06,0-.08V5.28a3.4,3.4,0,0,0-.08-.53.86.86,0,0,0,0-.18s0,0,0,0,0,0,0-.08,0-.09,0-.13,0,0,0-.07,0,0,0-.06,0-.05,0-.08S6,3.9,6,3.8a.64.64,0,0,0,0-.07s-.06-.06-.07-.11,0,0,0,0l0-.1h0s0,0,0,0h0v0s0,0,0-.07,0,0,0,0a0,0,0,0,0,0,0s0,0-.06-.07,0,0,0,0l0,0c-.06,0,0,0,0,.05A1.18,1.18,0,0,0,5.39,3s0,0,0-.07-.06,0-.08-.06-.06-.06-.08-.06-.1-.1-.15-.14,0-.05,0,0a.09.09,0,0,1,0,0c.12,0,.26.21.35.25a.05.05,0,0,0,0,0L5.53,3s0,0,0,0,.09.13.14.15a.33.33,0,0,0,.07.13l.08.12a.55.55,0,0,1,.06.08l0,0s0,0,0,0v0l0,0a.08.08,0,0,0,0,0s0,0,0,0v0a0,0,0,0,1,0,0,0,0,0,0,0,0,0,.14.14,0,0,1,0,.07s0,0,0,0,0,0,0,0a.42.42,0,0,1,0,.1,3.21,3.21,0,0,1,.12.33s0,.08,0,.11,0,.06,0,.07,0,0,0,.06,0,.09,0,.17,0,0,0,0,0,.09,0,.17,0,.11,0,.17,0,0,0,0a.24.24,0,0,0,0,.09s0,0,0,0,0,0,0,0v.06s0,0,0,0,0,0,0,.06v.06s0,0,0,0,0,.17,0,.23h0s0,0,0,.06,0,0,0,0,0,0,0,0a.43.43,0,0,0,0,0s0,.06,0,.11,0,0,0,0a.43.43,0,0,0,0,0,.07.07,0,0,0,0,0s0,0,0,0h0s0,.09,0,.14,0,0,0,0,0,.09,0,.1,0,0,0,0,0,0,0,0,0,0,0-.08,0,0,0,0,0,0,0,0,0,0,0,0,0-.1,0-.15,0,0,0,0,0,0,0-.06,0,0,0,0l0,0a1.92,1.92,0,0,1,0-.24s0,0,0,0a1,1,0,0,1,0-.18c0-.09,0-.25,0-.34s0,0,0-.06,0,0,0-.06,0-.06,0-.08l0-.18s0-.06,0-.07-.06-.28-.1-.38a1.43,1.43,0,0,0-.05-.2s0,0,0,0,0,0,0,0a2.55,2.55,0,0,0-.2-.47s0,0,0,0S6,3.57,6,3.53s0,0,0,0-.09-.14-.1-.2S5.71,3.09,5.63,3s0,0,0,0a.06.06,0,0,0,0,0l-.13-.14a.15.15,0,0,0-.08-.08v0s0,0-.06-.06h0s0,0,0-.06l-.06,0s0,0,0,0l0,0,0,0s0,0-.08,0-.06,0,0-.06l.13.09s.1.09.13.09A.89.89,0,0,0,5,2.35s0-.05-.07-.06l-.14-.08-.15-.08A1.42,1.42,0,0,0,4.31,2L4.25,2s-.09,0-.14,0L4,1.9s-.22-.07-.24,0,0,0-.08,0,0,0,0,0h0l-.08,0s0,0,0,0,0,0,0,0-.19,0-.24,0,0,0,0,0a.17.17,0,0,0-.14,0s-.06,0,0-.06a.76.76,0,0,1-.21.06v0s0,0,0,0h0c-.13,0,0,0-.1,0s0,0-.07,0S2.55,2,2.47,2s.09,0,.09-.05l-.38.15c-.1.09-.33.2-.39.29a.27.27,0,0,0-.09.06,3.06,3.06,0,0,0-.43.51l-.09.13c0,.05,0,.09-.07.09a2.74,2.74,0,0,1,.53-.71s0,0,0,0,0,0,.06,0a3.52,3.52,0,0,1,.37-.27A1.19,1.19,0,0,1,2.28,2s.09,0,.1,0,.15-.06.16-.09a2.45,2.45,0,0,0-.7.37.07.07,0,0,0-.07,0,3.9,3.9,0,0,0-.29.28c-.07.15-.26.3-.29.44A1.92,1.92,0,0,0,1,3.31s.05-.11.09-.11S1,3.31,1,3.38a.64.64,0,0,0,0,.07l0,.06s0,0,0,.07-.05.13-.08.2,0,0,0,0,0,.11-.06.09.05-.15.07-.25l0-.09,0,0s0,0,0,0l-.05.12h0a2.18,2.18,0,0,0-.06.22s0,0,0,.06A.27.27,0,0,1,.68,4s0,.1,0,.11,0-.05,0-.07,0,0,0,0,0,0,0,0l0-.09s0-.07,0-.06,0,0,0,0,0,0,0,0,0,.09-.07.15h0s0,0,0,0,0,.09,0,.11l0-.08c.07,0,0-.08.07,0a.7.7,0,0,1,.08-.23l0-.07s0,0,0,0,0,.07,0,.1l0,.12s0,0,0,.07a1.43,1.43,0,0,0-.05.2s0,0,0,0,0,0,0,0,0,.12,0,.14,0,0,0,0,0,0,0,0,0,0,0,.06,0,0,0,0l0,0s0,0,0,0,0,0,0,0,0,0,0,.08,0,0,0,.07,0,0,0,.09a.34.34,0,0,0,0,.11S.71,5,.74,5s0-.07,0-.13a.31.31,0,0,0,0-.14s0,0,0,0,0,0,0,0,0-.08,0-.09v.07s0,.08.06.08,0,0,0,0V4.64s0-.07,0-.07a2.07,2.07,0,0,0,0,.25s0,0,0,0,0,0,0,0,0,0,0,.08S.93,5,1,5a1.41,1.41,0,0,1,0-.2v-.1s0-.06,0-.07,0,.07,0,.06a.07.07,0,0,1,0,0s0,0,0,0,0,.07,0,.1S1,5,1,5s0,0,0,.06,0,.06,0,.09,0,0,0,0,0,.13.06.19,0,0,0,.06,0,.09,0,.11,0,0,.06,0a.61.61,0,0,1,0-.14s0,0,0-.06a1.41,1.41,0,0,1-.06-.22s0,0,0,0V5s0,0,0-.07V4.8a.68.68,0,0,0,0-.15s0-.11,0-.11,0,.1,0,.17,0,.09,0,.15,0,0,0,0a.06.06,0,0,0,0,.06.27.27,0,0,0,0,.09s0,0,0,0a.17.17,0,0,1,.06.08.47.47,0,0,0,.06.19s0,.06,0,.09l0,.09s0,0,0,0,0,.2.1.24,0-.11,0-.17-.1-.14,0-.18a1.24,1.24,0,0,0,.11.28c.05.09.11.2.16.27s0-.07,0-.11-.06-.08,0-.09.06.1.09.15,0,0,.05.06.05,0,0,0l0-.07s0-.06,0-.07.09.18.15.19-.08,0,0-.08L1.8,6s0,.06.07,0a0,0,0,0,1,0,0c.07.12.16.14.24.23s0,0,0,0A.47.47,0,0,1,2,6.13L1.93,6s-.08-.07,0-.09c.1.16.22.21.3.32s0,0,0-.06l.17.11s0,0,0,0a1,1,0,0,0,.23.13s.05,0,.07,0a.13.13,0,0,1-.07,0s0,0,0,0h0s0,0,0,0,0,.06,0,0-.07,0-.08-.06,0,0,0,0a1.3,1.3,0,0,0-.23-.18c-.05-.1-.17-.15-.26-.26s0,0,0,0,0,0-.05,0,0,0,0,0l0-.07,0,0S2,5.6,2,5.55l0,0s0,0,0,0,0,0,.06,0a.13.13,0,0,0,.06.05s0,0,0,0a.18.18,0,0,0,.09.1l0,.06L2.4,6l.06,0s0,0,.06,0,0,0,0,0,0,0,0,0l-.15-.09-.06-.07s0,0,0,0l0-.06s-.05,0,0-.06a1,1,0,0,0,.08.11s0,0,0,0l0,0h0s.06.07.1.06l0,0s0,0,0,0-.08-.09-.14-.13l0-.06s0,0,0,0a.8.8,0,0,0,.16.16s0,0,.06.08,0,0,0,.06.05,0,.07,0,.2.1.27.16a1.33,1.33,0,0,1,.24.1h0Z"/><path class="cls-1" d="M2.11,6.67s0,0,0,.08,0,0,0,0,0,0,0-.07"/><path class="cls-1" d="M2.13,6.6s0,0,0,0,0,0,0,0,0,0,0,0,0,0,0,0"/><path class="cls-1" d="M2.13,6.59s0,0,0,0,0,0,0,0"/><path class="cls-1" d="M2.17,6.46s0,0,0,0,0,0,0,0,0,0,0,0"/><path class="cls-1" d="M2.31,5.92h0"/><path class="cls-1" d="M2.31,5.91s0,0,0,0v0s0,0,0,0Z"/><path class="cls-1" d="M2,6.91s0,0,0,0,0,0,0,0"/><path class="cls-1" d="M2.05,6.87h0v0s0,0,0,0Z"/><path class="cls-1" d="M2.09,6.76h0"/><path class="cls-1" d="M2.12,6.67h0"/><path class="cls-1" d="M2.18,6.53s0,0,0,0,0,0,0,0,0,0,0,0"/><path class="cls-1" d="M2.19,6.44a0,0,0,0,1,0,0s0,0,0,0"/><path class="cls-1" d="M2.2,6.41s0,0,0,0v0Z"/><path class="cls-1" d="M2.22,6.31h0s0,0,0,0"/><path class="cls-1" d="M2.28,6.12h0v0s0,0,0,0Z"/><path class="cls-1" d="M2.3,6s0,0,0,0h0s0,0,0,0Z"/><path class="cls-1" d="M2.31,6h0V6h0Z"/><path class="cls-1" d="M2.32,6s0,0,0,0h0"/><path class="cls-1" d="M2.32,5.94h0s0,0,0,0"/><path class="cls-1" d="M3.56,4.85h0"/><path class="cls-1" d="M1.26,8.69h0"/><path class="cls-1" d="M2,7H2s0,0,0,0"/><path class="cls-1" d="M2,7S2,7,2,7H2V7S2,7,2,7Z"/><path class="cls-1" d="M2.36,5.65h0"/><path class="cls-1" d="M2.36,5.65h0v0s0,0,0,0,0,0,0,0"/><path class="cls-1" d="M2.35,5.63h0s0,0,0,0Z"/><path class="cls-1" d="M2.34,5.57h0s0,0,0,0"/><path class="cls-1" d="M2.35,5.57h0"/><path class="cls-1" d="M2.35,5.57h0Z"/><path class="cls-1" d="M3.78,4.84h0"/><path class="cls-1" d="M3.72,4.84h0"/><path class="cls-1" d="M3.66,4.84h0"/><path class="cls-1" d="M3.64,4.84h0"/><path class="cls-1" d="M3.62,4.84h0"/><path class="cls-1" d="M2.36,5.56h0"/><path class="cls-1" d="M2.36,5.56h0"/><path class="cls-1" d="M2.4,5.55h0"/><polyline class="cls-1" points="2.42 5.54 2.43 5.54 2.42 5.54"/><path class="cls-1" d="M2.44,5.53h0"/><path class="cls-1" d="M2.9,5.25h0Z"/><path class="cls-1" d="M3.84,4.85h0"/><path class="cls-1" d="M1.77,7.71h0"/><path class="cls-1" d="M1.77,7.7s0,0,0,0,0,0,0,0"/><path class="cls-1" d="M2.92,5.23h0l.28-.31h0l-.28.31Z"/><path class="cls-1" d="M3.92,4.87,4,4.9H4l0,0H3.92"/><path class="cls-1" d="M3.19,4.93Z"/><path class="cls-1" d="M3.86,4.85h0"/><path class="cls-1" d="M3.37,4.92Z"/><path class="cls-1" d="M3.38,4.91h0"/><polygon class="cls-1" points="3.44 4.87 3.44 4.87 3.44 4.86 3.44 4.87 3.44 4.87"/><polygon class="cls-1" points="3.45 4.86 3.45 4.86 3.45 4.86 3.45 4.86 3.45 4.86"/><path class="cls-1" d="M.22,10.28s0,0,0,0"/><path class="cls-1" d="M.22,10.25s0,0,0,0"/><path class="cls-1" d="M.22,10.28s0,0,0,0"/><path class="cls-1" d="M.22,11.17h0"/><path class="cls-1" d="M.38,11.15s0,0,0,0,0,0,0,0"/><polygon class="cls-1" points="3.39 5.12 3.39 5.13 3.39 5.13 3.39 5.13 3.39 5.13 3.39 5.13 3.24 4.7 3.39 5.13 3.39 5.13 3.39 5.13 3.39 5.13 3.39 5.13 3.39 5.12"/><path class="cls-1" d="M2.91,5.69a0,0,0,0,1,0,0,0,0,0,0,1,0,0"/><path class="cls-1" d="M2.93,5.7h0"/><path class="cls-1" d="M3.12,5.83s-.08,0-.1,0,0,0,0,0,0,0,0,0,0,0,0,0"/><path class="cls-1" d="M3.15,5.82l0,0,0,0"/><path class="cls-1" d="M3.17,5.84s0,0,.05,0l.11,0s0,0-.05,0h0s-.06,0-.07,0"/><path class="cls-1" d="M3.35,5.86h0s0,0,0,0,0,0,0,0"/><path class="cls-1" d="M3.37,5.89h0"/><path class="cls-1" d="M3.42,5.9s0,0,0,0a0,0,0,0,1,0,0"/><path class="cls-1" d="M3.19,6.15a0,0,0,0,1,0,0s0,0,0,0"/><path class="cls-1" d="M3.13,6.14s0,0,0,0"/><path class="cls-1" d="M3.14,6.16s0,0,0,0h0"/><path class="cls-1" d="M1.48,12.6s0,0,0,0,0,0,0,0"/><path class="cls-1" d="M1.48,12.6s0,0,0,0,0,0,0,0"/><path class="cls-1" d="M2.64,6s0,0,0,0h0"/><path class="cls-1" d="M2.93,6.21s.07,0,.08,0l.05,0s0,0,0,0L3,6.24s0,0,0,0"/><path class="cls-1" d="M2.78,6.26s0,0,0,0,0,0,0,0L2.51,6.1s0,0,0,0l0,0a.82.82,0,0,0,.24.15"/><path class="cls-1" d="M2.8,6.3s0,0,0,0h0"/><path class="cls-1" d="M2.06,5.74s0,0,0,0,0,0,0,0"/><path class="cls-1" d="M2.87,6.54h0"/><path class="cls-1" d="M1.74,13s0,0,0,0,0,0,0,0"/><path class="cls-1" d="M2.1,6.27c.06,0,0,0,0,0"/><path class="cls-1" d="M2.05,6.25h0"/><path class="cls-1" d="M2,6.22H2s0,0,0,0"/><path class="cls-1" d="M2.09,13.05s0,0,0,0,0,0,0,0"/><path class="cls-1" d="M1.62,6h0a.15.15,0,0,0,.06.1.76.76,0,0,0,.11.14s0,.07,0,0l-.06-.07s0,0-.05,0L1.64,6s0,0,0,0"/><path class="cls-1" d="M1.87,6.27s0,0,0,0,0,0,0,0"/><path class="cls-1" d="M1.57,6s0,0,0,0,0,0,0,0"/><path class="cls-1" d="M1.43,5.75s0,.08,0,0"/><path class="cls-1" d="M1.36,5.7s0,0,0,0l0,0s0,0,0,0Z"/><path class="cls-1" d="M2.28,13.19s0,0,0,0,0,0,0,0"/><path class="cls-1" d="M1.2,5.32s0,0-.05-.05,0,0,.05.05"/><path class="cls-1" d="M2.18,13.38s0,0,0,0v0"/><path class="cls-1" d="M2.19,13.36v0h0s0,0,0,0Z"/><path class="cls-1" d="M2.49,13.12s0,0,0,0Z"/><path class="cls-1" d="M2.29,13.41v0s0,0,0,0"/><path class="cls-1" d="M2.39,13.31s0,0,0,0"/><path class="cls-1" d="M1,4.23s0,0,0,0Z"/><path class="cls-1" d="M2.32,13.4s0,0,0,0,0,0,0,0"/><path class="cls-1" d="M2.38,13.36s0,0,0,0,0-.06,0,0"/><path class="cls-1" d="M2.67,13.13h0s0,0,0,0"/><path class="cls-1" d="M1,5.47l0-.15s0,0,0,.07,0,.09,0,.08"/><path class="cls-1" d="M2.73,13.11v0s0,0,0,0"/><path class="cls-1" d="M1.19,6s0,0,0,0-.07,0-.09-.08,0,0,0,0,0,0,0,0,0,0,0,0A.23.23,0,0,1,1.19,6"/><path class="cls-1" d="M5.08,10s0,0,0,0,0,0,0,0"/><path class="cls-1" d="M5.1,9.94s0,0,0,0h0"/><path class="cls-1" d="M.88,4.94c0-.06,0,0,0,0"/><path class="cls-1" d="M1.06,5.8s0,0,0,0,0,0,0,0"/><path class="cls-1" d="M5.26,9.63s0-.05,0,0Z"/><path class="cls-1" d="M5.4,9.3a0,0,0,0,1,0,0s0,0,0,0"/><path class="cls-1" d="M5.42,9.26s0,0,0,0,0,0,0,0"/><path class="cls-1" d="M5.46,9.2s0,0,0,0,0,0,0,0"/><path class="cls-1" d="M5.47,9.14h0"/><path class="cls-1" d="M5.49,9.11s0,0,0,0"/><path class="cls-1" d="M6.22,4.61s0,0,0,0,0,0,0,0"/><path class="cls-1" d="M6.21,4.55h0"/><path class="cls-1" d="M.88,4.94S.87,5,.87,5s0-.08,0-.16a0,0,0,0,0,0,0s0,.07,0,.13,0,0,0,0"/><path class="cls-1" d="M5.46,9.18s0,0,0,0,0,0,0,0"/><path class="cls-1" d="M5.49,9.11s0,0,0,0"/><path class="cls-1" d="M.9,5.33s0,0,0,0,0,0,0,0"/><path class="cls-1" d="M.88,5.26s0,0,0,0,0,0,0,0"/><path class="cls-1" d="M2.82,13.13s0,0,0,0,0,0,0,0"/><path class="cls-1" d="M.9,4.19s0,0,0-.05,0,0,0,.05"/><path class="cls-1" d="M.8,4.94h0c0,.19.07.36.08.52,0,0,0,0,0-.09s0,0,0-.07A3.31,3.31,0,0,1,.8,5Z"/><path class="cls-1" d="M2.79,13.19s0,0,0,0,0,0,0,0"/><path class="cls-1" d="M.81,4.94v-.1a.11.11,0,0,0,0,.1s-.05,0,0-.06,0-.06,0-.09,0,0,0,0a.2.2,0,0,1,0,.15"/><path class="cls-1" d="M2.42,13.52s0,0,0,0v0"/><path class="cls-1" d="M6,8S6,8,6,8,6,8,6,8"/><path class="cls-1" d="M6.41,6.06s0,0,0,0h0"/><path class="cls-1" d="M5.53,3.06s0,0,0,0h0"/><path class="cls-1" d="M5.31,2.82s-.08-.07-.12-.09.11,0,.12.09"/><path class="cls-1" d="M5.18,2.7h0s0,0,0,0"/><path class="cls-1" d="M6.14,7.5s0,0,0,0,0,0,0,0"/><path class="cls-1" d="M6.15,7.44s0-.05,0,0,0,0,0,0"/><path class="cls-1" d="M6.17,7.4s0-.05,0-.07,0-.13,0-.18,0,0,0,0l0,.09s0,0,0,.06,0,0,0,.06"/><path class="cls-1" d="M6.23,7.11V7.06s0,0,0,0,0,0,0,0"/><path class="cls-1" d="M6.25,7h0s0,.05,0,0"/><path class="cls-1" d="M6.28,6.94s0,0,0,0v0s0,0,0,0Z"/><path class="cls-1" d="M6.43,5.9s0,0,0,0,0,0,0,0"/><path class="cls-1" d="M6.43,5.85s0,0,0,0,0,0,0,0"/><path class="cls-1" d="M6.43,5.74s0,0,0,0v0s0,0,0,0Z"/><path class="cls-1" d="M6.43,5.64s0,0,0,0,0,0,0,0"/><path class="cls-1" d="M6.43,5.58h0s0,0,0,0"/><path class="cls-1" d="M6.43,5.43s0,0,0,0,0,0,0,0"/><path class="cls-1" d="M5.44,3l0,0,0,0,0,0s0,.07,0,0"/><path class="cls-1" d="M2.6,13.4h0"/><path class="cls-1" d="M5.86,3.48s0,.08.08.11L6,3.72s0,0,0,0l0-.07s0-.07-.07-.12Z"/><path class="cls-1" d="M5.86,3.48s0,0,0,0Z"/><path class="cls-1" d="M5.85,3.47s0,0,0-.07,0,.05.06.07Z"/><path class="cls-1" d="M5.76,3.33s0,0,0-.05,0,0,0,0,0,0,0,.06"/><path class="cls-1" d="M4.12,11.83s0,0,0,0h0"/><path class="cls-1" d="M4.26,11.64a0,0,0,0,1,0,0s0,0,0,0"/><path class="cls-1" d="M4.3,11.58h0"/><path class="cls-1" d="M4.31,11.57s0,0,0,0,0,0,0,0"/><path class="cls-1" d="M6.32,7.14v0a4.48,4.48,0,0,0,.1-.55s0,0,0,0l0,.09c0,.07,0,.08,0,.14l0,.1a4.2,4.2,0,0,1-.08.47s0,0,0,0,0,.2,0,.32,0,0,0,0,0,0,0,0l0-.15s0,0,0,0,0,0,0,0,0,0,0,0,0,.06,0,.06,0,0,0,0,0,0,0,0a.11.11,0,0,1,0,.07s0,0,0,0,0,0,0,0,0-.06,0-.09,0,0,0,0,0-.09.05-.12,0-.06,0-.11,0,.08,0,.12,0,0,0,0l0-.05a.05.05,0,0,1,0,0s0-.07,0-.12a0,0,0,0,0,0,0"/><path class="cls-1" d="M6.26,7.25s0,0,0,0v0s0,0,0,0Z"/><path class="cls-1" d="M3.81,12.25s0,0,0,0v0"/><path class="cls-1" d="M4,12H4"/><path class="cls-1" d="M4.79,10.84s0,0,0,0,0,0,0,0"/><path class="cls-1" d="M5.72,8.91s0,0,0,0,0,0,0,0"/><path class="cls-1" d="M5.78,8.75h0"/><path class="cls-1" d="M5.78,8.72h0s0,0,0,0"/><path class="cls-1" d="M5.8,8.65s0,0,0,0"/><path class="cls-1" d="M6.07,7.93s0,0,0,0,0,0,0,0"/><path class="cls-1" d="M6.07,7.93a1.71,1.71,0,0,1,.07-.26s0,0,0,.07,0,0,0,0a.15.15,0,0,1,0,.07s0,0,0,0,0,.06,0,0"/><path class="cls-1" d="M.81,4.16s0,0,0,0,0,0,0,0"/><path class="cls-1" d="M4.13,11.85s0,0,0,0,0,0,0,0"/><path class="cls-1" d="M6,8.05s0,0,0,0v.05H6v0s0,0,0,0Z"/><path class="cls-1" d="M6.05,8h0"/><path class="cls-1" d="M6.06,8h0"/><path class="cls-1" d="M6.32,7.14l0,.14s0,0,0,0l0-.06s0-.06,0,0"/><path class="cls-1" d="M6.43,6.48s0,0,0,0v0s0,0,0,0v0a0,0,0,0,1,0,0"/><path class="cls-1" d="M2.65,13.45s0,0,0,0-.05,0,0,0h0s0,0,0,0,0-.06.06-.08,0-.06,0-.05"/><path class="cls-1" d="M5,10.6s0,0,0,0,0,0,0,0"/><path class="cls-1" d="M5,10.53s0-.11.09-.17,0,.08-.05.13H5s0,0,0,.06,0,0,0,0,0,.05,0,0"/><path class="cls-1" d="M5.08,10.35h0"/><path class="cls-1" d="M5.08,10.35s0,0,0-.08,0,.06,0,.07a0,0,0,0,1,0,0Z"/><path class="cls-1" d="M6,8.25s0,0,0,0,0,0,0,0"/><path class="cls-1" d="M6.5,5.8V5.71h0s0,0,0,.09Z"/><path class="cls-1" d="M.78,4.17s0,0,0,0,0,0,0,0"/><path class="cls-1" d="M.77,5.42s0,0,0,0v0"/><path class="cls-1" d="M4.14,11.89s0,0,0,0h0s0,0,0,0"/><path class="cls-1" d="M4.17,11.84s0,0,0,0,0,0,0,0"/><path class="cls-1" d="M5,10.55l0,0s0,0,0,.06,0,0,0,0,0,0,0,0a0,0,0,0,1,0,0"/><path class="cls-1" d="M5.15,10.25s0,0,0,0h0"/><path class="cls-1" d="M5.35,9.86s0,0,0,.06a0,0,0,0,1,0,0s0,0,0,.05,0,0,0,0,0,0,0,0,0,0,0,0a.36.36,0,0,0,.07-.1"/><path class="cls-1" d="M6,8.31v0s0,0,0,0,0,0,0,0"/><path class="cls-1" d="M6,8.18v0s0,0,0,0"/><path class="cls-1" d="M6.51,5.71s0,0,0,0"/><path class="cls-1" d="M6.53,5.58h0"/><path class="cls-1" d="M6.52,5.51s0,0,0,0v0s0,0,0,0Z"/><path class="cls-1" d="M6.52,5.41s0,0,0,0,0,0,0,0"/><path class="cls-1" d="M6.51,5.32s0-.07,0-.06,0,0,0,.06"/><path class="cls-1" d="M.75,4.35c-.05,0,0-.08,0-.13s0,0,0,0,0,0,0,.09"/><path class="cls-1" d="M4.21,11.81a0,0,0,0,1,0,0s0,0,0,0"/><path class="cls-1" d="M4.23,11.78a0,0,0,0,1,0,0s0,0,0,0"/><path class="cls-1" d="M4.77,11a0,0,0,0,1,0,0,0,0,0,0,1,0,0"/><path class="cls-1" d="M4.84,10.84s0,0,0,0,0,0,0,0"/><path class="cls-1" d="M4.85,10.82s0,0,0,0a0,0,0,0,1,0,0"/><path class="cls-1" d="M4.88,10.77s0,0,0,0,0,0,0,0"/><path class="cls-1" d="M4.89,10.76s0,0,0,0,0,0,0,0"/><path class="cls-1" d="M4.94,10.67h0"/><path class="cls-1" d="M5.37,9.83s0,0,0,0,0,0,0,0"/><path class="cls-1" d="M5.59,9.3s0,0,0,0v0Z"/><path class="cls-1" d="M5.66,9.18h0s0,0,0,0"/><path class="cls-1" d="M5.69,9.1s0,0,0,0,0,0,0,0"/><path class="cls-1" d="M6.29,4.17s0,0,0,0h0"/><path class="cls-1" d="M6.09,3.71s0,0,0,0h0"/><path class="cls-1" d="M4.81,10.92s0,0,0,0v0"/><path class="cls-1" d="M5,10.56a0,0,0,0,1,0,0s0,0,0,0"/><path class="cls-1" d="M5.55,9.47h0"/><path class="cls-1" d="M5.63,9.27a0,0,0,0,1,0,0v0s0,0,0,0Z"/><path class="cls-1" d="M6.09,8s0,0,0,0,0,0,0,0"/><path class="cls-1" d="M6.1,8h0s0,0,0,0"/><path class="cls-1" d="M6.23,4s0,0,0,0,0,0,0,0"/><path class="cls-1" d="M6,8.24v0s0,0,0,0"/><path class="cls-1" d="M6,8.22H6"/><path class="cls-1" d="M6.08,8.12s0,0,0,0,0,0,0,0"/><path class="cls-1" d="M6.4,4.4v0s0,0,0,0"/><path class="cls-1" d="M6.3,4.13s0,0,0,.06,0,0,0-.06"/><path class="cls-1" d="M6.29,4.11l0,0s0,0,0,0"/><path class="cls-1" d="M.75,4.12s0,0,0,0,0,0,0,0"/><path class="cls-1" d="M.69,4.47s0,0,0,.06,0-.08,0-.06"/><path class="cls-1" d="M.66,4.71s0,0,0,0v0s0,0,0,0Z"/><path class="cls-1" d="M4.89,10.83c0,.05,0,0,0,0"/><path class="cls-1" d="M6.1,8.16h0m.12-.31s0,0,0-.06a.07.07,0,0,1,0,.07.24.24,0,0,1,0,.14s0,0,0,0,0,.06,0,.09,0,0,0,0,0,0,0,0,0,0,0,0,0,0,0,0,0,0,0,0l0,.14s0,0,0,0a.09.09,0,0,0,0,.06s0,.05,0,.06,0-.08.06-.1.05-.1,0-.16a.19.19,0,0,0,0-.13s0-.06,0-.1a0,0,0,0,1,0,0,.79.79,0,0,1,0-.09s0,0,0,0,0,0,0,0h0Z"/><path class="cls-1" d="M6.47,4.69h0s0,0,0,0"/><path class="cls-1" d="M6.46,4.63s0,0,0,0,0,0,0,0"/><polygon class="cls-1" points="6.43 4.59 6.43 4.57 6.45 4.56 6.46 4.58 6.43 4.59"/><path class="cls-1" d="M6.4,4.4s0,0,0,0,0,0,0,0Z"/><path class="cls-1" d="M5.92,3.35s0,0,0,0a0,0,0,0,1,0,0"/><path class="cls-1" d="M5.64,3h0s0,0,0,0"/><path class="cls-1" d="M5.39,2.71h0a.34.34,0,0,0-.12-.12s0,0-.06-.06a.11.11,0,0,1,.09,0c.05,0,.09.1.13.13h0l0,.06.06,0v0s0,0,0,.06-.09-.08-.12-.12l-.09,0"/><path class="cls-1" d="M.65,4.42s0,0,0,0l0,0s0,0,0,0a.44.44,0,0,1,0-.15c0,.06,0-.06.06,0s0,.12,0,.2,0-.08,0-.13h0v0l0,.07s0,.06,0,0Z"/><path class="cls-1" d="M4.89,10.83h0"/><path class="cls-1" d="M6,8.51s0,0,0,.06a2.13,2.13,0,0,0-.09.3s0,0,0,0,0,0,0,.05-.07.22-.12.33,0,0,0-.05,0,0,0,0a0,0,0,0,1,0,0h0s0,0,0,0,0,0,0,0V9a0,0,0,0,0,0,0,1.32,1.32,0,0,0,.13-.29s0,0,0-.06Z"/><path class="cls-1" d="M6.14,8h0"/><path class="cls-1" d="M6.21,7.79s0,0,0,0,0,0,0,0"/><path class="cls-1" d="M6.51,4.82s0,0,0,0,0,0,0,0"/><path class="cls-1" d="M6.39,4.34h0"/><path class="cls-1" d="M6.22,3.88s0-.06,0-.06,0,0,0,0,0,0,0,0,0,0,0,0,0,0,0,0"/><path class="cls-1" d="M6,3.52H6s0,0,0,0"/><path class="cls-1" d="M5.88,3.26s0,0,0,0v0"/><path class="cls-1" d="M.89,3.61s0,0,0,0,0,0,0,0"/><path class="cls-1" d="M.85,3.71a0,0,0,0,1,0,0s0,0,0,0"/><path class="cls-1" d="M6,8.36s0,0,0,0H6Z"/><path class="cls-1" d="M6.16,3.72s0,0,0,0a0,0,0,0,1,0,0"/><path class="cls-1" d="M6.12,3.65s0,0,0,0,0,0,0,0"/><path class="cls-1" d="M5.65,2.93s0,.07.1.08,0,.06,0,.08,0,0-.06,0L5.66,3s0,0,0,0"/><path class="cls-1" d="M5.63,2.93s0,0,0,0,.06,0,0,0"/><path class="cls-1" d="M2.56,1.93s.07,0,.14,0-.12.05-.14,0"/><path class="cls-1" d="M1,3.31s0,0,0,.09,0-.07,0-.1Z"/><path class="cls-1" d="M.89,3.58a0,0,0,0,1,0,0s0,0,0,0"/><path class="cls-1" d="M4.5,11.51s0,0,0,0a0,0,0,0,1,0,0"/><path class="cls-1" d="M4.59,11.38s0,0,0,0v0l0,0s0,0,0,0l0,0Z"/><path class="cls-1" d="M4.64,11.3s0,0,0-.06l0-.05s0-.07.06-.1,0,0,0,0,0,0,0,.06l-.1.16s0,0,0,0"/><path class="cls-1" d="M5.63,9.42s0,0,0,0,0,0,0,0"/><path class="cls-1" d="M6.34,7.44s0,0,0,0h0"/><path class="cls-1" d="M6,3.36s0,0,0,0l0,0"/><path class="cls-1" d="M6,3.32s0,0,0,0,0,0,0,0"/><path class="cls-1" d="M5.82,3.13h0s0,0,0,0"/><path class="cls-1" d="M3.45,1.79s.08,0,.11,0,0,0-.11,0"/><path class="cls-1" d="M3.4,1.8H3.31s.13,0,.09,0"/><path class="cls-1" d="M3,13.31s0,0,0,0,0,.06,0,0"/><path class="cls-1" d="M5,10.71s0,0,0,0,0,0,0,0,0,0,0,0,0,0,0,0v0H5L4.9,11s0,0,0,0l0,0s0,0,0,0,0,0,0,0,0,0,0,0h0l.09-.16s0,0,0-.06,0,0,0-.06"/><path class="cls-1" d="M5.68,9.37s0,0,0,0l0,0h0v0l0,0s0,0,0,0"/><path class="cls-1" d="M5.71,9.27s0,0,0,0v0"/><path class="cls-1" d="M5.72,9.24h0"/><path class="cls-1" d="M6.45,7s0,.06,0,.09,0,0,0,0,0,0,0-.06"/><path class="cls-1" d="M6.48,6.93s0,0,0,0,0,0,0,0"/><path class="cls-1" d="M6.48,6.84v0a0,0,0,0,1,0,0s0,0,0,0"/><path class="cls-1" d="M6.5,6.77h0s0,0,0,0"/><path class="cls-1" d="M6.55,6.53s0,0,0,0a.1.1,0,0,1,0,.08v.09s0,0,0,0v0l0-.18Z"/><path class="cls-1" d="M6.21,3.77h0s0,0,0,0"/><path class="cls-1" d="M6,3.39s0,0,0,0,0,0,0,0"/><path class="cls-1" d="M3.72,1.8s0,0,0,0,0,0,0,0"/><path class="cls-1" d="M3.66,1.8s0,0-.06,0,0,0,.06,0"/><path class="cls-1" d="M.75,3.9s0,0,0,0a0,0,0,0,1,0,0"/><path class="cls-1" d="M.71,4.06s0,0,0,0"/><path class="cls-1" d="M3,13.29s0,0,0,0a0,0,0,0,1,0,0"/><path class="cls-1" d="M3.08,13.22s0,0,0,0h0"/><path class="cls-1" d="M3.09,13.21v0s0,0,0,0"/><path class="cls-1" d="M3.58,12.73a0,0,0,0,1,0,0s0,0,0,0"/><path class="cls-1" d="M5.09,10.59s0,0,0,0"/><path class="cls-1" d="M5.49,9.79s0,0,0,0l0,0"/><path class="cls-1" d="M5.53,9.74s0,0,0,0V9.67s0,0,0,0l0,0h0"/><path class="cls-1" d="M5.58,9.59s0,0,0,0,0,0,0,0"/><path class="cls-1" d="M5.64,9.49s0,0,0,0l0-.08h0v0l0,0s0,0,0,0"/><path class="cls-1" d="M6.29,7.7s0,0,0,0,0,0,0,0"/><path class="cls-1" d="M6.55,6.53c0-.09,0-.19,0-.29a.69.69,0,0,0,0-.13v0s0,0,0,0V6.2s0,0,0,.06,0,.2,0,.28Z"/><path class="cls-1" d="M6.62,6s0,0,0,0,0,0,0,0"/><path class="cls-1" d="M6.61,6s0,0,0,0,0,0,0,0"/><path class="cls-1" d="M6.34,4.05s0,0,0,0,0,0,0,0"/><path class="cls-1" d="M6.18,3.67a0,0,0,0,1,0,0h0"/><path class="cls-1" d="M6.15,3.65s0,0,0-.08.08.07,0,.08"/><path class="cls-1" d="M3.13,13.19s0,0,0,0,0,0,0,0"/><path class="cls-1" d="M5.11,10.57s0,0,0,0,0,0,0,0"/><path class="cls-1" d="M5.13,10.54h0"/><path class="cls-1" d="M5.16,10.46h0s0,.05,0,0"/><path class="cls-1" d="M5.33,10.16v0"/><path class="cls-1" d="M5.35,10.12s0,0,0,0,0,0,0,0"/><path class="cls-1" d="M5.37,10.08a0,0,0,0,1,0,0s0,0,0,0"/><path class="cls-1" d="M5.42,10h0"/><path class="cls-1" d="M5.45,9.9s0,0,0,0a0,0,0,0,1,0,0"/><path class="cls-1" d="M5.49,9.83h0s0,0,0,0"/><path class="cls-1" d="M5.61,9.56h0"/><path class="cls-1" d="M5.63,9.51h0s0,0,0,0"/><path class="cls-1" d="M6.2,8h0"/><path class="cls-1" d="M6.2,8h0s0,0,0,0"/><path class="cls-1" d="M6.51,4.58s0,0,0,.08a.08.08,0,0,1,0-.08"/><path class="cls-1" d="M6.25,3.8s0,0,0,0,0,0,0,0"/><path class="cls-1" d="M4.71,2.1s0,0,0,0h0"/><path class="cls-1" d="M.66,4.11s0,.07,0,0"/><path class="cls-1" d="M.61,4.4s0,.11,0,.14v.15s0,0,0,.08,0,.26,0,.39,0,0,0,0,0,0,0,0a.51.51,0,0,1,0,.17s0-.07,0-.08,0,0,0,0,0,0,0,0a3.23,3.23,0,0,1,0-.83"/><path class="cls-1" d="M5.6,9.6s0,0,0,0,0,0,0,0"/><path class="cls-1" d="M5.77,9.2s0,0,0,0,0,0,0,0"/><path class="cls-1" d="M5.81,9.11s0,0,0,0,0,0,0,0"/><path class="cls-1" d="M6,8.65s0,0,0,0l0,.05s0,.05,0,.09L5.85,9s0,0,0,0V9h0v0l0,0s0,0,0,0h0s0-.06,0-.08A.39.39,0,0,1,6,8.65"/><path class="cls-1" d="M6.6,4.92s0,0,0,0v0s0,0,0,0Z"/><path class="cls-1" d="M5.05,10.73s0,0,0,0h0"/><path class="cls-1" d="M5.11,10.62s0,0,0,.05,0,0,0-.05"/><path class="cls-1" d="M5.27,10.35s0,.05,0,.08,0,0,0,0,0-.05,0,0"/><path class="cls-1" d="M5.38,10.08h0l0,0s0,0,0,0,0,0,0,0"/><path class="cls-1" d="M5.45,10h0"/><path class="cls-1" d="M5.48,9.9h0"/><path class="cls-1" d="M5.54,9.77s0,0,0,0l0,0s0,0,0,0Z"/><path class="cls-1" d="M5.56,9.69h0v0s0,0,0,0,0,0,0,0"/><path class="cls-1" d="M5.71,9.38s0,0,0,0v0s0,0,0,0Z"/><path class="cls-1" d="M5.84,9.08s0,0,0,0,0,0,0,0"/><path class="cls-1" d="M6,8.6s0,0,0,0v0"/><path class="cls-1" d="M6,8.55v0s0,0,0,0"/><path class="cls-1" d="M6.05,3.37l0,0,0,0,0-.06s0,0,0,.06Z"/><path class="cls-1" d="M6,3.22h0s0,0,0,0"/><path class="cls-1" d="M5.61,2.8l0,0s.06.07,0,0"/><path class="cls-1" d="M5.35,2.52h0s0,0,0,0"/><path class="cls-1" d="M2.23,2l-.1,0s.12-.08.1,0"/><path class="cls-1" d="M2.07,2.08l0,0,0,0-.1.07s0,0,.07-.07Z"/><path class="cls-1" d="M1.2,2.81s0,0,0,.07-.06.06,0,.08,0,.07-.08.13A2.2,2.2,0,0,0,.9,3.4l-.08.18s0-.06,0-.1l.05-.11c0-.07.07-.15.09-.22s.13-.21.21-.32Z"/><path class="cls-1" d="M1.17,6.65s0,0,0,0h0"/><path class="cls-1" d="M5.2,10.46s0,0,0,0"/><path class="cls-1" d="M6.31,7.76s0,0,0,0a0,0,0,0,1,0,0"/><path class="cls-1" d="M6.36,7.61s0,0,0,0a0,0,0,0,1,0,0"/><path class="cls-1" d="M4.83,2.13s0,0,0,0h0"/><path class="cls-1" d="M2.66,1.83s.11,0,.12-.05l.12,0a1.1,1.1,0,0,1-.24.08"/><path class="cls-1" d="M2.58,1.84l0,0s0,0,0,0"/><path class="cls-1" d="M.55,4.58s0,0,0,0,0,0,0,0"/><path class="cls-1" d="M3.58,12.81s0,0,0,0v0"/><path class="cls-1" d="M3.72,12.65v0s0,0,0,0"/><path class="cls-1" d="M4.36,11.86s0,0,0,0,0,0,0,0"/><path class="cls-1" d="M6,8.66s0,0,0,0,0-.06,0,0Z"/><path class="cls-1" d="M6.09,8.5s0,0,0,0,0,0,0,0,0,0,0-.05"/><path class="cls-1" d="M6.27,7.94s0,0,0,0,0,0,0,0"/><path class="cls-1" d="M6.31,7.82a0,0,0,0,1,0,0,0,0,0,0,1,0,0"/><path class="cls-1" d="M6.34,7.73s0-.06,0,0,0,0,0,0"/><path class="cls-1" d="M6.39,7.52v0h0s0,0,0,0"/><path class="cls-1" d="M6.44,7.35v0s0,.06,0,0"/><polygon class="cls-1" points="6.48 7.18 6.48 7.16 6.5 7.17 6.5 7.18 6.48 7.18"/><path class="cls-1" d="M6.5,7.16s0,0,0,0a0,0,0,0,1,0,0"/><path class="cls-1" d="M6.51,7.1h0"/><path class="cls-1" d="M6.52,7.06h0s0,0,0,0"/><path class="cls-1" d="M6.54,7s0,0,0,0v0s0,0,0,0Z"/><path class="cls-1" d="M6.56,6.85s0,0,0,0v0s0,0,0,0,0,.09,0,.12"/><path class="cls-1" d="M6.59,6.71s0,0,0,0h0"/><path class="cls-1" d="M6.62,6.53a0,0,0,0,1,0,0s0,0,0,0"/><path class="cls-1" d="M6.62,6.43v0s0,.07,0,0"/><path class="cls-1" d="M6.64,6.4s0,0,0,0,0,0,0,0"/><path class="cls-1" d="M6.64,6.33v0s0,.06,0,0"/><path class="cls-1" d="M6.68,6h0"/><path class="cls-1" d="M3.75,1.74s0,0-.06,0,0,0,.06,0"/><path class="cls-1" d="M3.24,1.71s0,0-.05,0,0,0,.05,0"/><path class="cls-1" d="M3.17,1.72h0s0,0,0,0"/><path class="cls-1" d="M3.05,1.73s0,0-.07,0,0,0,.07,0"/><path class="cls-1" d="M.52,4.85s-.05,0,0-.06,0-.06,0-.1a2.55,2.55,0,0,1,.06-.51s0,0,0,.06,0,0,0,.06,0,.21,0,.26,0,.06,0,.05,0,.08,0,.08,0,0,0,0,0,.06,0,.11"/><path class="cls-1" d="M.74,5.9S.69,5.84.67,5.79s0,.08.07.11"/><path class="cls-1" d="M3.1,13.3s-.05,0,0,0"/><path class="cls-1" d="M3.29,13.12v0s0,0,0,0"/><path class="cls-1" d="M3.7,12.69v0s0,0,0,0"/><path class="cls-1" d="M4.43,11.77s.05,0,.05-.07,0,0,0,0a.1.1,0,0,1-.05,0"/><path class="cls-1" d="M5.93,8.9s0,0,0,0,0,.05,0,.08,0-.08,0-.12"/><path class="cls-1" d="M6,8.7s0,0,0,0,0,.05,0,0"/><path class="cls-1" d="M6.15,8.33s0,0,0,0,0,0,0,0"/><path class="cls-1" d="M6.17,8.28s0,0,0,0h0Z"/><path class="cls-1" d="M6.18,8.24s0,0,0,0v0s0,0,0,0Z"/><path class="cls-1" d="M6.69,5.4s0,0,0,0,0,0,0,0"/><path class="cls-1" d="M6.69,5.3h0s0,0,0,0"/><path class="cls-1" d="M6.68,5.27h0s0,0,0,0"/><path class="cls-1" d="M6.68,5.22s0,0,0,0,0,0,0,0"/><path class="cls-1" d="M6.67,5.11s0,0,0,0,0,0,0,0"/><path class="cls-1" d="M3.74,12.66s0,0,0,0,0,0,0,0"/><path class="cls-1" d="M3.76,12.65s0-.06,0-.06,0,0,0,0,0,0,0,0"/><path class="cls-1" d="M4.5,11.7h0"/><path class="cls-1" d="M6,8.84H6"/><path class="cls-1" d="M6.12,8.47s0,0,0,0v0"/><path class="cls-1" d="M6.47,4.15s0,0,0,0v0l0-.06s0,0,0,.06Z"/><path class="cls-1" d="M6.39,4V4s0,.08,0,0"/><path class="cls-1" d="M6.32,3.79h0s0,0,0,0"/><path class="cls-1" d="M6.3,3.73s0,0,0,0,0,0,0,0"/><path class="cls-1" d="M6.14,3.44s0,0,0,0l0,0"/><path class="cls-1" d="M6.12,3.4l0,0s0,0,0,0"/><path class="cls-1" d="M6.08,3.33h0s0,0,0,0"/><path class="cls-1" d="M1.33,2.64s0-.07,0-.07,0,.07,0,.07"/><path class="cls-1" d="M1.32,2.65c0,.07-.07,0,0,0"/><path class="cls-1" d="M1.2,2.81s.05,0,0,0"/><path class="cls-1" d="M3.41,13l0,0v0s0,0,0,0"/><path class="cls-1" d="M6.64,4.76s0,0,0,0,0,0,0,0,0,0,0,.07,0-.06,0-.06,0-.06,0-.1"/><path class="cls-1" d="M3.09,13.35h0s0,0,0,0"/><path class="cls-1" d="M3.92,12.5s0-.06.05-.09,0,0,0,0,0,0,0,0,0,0,0,0"/><path class="cls-1" d="M6.7,5a0,0,0,0,1,0,0s0,0,0,0"/><path class="cls-1" d="M6.68,5s0,0,0,0,0,0,0,0"/><path class="cls-1" d="M5.54,2.6s0,0,0,0,0,0,0,0"/><path class="cls-1" d="M5.43,2.5h0"/><path class="cls-1" d="M5.38,2.45s0,0,0,0,0,0,0,0"/><path class="cls-1" d="M5.32,2.4s0,0-.05,0l0,0s0,0,0,0Z"/><path class="cls-1" d="M3.24,1.66s0,0-.05,0,0,0,.05,0"/><path class="cls-1" d="M1.66,2.28s0,0,0,0,0,0,0,0"/><path class="cls-1" d="M1.56,2.36s0,0,0,0,0,0,0,0"/><path class="cls-1" d="M4.34,12s0,0,0,0,0,0,0,0"/><path class="cls-1" d="M5.24,2.32s0,0,0,0l0,0-.06,0L5,2.17s0,0,.06,0l.07.05Z"/><path class="cls-1" d="M5,2.14s0,0,0,0,0,0,0,0"/><path class="cls-1" d="M2.36,1.86l0,0-.1,0s.06,0,.1,0,.16-.05,0,0"/><path class="cls-1" d="M2.1,2,2.05,2s.18-.09.05,0"/><path class="cls-1" d="M.59,4s0-.12,0-.18,0,0,0,.06A.27.27,0,0,1,.59,4"/><path class="cls-1" d="M.58,4s0,0,0,0,0,0,0,0"/><path class="cls-1" d="M.55,4.13s0,0,0,0,0,0,0,0"/><path class="cls-1" d="M4.76,11.4s0,0,0,0"/><path class="cls-1" d="M6.26,8.19s0,0,0,0v0s0,0,0,0Z"/><path class="cls-1" d="M6.27,8.12v0s0,.05,0,0"/><path class="cls-1" d="M6.3,8.08h0"/><path class="cls-1" d="M4.29,1.79s0,0-.06,0,0,0,.06,0"/><path class="cls-1" d="M3.34,13.17s0,0,0,0a0,0,0,0,1,0,0"/><path class="cls-1" d="M6.13,8.59s0,0,0,0,0,0,0,0"/><path class="cls-1" d="M3.22,13.34s0-.06,0-.09a.2.2,0,0,0,.1-.07c0,.05-.06.06,0,.1s-.06,0-.09.06"/><path class="cls-1" d="M1,3S1,3,1,3,1,3,1,3"/><path class="cls-1" d="M.88,3.17s0,0,0,0,0,0,0,0"/><path class="cls-1" d="M.74,3.47s0-.08,0-.13.05-.1.08-.16,0,0,0,0,0,0,0,0l0-.05,0,0s0,0,0,0,0,0,0,.07L.75,3.4s0,0,0,.07"/><path class="cls-1" d="M.71,3.54s0,0,0-.06,0,0,0,.06"/><path class="cls-1" d="M.62,3.75s0,0,0,0,0,0,0,0"/><path class="cls-1" d="M3.11,1.62h-.2L2.7,1.7s.07,0,.1,0l.11,0,.2,0"/><path class="cls-1" d="M2.52,1.74s-.09,0-.13.06l-.12.05s.09-.05.12-.07l.13,0"/><path class="cls-1" d="M1.06,2.83s0,0,0,0,0,0,0,0m0,0h0l.07-.08c0-.06,0,0,0,0L1,2.92S1,3,1,3,1,2.9,1,2.92,1,3,1,3s.09-.11.09-.15"/><path class="cls-1" d="M.66,3.6s0,0,0,0,0,0,0,0"/><path class="cls-1" d="M3.55,1.6h0Z"/><path class="cls-1" d="M3.28,1.59s0,0,0,0,0,0,0,0"/><path class="cls-1" d="M5.08,11h0"/><path class="cls-1" d="M6.28,8.31h0s0,0,0,0"/><path class="cls-1" d="M4.78,1.94s0,0,0,0l-.06,0s0,0,0,0Z"/><path class="cls-1" d="M1.2,2.63s0,0,0,0,0,0,0,0"/><path class="cls-1" d="M1,3s0,0,0,0S1,3,1,3"/><path class="cls-1" d="M3.22,13.34s0,0,0,0"/><path class="cls-1" d="M6.09,8.89h0s0,0,0,0"/><path class="cls-1" d="M6.27,8.34v0s0,0,0,0"/><path class="cls-1" d="M6.4,8V8s0,0,0,0"/><path class="cls-1" d="M6.42,7.94s0,0,0,0l0-.14s0,0,0,.09Z"/><path class="cls-1" d="M6.48,7.74s0,0,0,0v0"/><path class="cls-1" d="M6.49,7.71h0"/><path class="cls-1" d="M6.56,7.46s0,0,0,0"/><path class="cls-1" d="M6.56,7.43v0s0,.06,0,0"/><path class="cls-1" d="M6.58,7.4s0,0,0,0,0,0,0,0"/><path class="cls-1" d="M6.59,7.32s0,0,0,0,0,0,0,0"/><path class="cls-1" d="M6.6,7.31h0s0,0,0,0"/><path class="cls-1" d="M6.61,7.21s0,.06,0,.09,0-.06,0-.09"/><path class="cls-1" d="M6.64,7.14s0,0,0,.06,0,0,0,0,0,0,0,0"/><path class="cls-1" d="M6.64,7.14s0-.06,0-.08,0,0,0,0,0,0,0,0"/><path class="cls-1" d="M6.69,6.91s0,0,0,0,0,0,0,0"/><path class="cls-1" d="M6.78,6.35s0,0,0,.06,0,0,0,0v.1s0,0,0,0v0s0-.07,0-.08a.16.16,0,0,1,0-.07"/><path class="cls-1" d="M6.82,6h0"/><path class="cls-1" d="M6.83,5.8s0,0,0,0,0,0,0,0"/><path class="cls-1" d="M4.38,1.75s0,0,0,0,0,0,0,0"/><path class="cls-1" d="M3.84,1.62c-.07,0,0,0,0,0s0,0,0,0"/><path class="cls-1" d="M1.83,2s0,0,0,0l0,0-.1.07.07-.06Z"/><path class="cls-1" d="M1.6,2.21s0,0,0,0,0,0,0,0"/><path class="cls-1" d="M4,12.56s0,0,0,0,0,0,0,0"/><path class="cls-1" d="M6.51,7.67h0"/><path class="cls-1" d="M6.52,7.65a0,0,0,0,1,0,0v0l0-.06s0,0,0,0v0Z"/><path class="cls-1" d="M6.56,7.51v0s0,0,0,0"/><path class="cls-1" d="M6.8,6.33s0,0,0,0,0,0,0,0"/><path class="cls-1" d="M6.84,5.72s0,0,0,0V5.55s0,0,0,0v.13Z"/><path class="cls-1" d="M6.84,5.51s0,0,0,0v0s0,0,0,0Z"/><path class="cls-1" d="M6.84,5.42s0,0,0,0h0"/><path class="cls-1" d="M6.81,5.29v0s0,.08,0,0"/><path class="cls-1" d="M5.58,2.5s0,0,0,0,0,0,0,0"/><path class="cls-1" d="M4.29,1.71s0,0,0,0,0,0,0,0"/><path class="cls-1" d="M4,1.63s0,0,.09,0,0,0-.09,0"/><path class="cls-1" d="M3.75,1.58s0,0,0,0,0,0,0,0"/><path class="cls-1" d="M3.62,1.57s0,0,0,0"/><path class="cls-1" d="M3.38,1.56s0,0,0,0,0,0,0,0"/><path class="cls-1" d="M.79,3.21s0,0,0,0,0,0,0,0"/><path class="cls-1" d="M3,13.62s0,0,0,0,0,0,0,0"/><path class="cls-1" d="M4.06,12.51h0"/><path class="cls-1" d="M5.19,10.86s0,0,0,0,0,0,0,0"/><path class="cls-1" d="M5.81,9.62h0"/><path class="cls-1" d="M5.82,9.6h0"/><path class="cls-1" d="M6.75,4.67h0"/><path class="cls-1" d="M6.73,4.57s0,0,0,0,0,0,0,0"/><path class="cls-1" d="M6.4,3.62a0,0,0,0,1,0,0l0,0,0-.06s0,0,0,.05Z"/><path class="cls-1" d="M6,2.94S6,3,6,3l.13.19a1.26,1.26,0,0,1,.15.26s0-.07,0,0,0-.07,0-.06A2,2,0,0,0,6,2.94"/><path class="cls-1" d="M4.91,2s0,0-.07,0l-.09,0s0,0,0,0l0,0Z"/><path class="cls-1" d="M4.56,1.8s0,0,0,0,0,0,0,0"/><path class="cls-1" d="M4.37,1.72s0,0-.06,0,0,0,.06,0"/><path class="cls-1" d="M4.23,1.67s0,0,0,0,0,0,0,0"/><path class="cls-1" d="M3.71,1.57s0,0,0,0,0,0,0,0"/><path class="cls-1" d="M3.62,1.57s0,0,0,0"/><path class="cls-1" d="M.59,3.68v0s0-.1,0,0"/><path class="cls-1" d="M5.6,10.1s0,0,0,0h0v0s0,0,0,0Z"/><path class="cls-1" d="M5.64,10h0"/><path class="cls-1" d="M3.13,1.54s0,0,0,0,0,0,0,0"/><path class="cls-1" d="M.63,3.49s0,0,0,0v0s0,0,0,0Z"/><path class="cls-1" d="M3.32,13.4s0,.06-.09,0,0,0,0,0v0a0,0,0,0,1,0,0"/><path class="cls-1" d="M6.48,8a0,0,0,0,1,0,0s0,0,0,0"/><path class="cls-1" d="M6.48,8a0,0,0,0,1,0,0s0,0,0,0"/><path class="cls-1" d="M.35,4.38s0,0,0,0,0,0,0,0"/><path class="cls-1" d="M6.17,8.93s0,0,0,0,0,0,0,0"/><path class="cls-1" d="M3.32,13.4s0,0,0,0"/><path class="cls-1" d="M.46,5.94s0,0,0,0,0,0,0,0"/><path class="cls-1" d="M4.25,12.44h0"/><path class="cls-1" d="M5.71,10.1s0,0,0,0,0,0,0,0"/><path class="cls-1" d="M5.79,9.92h0"/><path class="cls-1" d="M6,9.43H6"/><path class="cls-1" d="M6.4,8.44h0"/><path class="cls-1" d="M4.59,12.5s0,0,0,0h0"/><path class="cls-1" d="M4.74,12.32h0s0,0,0,0"/><path class="cls-1" d="M9.8,10.7s0,0,0,.05a.86.86,0,0,1-.11.29s0,0,0,0,0,0,0,0h0s0,.05,0,.08,0,0,0,0,0,0,0,0,0,0,0,0,0,0,0,0a2,2,0,0,1-.29.6l0,0L9.19,12s0,0,0,0a0,0,0,0,1,0,0,2.82,2.82,0,0,0,.27-.45s0,0,0,0,0,0,0,0,0,0,0,0,0,0,0,0,.06-.08,0-.12,0-.08.06-.12L9.66,11s0,0,0,0a1.19,1.19,0,0,0,.14-.3"/><path class="cls-1" d="M9.82,10.7s0,0,0,0,0,0,0,0"/><path class="cls-1" d="M9.82,10.68a0,0,0,0,1,0,0s0,0,0,0"/><path class="cls-1" d="M9.84,10.6s0,0,0,0"/><path class="cls-1" d="M10.11,9.94h0"/><path class="cls-1" d="M12,4,12,4,12,4"/><path class="cls-1" d="M12.2,4l.07,0,.1,0-.06,0Z"/><path class="cls-1" d="M12.77,3.74l0,0h0l.06,0-.05,0Z"/><path class="cls-1" d="M13,3.64h0"/><path class="cls-1" d="M13,3.62l0,0h0"/><path class="cls-1" d="M10.52,8.72s0,0,0,0v0Z"/><path class="cls-1" d="M10.75,7.71h0s0,0,0,0"/><path class="cls-1" d="M13,3.58h0"/><path class="cls-1" d="M13.07,3.54h0s0,0,0,0"/><polyline class="cls-1" points="13.06 3.55 13.06 3.56 13.06 3.55"/><path class="cls-1" d="M13,3.63h0"/><path class="cls-1" d="M13.34,4.5h0l0,0,0,0,0,0h0l0,0,0,0,0,0v0h0v0l.13.12h.05l0,0"/><path class="cls-1" d="M10.58,8.55s0,0,0,0a0,0,0,0,1,0,0"/><path class="cls-1" d="M10.58,8.53v0s0,0,0,0"/><path class="cls-1" d="M10.6,8.48s0,0,0,0a0,0,0,0,1,0,0"/><path class="cls-1" d="M10.63,8.35v0s0,0,0,0"/><path class="cls-1" d="M10.63,8.31h0"/><path class="cls-1" d="M13.05,3.56h0"/><path class="cls-1" d="M13,3.6h0"/><polyline class="cls-1" points="13.01 3.64 13.01 3.65 13.01 3.64"/><path class="cls-1" d="M13,3.66h0"/><path class="cls-1" d="M13,3.68v.07h0v0s0,0,0,0"/><path class="cls-1" d="M13,3.79v.06h0v0"/><path class="cls-1" d="M13,3.91v0"/><path class="cls-1" d="M13,4V4"/><path class="cls-1" d="M13,4h0"/><path class="cls-1" d="M13,4.12h0"/><polyline class="cls-1" points="12.99 4.13 13 4.13 12.99 4.13"/><path class="cls-1" d="M13,4.17Z"/><path class="cls-1" d="M13,4.19h0"/><path class="cls-1" d="M13,4.22l0,0h0"/><path class="cls-1" d="M13.07,4.25s0,0,0,0h0"/><path class="cls-1" d="M10.67,8.18a0,0,0,0,1,0,0s0,0,0,0"/><path class="cls-1" d="M10.68,8.15h0"/><path class="cls-1" d="M13,4h0s0,0,0,0"/><path class="cls-1" d="M13,4h0l0,.11A.39.39,0,0,1,13,4Z"/><path class="cls-1" d="M13,4.14h0v0h0Z"/><path class="cls-1" d="M13,4.18Z"/><path class="cls-1" d="M13.37,4.52h0Z"/><path class="cls-1" d="M10.91,7.23s0,0,0,.08,0,0,0,0v0a.57.57,0,0,1,0,.14s0,.07,0,.12h0s0,0,0,0v0h0l0,0v.07a.24.24,0,0,0,0,.09v0h0v0s0,0,0,0,0,0,0,.08l0,.05a1.1,1.1,0,0,1,0,.25s0,0,0,0,0,0,0,0h0s0,0,0,0v0c0,.08,0,.16-.06.24l0,.11V8.9a0,0,0,0,0,0,0,.07.07,0,0,0,0,.06s0,0,0,.05a.11.11,0,0,1,0-.05V9a.15.15,0,0,0,0-.09l0-.17a.65.65,0,0,1,0-.2.18.18,0,0,1,0-.11s0,0,0,0v0a.18.18,0,0,0,0-.06c0-.05,0-.09,0-.14s0,0,0,0a1.14,1.14,0,0,0,.06-.25s0,0,0-.06l0-.15a.33.33,0,0,1,0-.14.08.08,0,0,1,0-.07s0,0,0,0h0v0l0,0a0,0,0,0,1,0,0s0,0,0-.06"/><path class="cls-1" d="M11,6.51s0,0,0,0h0"/><path class="cls-1" d="M11,6.47s0,0,0,0"/><path class="cls-1" d="M9.21,12.19h0"/><path class="cls-1" d="M11,6.91s0,0,0,0,0,0,0,0"/><path class="cls-1" d="M11,6.83h0"/><path class="cls-1" d="M11,6.59h0"/><path class="cls-1" d="M11,6.4s0,0,0,0h0"/><path class="cls-1" d="M10.93,7.13s0,0,0-.06,0,0,0,0,0,0,0,0"/><path class="cls-1" d="M11,6.87h0"/><path class="cls-1" d="M11,6.86s0,0,0,0h0"/><path class="cls-1" d="M9.48,11.81s0,0,0,0,0,0,0,0"/><path class="cls-1" d="M9.54,11.71h0s0,0,0,0"/><path class="cls-1" d="M10.48,9.32s0,0,0,0,0,0,0,0"/><path class="cls-1" d="M10.53,9.15s0,0,0,0V9.07s0,0,0,0v.06Z"/><path class="cls-1" d="M12.35,4.15h0"/><path class="cls-1" d="M9.81,3.83s0,0,0,0,0,0,0,0M13,14.25s0,0,0,0,0,0,0,0m.19-.32,0,0s0,0,0,0,0,0,0,0a.67.67,0,0,1,.06-.12s0,.08-.05.11,0,0,0,0,0,0,0,.05l0,0-.14.15s0,0,0-.06.06,0,0-.07,0,0,0,0,0,0,0,0m.09-.25s0,0,0,0a0,0,0,0,1,0,0m0-12.54s0,0,0,0,0,0,0,0m.15,0s0,0,0,0,0,0,0,0M13,14.22s0,0,0,0,0,0,.06-.08,0,0,0,.07,0,0-.05.05M13,1.14s0,0,0,0,0,0,0,0m.24,0s0,0-.05,0,0,0,.05,0m0,12.77a0,0,0,0,1,0,0v0a0,0,0,0,1,0,0Zm-.17.32c.05,0,0,.07,0,.08l-.08.09s0-.05,0-.07.05-.08.09-.1m-.15.22s0,0,0,0a0,0,0,0,1,0,0M10.76,2.14s0,0,0,0,0,0,0,0M11,1.92h0s0,0-.05,0,.07,0,.09,0M12.8,14.5s0,0,0,0l0,0a0,0,0,0,1,0,0Zm1.42-13s-.06,0-.09,0,.06,0,.09,0M10,3.68s0-.07,0-.11,0,.08,0,.11m4.37-2.07s0,0-.09,0,.06,0,.09,0m.08.06s0,0,0,0h0m.15.13-.08-.06s.05,0,.08.06m.12.11s-.05,0,0,0,0,0,0,0m.11.11s0,0,0,0,0,0,0,0m.19.26s0,0,0,0,0,0,0,0m.24.45s0,0,0,0,0,0,0,0m.06.16,0,0s0,0,0,0M10,3.76s0,0,0-.07,0,.1,0,.07m4.75,5.9s0,0,0,0,0,0,0,0m0,0s0,0,0,0m0,.07s0,0,0-.06,0,0,0,.06M13.56,1.31s-.05,0-.08,0,0,0,.08,0m1.87,3.88s0,0,0,0,0,0,0,0m0,.09s0,0,0,0,0,0,0,0m-2.06,8.05s0,0,0,0h0s0,0,0,0m0,0h0s0,.05,0,0m1.36-3.86s0,0,0,.06v.07l0,.14,0,.08v0s0,0,0,0l0-.14s0,0,0,0ZM13.5,13s0,0,0,0,0,0,0,0m-.07.15s0,0,0,.05,0,0,0-.05M11,2.11s0,0,0,.05l0,0s0,0,0,0Zm3.79,7.07s0,0,0,0l0,0m0,.29s0,0,0-.06,0,0,0-.07,0,0,0,0l0,0v0s0,0,0,0l0,.07s0,0,0,0a.05.05,0,0,1,0,0s0,.05,0,0a.06.06,0,0,1,0,.07m-.5,1.76s0,0,0,0l0-.12s0,0,0,0v0l0,.07Zm0,0s0,0,0,0m0,.06s0,0,0,0a0,0,0,0,1,0,0M10.31,3.06v0s0-.1,0,0m.36-.61s0,0,0,0,0,0,0,0m.13-.14s0,0,0-.06,0,0,0,0,0,.07-.07.11m2.53-1s0,0,0,0,0,0,0,0m.37.1,0,0s.18.06,0,0M14.79,9s0,0,0,0,0,0,0,0M10,4.5s0,0,0,0,0,0,0,0m3.24-3.19h-.05s.17,0,.05,0m.32.06-.09,0s.06,0,.1,0ZM10,4.66s0,0,0,0h0m0,0h0c0,.07,0,.11,0,.18s0-.11,0-.15,0-.17,0-.06,0,0,0,0,0,0,0,0,0,0,0,0m.52-1.89s0,0,0,0,0,0,0,0M11,2.13s0,0,0,0,0,0,0,0m.08-.08s-.05,0-.08.06.06-.08.1-.12a2.72,2.72,0,0,1,.32-.25s.05,0,.06,0,.07,0,.06,0a4.24,4.24,0,0,1,.56-.25l.11,0,.06,0s0,0,0,0l-.13,0a1.38,1.38,0,0,1-.31.12,0,0,0,0,0,0,0c-.14.07-.28.16-.4.23s-.09,0-.1.07,0,0,0,0,0,0,0,0,0,0,0,0L11.14,2l0,0,0,0c0,.05-.09.06,0,0m4,5.26s0,0,0,0a.2.2,0,0,1,0,.11s0,0,0,0,0,0,0,0h0s0,0,0-.06m0,.16h0Zm-4.7-4.4v0l0,0s0,0,0-.06,0-.08,0,0m0-.1s0,0,0,0,0,0,0,0m0-.09s0,0,0,.05l0,0s0,0,0,0Zm0,0s0,0,0-.06,0,0,0,.06m.1-.16s.06-.12.07-.17.05-.06.08-.08l.06-.09.16-.16s0,0,0,0l0,0s-.06,0,0,.07a3.48,3.48,0,0,0-.24.27s0,.08-.06.12m.6-.71s0,0,0,0,0,0,0,0m4.07,4.26h0m-.16,1.24-.05.3s0,0,0,0,0,0,0,0h0v0s0,0,0,0a2.33,2.33,0,0,1-.05.28v0a.23.23,0,0,1,0,.07.2.2,0,0,0,0,.11.79.79,0,0,0,0,.13.11.11,0,0,1,0,.06s0,.05,0,.07,0,.07,0,.11a.15.15,0,0,1,0,.06s0,.05,0,0a.73.73,0,0,0,0-.22s0,0,0-.05,0-.11,0-.17a.32.32,0,0,1,0-.14A1.19,1.19,0,0,1,15,8s0,0,0,0,0-.13,0-.24a.43.43,0,0,0,0-.11V7.52s0,0,0,0M10.28,3.24s0-.05,0-.08,0,0,0,.08M10,4.47a.06.06,0,0,1,0,0s0,.07,0,0,0-.12,0-.13A1.22,1.22,0,0,1,10,4s0,0,0,0a2.09,2.09,0,0,1,.08-.49c0-.05,0,0,0,.06s0-.07.05-.1,0,0,0,0,.05-.07,0-.12.06-.15.1-.19,0,0,0,.06,0,0,0,0,0,0,0,.09,0,0,0,0,0,.12,0,.15a.19.19,0,0,1,0,.09s0,0,0,.05,0,0,0,0v.06s0,0,0,0,0,0,0,0l0,.08s0,0,0,0,0,0,0,0,0,0,0,.08a.11.11,0,0,1,0,0c0,.09,0,.13,0,.24a1.08,1.08,0,0,1,0,.31m5.22-1.33s0,0,0,.07,0,0,0-.07m0,.14h0s0,0,0,0m0,.13s0-.07,0-.11.05.08,0,.11m0,0s0,0,0,.08v.07l0,.14s0-.06,0-.09a.06.06,0,0,1,0-.06s-.05-.1,0-.14m0,.34v0s0,0,0,0h0M12.42,1.41h0s0,0,0,0m2.64,5.73s0,0,0,0h0m0,.05s0,0,0,0h0m-.29,1.57h0m0,.2h0V9ZM10.1,4s0,0,0-.09,0,.06,0,.09m0,.78s0-.12,0-.16,0,.09,0,.16m5.31-1a.53.53,0,0,0,0,.13s0,0,0,0,0,0,0,0,0,0,0,0a.2.2,0,0,0,0,.05v.06s0,0,0,0h0v.06c0,.06,0,.07,0,.11s0,.09,0,.14,0,0,0,0h0c0,.1,0,.21,0,.35a.78.78,0,0,1,0,.16s0,0,0,0,0,0,0,0h0c0,.17,0,.36-.07.53,0,0,0,.06,0,.08h0s0,0,0,0a.3.3,0,0,0,0-.14c0-.2,0-.42.07-.63a.09.09,0,0,1,0-.05v0a.21.21,0,0,1,0-.08c0-.08,0-.18,0-.28s0,0,0-.07V4.36s0,0,0,0,0-.06,0-.06,0,0,0-.06,0-.09,0-.13V4s0-.07,0-.07V3.85s0-.06,0-.05m-.19,2.28s0,0,0,0,0,0,0,0M14.47,10s0,0,0,0,0,0,0,0,0,0,0-.07,0-.07,0-.08,0-.08,0-.13,0,0,0,0,0,0,0,0,0,0,0-.06,0-.22.08-.3,0,0,0,0,0,0,0-.05,0,0,0,0,0,0,0,0a.2.2,0,0,1,0-.11s0,0,0,.07,0,0,0,.06,0,.17,0,.24,0,0,0,0-.08.28-.11.47c0,0,0,0,0,0h0s0,0,0,0,0,0,0,0m-.17.53s0,0,0,0l0,0m-.19.63s0,0,0,0h0m-4-6.59s0-.18,0-.27,0,.19,0,.27m4.81-2.14s0,0-.05,0,0,0,.05,0m.43,1.36s0,0,0,0l0,0M15.2,5.9s0,0,0,0,0,0,0,0m0,0h0v0s0,0,0,0Zm0,.1s0,0,0,0,0,0,0,0m-.81,4.36s0,0,0,0,0,0,0,0l0,0s0,0,0,0,0,0,0,0h0s0,0,0,0a0,0,0,0,0,0,0h0s0,0,0,0l0,0s0,0,0,0,0,0,0-.06h0s0,0,0,0a.37.37,0,0,1,0,.15s0,0,0,0a.4.4,0,0,0,0,.13s0,.05,0,.07m-.11-8.62c0-.05.09,0,.14.07l-.14-.07m.15.1s.11.07.15.11a.53.53,0,0,1-.15-.11m.65.9c0-.09-.08-.16-.11-.26s.07.09.09.14.06.12,0,.12m.09.2,0,0s0,0,0,0m0,3.09s0,.07,0,.1,0,.09,0,.12c0,.24-.09.52-.09.77,0,0,0,0,0,0V7c0-.05,0-.06,0-.1a1.8,1.8,0,0,1,0-.22.58.58,0,0,1,0-.18s0,0,0,0,0-.16,0-.24,0-.06,0-.12M15.1,2.83l0,.07s-.07-.06,0-.07m0,.24s0,0,0,0l0-.06s0,.09.07.13.08.34.1.54c0,0,0,0,0-.07V3.53c0-.08,0-.12,0-.18s0-.05,0-.08a.55.55,0,0,1-.08-.2m-5,1.18h0s0,0,0,0M10.59,6s0,0,0,0,0,0,0,0m-.43-1.83a0,0,0,0,1,0,0,.17.17,0,0,1,0-.07s0,.08,0,.12,0,0,0,0m0,.49s0,0,0,0v0s0,0,0,0Zm0-.11s0,0,0,0,0,0,0,0m0-.11s0,0,0,0,0,0,0,0,0,0,0,0,0,0,0,.08,0,0,0,0v.14s0,.14,0,.14a2,2,0,0,1,0-.59c.05,0,0,0,0,.06s0,0,0,.05h0s0,0,0,0m2,10.45s0,0,0,0l0,0s0,0,0,0Zm.06-.17s0,0,0-.07,0,0,0,.05,0,0,0,.06-.09.06-.12.11,0-.07,0-.07a.2.2,0,0,1,0-.08h0s0,0,0,0h0M10.33,5.05s0,0,0,0l0,.06s0,0,0-.06Zm1,1.18s0,0,0,0h0M11.09,6s0,0-.06-.07.12.1.24.17,0,.05.05.07,0,0,.07,0,.06,0,0,0-.21-.12-.3-.2m.87.21h0v0h0Zm-.06,8s0,0-.05.07,0,0,0,0a0,0,0,0,1,0,0h0m-.3.41s0,0,0,0,0,0,0,0M13,6s0,0,0,0,0,0,0,0M11.5,5.7s0,0,0,0l0,0h0Zm.22.12s0,0,0,0h0m.69-.7h0s0,0,0,0m.16-.85.1,0s0,0,0,0,0,0,0,0,0,0,0,0m-.16.1h0m0,0h0m-.14-.46h0m0,0V4m0,.12h0M9.66,13.23l0,0,0,0s0,0,0,0a.08.08,0,0,0-.05.05s0,0,0,0v0s0,0,0,0,0,0,0,0m3.63-8.71h0M9.64,12s0,0,0,0,0,0,0,0m.18-.41s0,0,0,0,0,0,0,0a.14.14,0,0,1,0,.07l-.08.15a.31.31,0,0,1,0,.12s0,0,0-.06l0-.06a.65.65,0,0,1,.13-.28m1.07-3s0,0,0,.06l0,.05s0,0,0,0,0,.09,0,.13a.05.05,0,0,0,0,0s0,.08,0,.1,0,.07,0,.11,0,0,0,0a0,0,0,0,0,0,0s0,0,0,.05,0,0,0-.05l0,0s0-.08,0-.12,0-.16.08-.19a.83.83,0,0,1,.06-.21M13,4.15v0h0v0h0A.36.36,0,0,1,13,4h0c0,.06,0,.07,0,.11h0v0m-1.81,2.7s0,0,0,.05l-.09.51s0,0,0,0V7.23s0,0,0,0,0,0,0,0a2.09,2.09,0,0,1,0-.32m1.9-2.56h0a.21.21,0,0,0,0-.07l0,0h0v0l.05.07s0,0,0,0m-1.7,1.15a.86.86,0,0,1,0,.16v0s0,0,0,0V5.54s0,0,0,0,0,0,0,0h0m0-.71v0s0,0,0,0m1.77.72s-.09,0-.13,0,0,0,0,0,0,0,0,0,0,0,0,0L13,5.42a1.18,1.18,0,0,0-.25,0c0-.06,0,0-.05-.1s0,0,0,0,0,0,0,0-.07,0-.07,0,.06,0,.09,0,0,0,0,0,.1,0,.15,0A.16.16,0,0,1,13,5.14s0,0,0-.06.1,0,.14-.08,0,0,0-.06,0,0,0,0l.06,0s0,0,0,0l0,0s0,0,0,0a1.74,1.74,0,0,1-.41.16s0,0,0,0-.06,0-.09,0,0,0,0,0h-.05s0,0,0,0-.05,0-.06,0,.1,0,.13-.05l.07,0s0,0,0,0,0,0,0,0,0,0,0,0,.1-.05.14-.08.12-.05.19-.11,0,0,0,0l.07-.07,0,0s.05,0,0,0l-.28.11s-.06,0-.08-.06h0s0,0,0,0,.05,0,.08,0,0-.05,0-.06l.07,0s0,0,0,0,0,0,0,0-.17,0-.24,0l0,0h0s0,0,0,0l.18-.1a.4.4,0,0,1,.15,0s0,0,0,0,0,0,0,0L13,4.32c0-.05-.05,0-.08,0a0,0,0,0,1-.07,0l0,0s0,0,0,0,.06,0,0,0h-.05s0,0,0,0-.05,0-.07,0,0,0,0,0,0,0,0,0,0,0,0,0a0,0,0,0,1,0,0,0,0,0,0,1,0,0h0s0,0,0,0a0,0,0,0,0-.05,0s0,0-.06,0,0,0,0,0,0,0-.05,0,0,0,0,0,0,0,0,0,.05,0,0,0l-.1,0s0,0,0,0H12.4s0,0-.05,0,0,0,0,0,0,0,0,0h0s0,0,0,.05l0,.07c.06.24,0,.18.06.26v0l-.06-.26v0a.93.93,0,0,1,0-.1l0,0h0a.11.11,0,0,0,0-.06l.05,0s0,0,.08,0,0,0,0,0h0a0,0,0,0,1-.06,0L12.3,4a.44.44,0,0,0,0,.08.44.44,0,0,1,0-.08l0-.08s0,0,0,0,0,0,0,0,0,0,0,0,0,0,0,0l0,0v0l.06.13c-.1-.21-.06-.11,0-.14h0s0,0,0,0h0s0,0,0,0,0,0,0,0,0,0,0,0,0,0,0,0,0,0,0-.06,0,0,0,0h0s0,0,0,0h-.05s0,0,0,0l.06.11s0,0,0,.08.11.25.14.32l0,.07v0a1.85,1.85,0,0,0-.14-.38c0-.08-.09-.19-.17-.32l0-.05h0l0,0h0v0a1.62,1.62,0,0,1,.1.18l.08.15a3.18,3.18,0,0,1,.16.41c0,.1,0,.12.06.26v0h0v0c0-.07,0,0,0,.11a.25.25,0,0,1,0,.07.6.6,0,0,1-.08.13h0l.05,0,.22-.08A2.58,2.58,0,0,1,13,4.53l.33,0H13.2l-.33,0a1.83,1.83,0,0,0-.4.08.61.61,0,0,0-.2.09h0l.06-.09a.26.26,0,0,1-.06.09h0a.82.82,0,0,1,.19-.09l.09,0a2.19,2.19,0,0,1,.34-.06h.33l.15,0h0l0,0h0l0,0,0,0h0l0,0h0l.05,0-.05,0,0,0a.62.62,0,0,1-.14-.14h0a.43.43,0,0,0,0-.07l0,0v0h0v0C13,4.06,13,4,13,4a.64.64,0,0,1,0-.26h0v0a.39.39,0,0,1,.06-.13.73.73,0,0,1-.17.12,1.57,1.57,0,0,1-.34.16c-.11,0-.25.09-.47.15L11.9,4l-.24.06-.27.07h0s0,0,0,0h0s0,0,0,0,.06,0,0,0,0,0,0,0,0,0,0,.07,0,0,0,0v0s0,0,0,0,0,0,0,0h0v.11s0,0,0,0,0,0,0,0a.09.09,0,0,0,0,0s0,0,0,.06,0,0,0,0,0,0,0,0,0,0,0,0,0,.11,0,.15,0,.1,0,.16,0,0,0,0a.3.3,0,0,0,0,.14c0,.06,0,.15,0,.21s0,.26,0,.39,0,0,0,0a3.32,3.32,0,0,1,0,.43l0,.19s0,0,0,0,0,0,0,0,0,0,0,.05v.11s0,.05,0,.09,0,0,0,0,0,0,0,.08h0s0,0,0,0,0,0,0,.08,0,0,0,0,0,0,0,0l0,0a.21.21,0,0,0,0,.08s0,.06,0,.1,0,0,0,0,0,0,0,0,0,0,0,.05v0s0,0,0,0l0,0a.06.06,0,0,1,0,0s0,0,0,0,0,0,0,0,0,0,0,0,0,.15-.05.21,0,0,0,0,0,.07-.05.1,0,0,0,0,0,.17-.05.24,0,0,0,0,0,0,0,0,0,0,0,.05v0s0,0,0,.08,0,0,0,.07,0,.08,0,.11-.06.22-.11.32a.61.61,0,0,1-.08.26.11.11,0,0,1,0,.05s0,.11-.06.15,0,0,0,.06l-.12.4s0,0,0,0c-.06.17-.11.31-.17.46l0,0v0h0s0,0,0,.05,0,0,0,0,0,.08,0,.12a.5.5,0,0,1-.09.23s0,.08,0,.1-.11.19-.15.29,0,0,0,0A3,3,0,0,1,10,11s0,0,0,0,0,0,0,0-.06.12-.08.18-.11.3-.19.41a.31.31,0,0,1-.05.12s0,0,0,0-.05,0,0,0,0,0,0,0,0,.05,0,.08,0,0,0,0,0,0,0,0a.3.3,0,0,1,0,.08l0,0v0s0,0-.05.05a.37.37,0,0,0-.07.14l0,.09a.37.37,0,0,1,0,.15s0,.06,0,.1,0,0,0-.06l0-.05s0,0,0,0a.21.21,0,0,0,0-.06s0,0,0,0l0,0,0,0a.11.11,0,0,1,0,.14s0,0,0,0,0,0,0,0a.13.13,0,0,0,0,.07s0,.08-.06.1a.35.35,0,0,1-.05.13l0,0a0,0,0,0,0,0,0s0,0,0,0,0,0,0,.05,0,0,0,0A.51.51,0,0,1,9.3,13a.44.44,0,0,1-.05.15s0,0,0,0h0a0,0,0,0,1,0,0,1.07,1.07,0,0,1,.14-.16s0,0,0,0,0,0,0,0,0,0,0,0l0,0s0,0,0,.05,0,0,0,0l0,0s0,0,0,0,0,0,0,0L9.44,13s0,0,0,0l0,0a0,0,0,0,0,0,.05s0,0,0,0,0-.06,0-.09,0-.06.07,0,0,.11-.07.16,0,0,0,0v0s0,0,0,0,0,0,0,0-.06.09-.11.14,0,0,0,0,0,0,0,0,.07-.07.12-.14,0,0,0,0,0,0,0,0,0,0,0,0,0,0,0,0,0,0,0,0l0,0h0s0,0,0,0,0,0,0,0,0,0,0,0h0s0,0,0,0,0,0,0,0,0,0,0,0,0,0,0,.08,0,0,0,0,0,0,0,0,.05,0,.08,0,.05,0,.08,0a.07.07,0,0,0,0,.06s0,.05,0,.07l.08.08.06.05s0,0,0,0,0,0,0,0,0,0,0,0,0,0,.05,0,0,0,0,.06l0,.05s0,0,0,.06.08.1.14.14,0,0,.05,0,0,0,0,0h0s0,0,0,0,0-.06.07-.06,0,0,.07.06.07,0,.1.08,0-.08,0-.09,0,.06,0,.1.06,0,.11,0,0,0,0,0,0,0,0,0l0,0s0,0,0,0,0,0,0,0h0s0,0,0,.05,0,0,0,.05,0,0,0,0,0,0,0,0l0,0s0,0,0,0a.11.11,0,0,1,0,.05s0,0,0,0,0,0,0,0,0,0,0,0,0,0,0-.06,0,0,0-.05h.06a.13.13,0,0,1,0,.06s0,0,0,0,0,0,0,.05,0,0,0,.05,0-.05,0-.07,0-.06,0-.05,0,.08,0,.09,0,0,.05,0,.09-.1.15-.1,0,0,0,.05l0,0s0,0,0,0,0,0,0,0,0,0,0,0,0,0,0,0a.41.41,0,0,1,0-.08s0,0,0,0a.37.37,0,0,0,0,.14.08.08,0,0,1-.05,0s0,0,0,.06v0h0s0,0,0,.05-.07.05,0,.08a1.74,1.74,0,0,1,.11-.18s0,0,0,0,0,0,0,0,0,0,0,0,0,0,0,0,0,0,0,0a.07.07,0,0,0,0,.06.18.18,0,0,0,.06-.09s.05,0,.07,0,0,0,0,0,0,0,0-.06,0,0,0,.06,0,0,0,.07,0-.09.06-.11,0,0,0-.06a.06.06,0,0,1,0,.06s0,0,0,0,0,0,0,0,0,.1,0,.14,0,0,0,0S12,15,12,15s.06,0,.06-.06l0,0s0-.05,0,0,0,0,0,.07.05-.11.1-.11,0,.07,0,.1l.06-.09c0-.07.07-.15.09-.22h0s0,0,0,0,0,0,0,0,0,0,0,0,0-.06,0-.05,0,.05,0,.07,0,0,0,0l0-.06s0-.06,0,0,0,0,0,0a0,0,0,0,0,0,0s0-.07,0,0,0-.09,0-.11,0,.06,0,.1a.43.43,0,0,0,0,.05s0,0,0,0l0,0s0,0,0,0,0,0,0,0,0,0,0,0,0-.05,0,0l0,0s0,0,0,0l.1-.1s0-.05.07-.08,0,0,0,0,0-.05,0-.08,0,0,0,0,0,0,0-.08,0,.05,0,0l.06-.09s0,0,0,0,0,0,0-.07a.11.11,0,0,0,0-.07s0,0,.06,0l0-.05s0,0,0,0,0,0,0-.05,0,0,0,0,0-.06,0,0,0,0,.05,0,0,0,0,0,0,0,0,0,0,0,0,0h0a.09.09,0,0,1,0-.06s0,0,0,0,0,0,0-.05,0-.08.07-.13a.16.16,0,0,0,.05-.08s0,0,.05,0,0,0,0,0h0s0,0,0-.06a.28.28,0,0,0,.05-.08s0,0,0,0,0,0,0,0h0s0,0,0,0,0,0,0,0,0,0,0,0,0,0,0-.06a.75.75,0,0,1,.07-.12s0,0,0,0,0-.05.05-.05,0,0,0-.05,0,0,0-.06,0,.06-.06.09a.27.27,0,0,0-.06.12.43.43,0,0,0-.11.21s0,0-.05,0l0,0s0,0,0,0,0,0,0,0,0,.06,0,.1,0,.05-.05.08,0,0,0,0,.11-.15.12-.26a.53.53,0,0,0,.11-.15,1.2,1.2,0,0,1,.09-.21c.06-.06.07-.14.13-.21s0-.07,0-.09,0,0,0-.05l0-.06a.08.08,0,0,1,0,0s0-.05,0,0l0,0,0,.09,0,0s0,0,0,0,0,0,0,0,0,.08-.06.12,0,0-.05.06,0,.07-.07.09,0,0,0,0,0,.07-.08.09,0,0,0,0a.62.62,0,0,1-.08.12s0,0,0,.06a.52.52,0,0,0-.1.18s0,0,0,0,0,0,0,0,0,0,0,0l0,0s0,.05-.07.09,0,.06,0,.06,0,0,0,0,0,0,0,0,0,0,0,0l0,0,0-.08s0,0,0,0a1.1,1.1,0,0,1,.17-.28v0s0,0,0,0l.06-.13s0,0,0,0l0,.07s0,.05,0,0,0,0,0-.07,0,0,0,0,0,0,0,0,0,0,0,0,0-.06.08-.1l.08-.19s0,0,0,0l0-.07s0,0,0,0v0l0,0s0,0,0,0l-.06.1,0,.08,0,0s0,0,0,0a.24.24,0,0,0,.06-.11s0,0,0,0,0,0,0,0,.05-.1.08-.14a1.19,1.19,0,0,0,.08-.16s0,0,0,0,0-.07,0-.07l0-.1,0,0s0,0,0,0,.07-.13.08-.17h0s0,0,0-.05,0,0,0,0,0-.09,0-.12h0s0,0,0,0h0s0,0,0,0v0l0,0c0-.06,0-.16.08-.23l0-.06h0s0,0,0,0l0-.09s0,0,0,0,0,0,0,0,0,0,0,0l.08-.25s0,0,0,0a.26.26,0,0,1,.05-.12s0,0,0,0c.08-.28.16-.55.23-.82l0-.06s0-.05,0,0a1.88,1.88,0,0,1,0,.22s0,0,0,0v0a0,0,0,0,0,0,0v0h0s0-.05,0-.08v0h0s0-.05,0-.08,0,0,0-.05,0-.05,0-.08,0,0,0,0,0,0,0-.06,0,0,0-.05,0,0,0,0h0a.49.49,0,0,0,0-.17.59.59,0,0,0,.06-.2s0-.05,0-.05,0,0,0,.05h0a1.18,1.18,0,0,0,0-.2c-.06,0,0,.07,0,.06a.51.51,0,0,0,0-.17l0,0s0-.05,0-.05,0,.05,0,.07,0,0,0,.06,0,0,0-.06,0-.06,0-.09,0,0,0,0l0-.14s0,0,0,0,0,0,0,0,0,0,0-.07,0-.16.06-.24,0,0,0-.06h0s0,0,0,0,0-.1,0-.14,0,0,0,0,0,0,0,0,0,0,0,0V8s0,0,0,0a0,0,0,0,0,0,0,.07.07,0,0,1,0,0s0,0,0-.09,0-.12,0-.16,0-.07,0-.11,0,0,0-.06h0s0,0,0,0,0,0,0,0a.11.11,0,0,1,0-.08s0-.06,0-.1l0-.21s0-.06,0-.09,0-.09,0-.13h0l0,0c0-.09,0-.21,0-.31s0,0,0,0l0,0s0,0,0,0,0,0,0,0l0-.2s0,0,0-.09,0,0,0,0V6s0,0,0,0,0,0,0,0l0-.19s0,0,0,0,0-.16,0-.21,0,0,0,0,0,0,0-.07V5.32c0-.05,0-.07,0-.12s0-.29,0-.5a.81.81,0,0,0,0-.17s0,0,0,0,0,0,0-.09,0-.09,0-.14,0,0,0-.07,0-.06,0-.07,0-.06,0-.09a1.14,1.14,0,0,0,0-.37s0-.06,0-.09,0-.08,0-.14,0,0,0-.05,0-.07,0-.12v0s0,0,0,0h0v0a.31.31,0,0,1,0-.1s0,0,0-.06,0,0,0,0a.85.85,0,0,1-.06-.13s0,0,0,0l0-.08c-.06,0,0,.06,0,.06a1.84,1.84,0,0,0-.32-.54c-.06-.07-.07-.11-.12-.16s-.13-.14-.21-.19a.67.67,0,0,0-.2-.14,1.27,1.27,0,0,0-.38-.22s0-.05-.08,0-.06,0-.06-.06a1.21,1.21,0,0,1,.41.16,4.47,4.47,0,0,1,.43.3.48.48,0,0,0,.1.12,1.63,1.63,0,0,1,.33.43c0,.05,0,0,.07.1s.11.27.16.33a.65.65,0,0,0,.05.2c0,.06,0,.13.05.18a.24.24,0,0,1,0,.11s0,0,0,.05,0,0,0,0h0s0,0,0,0,0,0,0,0a0,0,0,0,1,0,0h0s0,0,0,0a0,0,0,0,0,0,0v.09a.07.07,0,0,0,0,.05s0,0,0,0,0,.08,0,.12,0,.26,0,.37,0,.08,0,.13,0,.06,0,.06,0,0,0,.07,0,.09,0,.17,0,0,0,0a.92.92,0,0,1,0,.16v.16s0,0,0,0V5.2s0,0,0,0,0,0,0,0v.06s0,0,0,0,0,0,0,.06v0h0s0,.15,0,.19h0s0,0,0,0,0,0,0,0,0,0,0,0,0,0,0,0a.64.64,0,0,0,0,.09s0,0,0,0v0a.07.07,0,0,0,0,0s0,0,0,0h0s0,.08,0,.13,0,0,0,0,0,.07,0,.08,0,0,0,0,0,0,0,0,0,0,0-.07,0,0,0,0,0,0,0,0,0,0,0,0,0-.09,0-.13,0,0,0,0,0-.05,0-.05,0,0,0,0h0c0-.07,0-.13,0-.19a0,0,0,0,1,0,0,.37.37,0,0,1,0-.15c0-.07,0-.2,0-.28s0,0,0-.05,0,0,0-.06,0,0,0-.07l0-.17s0-.06,0-.06,0-.28,0-.38a1.41,1.41,0,0,0,0-.22h0s0,0,0,0a4.68,4.68,0,0,0,0-.55s0,0,0,0a.25.25,0,0,1,0-.17s0,0,0-.05,0-.18,0-.26a4,4,0,0,0-.21-.52s0-.06,0-.09a.13.13,0,0,0,0-.07A2.58,2.58,0,0,0,14.86,2a.7.7,0,0,0-.21-.21l0,0c-.07,0-.11-.09-.19-.15h0c-.06,0,0,0-.13-.1l-.14-.07-.11-.06-.12,0s0,0-.1-.05-.12,0-.17,0-.12,0-.12-.06l.29.09c.09,0,.23.11.29.1a2.26,2.26,0,0,0-.5-.18c-.08,0-.07,0-.15-.05l-.26,0-.26,0a3.88,3.88,0,0,0-.48,0l-.08,0a.44.44,0,0,0-.15.05h-.11a1.35,1.35,0,0,0-.24.08s0,0-.08,0,0,0,0,0h0l-.08,0s0,0,0,0,0,0,0,0-.15.08-.2.08,0,0,0,0a.11.11,0,0,0-.09.06s-.06,0-.07,0,0,.07-.13.11l0,0s0,0,0,0h0c-.07.07,0,0-.08,0s0,0,0,.07-.1.11-.17.1.06,0,0,0A1.59,1.59,0,0,1,10.8,2c0,.09-.19.2-.22.29a.11.11,0,0,0-.06.06,3.33,3.33,0,0,0-.32.54l-.08.17c0,.06,0,.1-.06.11a3,3,0,0,1,.41-.8s0,0,0,0,0,0,0,0a2.75,2.75,0,0,1,.22-.26,1.14,1.14,0,0,1,.12-.14s.05-.05.06,0,.09-.07.08-.1a3.78,3.78,0,0,0-.4.4s0,0-.05,0a2.75,2.75,0,0,0-.19.28c0,.14-.21.32-.23.49a2,2,0,0,0-.14.38s0-.14.08-.14-.06.14-.08.22a.22.22,0,0,0,0,.08.79.79,0,0,0,0,.09.26.26,0,0,1,0,.07c0,.08,0,.16-.05.25s0,0,0,0,0,.13,0,.12,0-.18,0-.3a.36.36,0,0,1,0-.11l0-.06s0,0,0,0l0,.14,0,0c0,.07,0,.16,0,.25s0,0,0,.08a.35.35,0,0,1,0,.14s0,.12,0,.13,0-.06,0-.08a.07.07,0,0,0,0,0,0,0,0,0,1,0,0V4.1s0-.08,0-.08,0,0,0,.05l0,0c0,.09,0,.12-.05.19h0s0,0,0,0,0,.11,0,.13v-.1c.07,0,0-.09.06-.06a1.45,1.45,0,0,1,0-.28l0-.08s0,0,0,0,0,.08,0,.12,0,.09,0,.14,0,0,0,.08a1.55,1.55,0,0,0,0,.23s0,0,0,0,0,0,0,0,0,.14,0,.16,0-.06,0-.07,0,.06,0,.07,0,0,0,.06,0,0,0,0,0,0,0,0,0,0,0,0,0,0,0,.06,0,0,0,.09,0,0,0,.11,0,0,0,.12a.36.36,0,0,0,0,.16c0,.07,0,.09.05.12S10,5.37,10,5.28s0-.12,0-.2S10,5,10,5,10,5,10,5s0-.1,0-.12v.1s0,.09.08.08,0,0,0,0V4.9s0-.08,0-.09a3.4,3.4,0,0,0,.07.34s0,0,0,0,0,0,0,0,0,0,0,.1,0,.09.06.1-.06-.2-.08-.3l0-.13s0-.07,0-.09,0,.08,0,.07a.24.24,0,0,1,0,.07s0,0,0,0,0,.1,0,.14l.06.17c0,.06,0,.06,0,.1s.05.1.07.14.06.06,0,.07.13.2.21.3,0,0,.06.1a.6.6,0,0,0,.14.14s.08,0,.09,0a.81.81,0,0,1-.14-.2s0-.06-.07-.09a1.45,1.45,0,0,1-.24-.35s0,0,0-.07-.06-.14-.08-.2,0-.05,0-.11l0-.13a1.5,1.5,0,0,0,0-.2s0-.14,0-.15,0,.13.05.21a.49.49,0,0,0,0,.23s.05,0,.06.06a.1.1,0,0,0,0,.09.68.68,0,0,0,0,.15s0,0,0,0a.37.37,0,0,1,.11.11,1.15,1.15,0,0,0,.23.3s.06.08.09.12l.13.11s-.06-.07,0-.05.23.22.35.23c-.13-.06-.12-.11-.21-.17S11,6,11,5.94a1.74,1.74,0,0,0,.83.46s-.1,0-.14-.07-.13,0-.13-.06a1.19,1.19,0,0,1,.22.08.43.43,0,0,1,.11,0s.09,0,0,0l-.11,0s-.1,0-.08,0,.24.1.3.07-.12,0-.1,0l.13,0s.1,0,.11,0l0,0a1.48,1.48,0,0,0,.42,0s0,0,0,0a.52.52,0,0,1-.18,0h-.16s-.14,0-.12,0a2.66,2.66,0,0,0,.55,0s0,0,0,0a2.1,2.1,0,0,0,.24-.06s0,0,.07,0L13.11,6s.07,0,.06,0a.12.12,0,0,1-.08,0s0,0,0,0,0,0,0,0h0s.06,0,0,0-.07,0-.1,0,0,0,0,0a2,2,0,0,0-.32.06c-.14,0-.29,0-.46,0,0,0,0,0,0,0s-.05,0-.07,0,0,0-.07,0L12,6s0,0,0,0-.22-.06-.23-.14a.15.15,0,0,0,.07,0s0,0,0,0,.09,0,.11,0a.11.11,0,0,0,.1,0s0,0,0,0,.11,0,.17,0h.1l.13,0h.09s0,0,.08,0,.07,0,.06,0,0,0-.05,0l-.21,0h-.11s0,0-.07,0h-.09s-.09,0-.09,0l.17,0s0,0,.05,0h.08s0,0,0,0,.12,0,.14,0h-.08s0,0,0,0a1.76,1.76,0,0,1-.23,0l-.09,0s-.07,0-.06,0a.9.9,0,0,0,.28,0c.05,0,.07,0,.12,0a.16.16,0,0,0,.1,0s0,0,0-.07a2.08,2.08,0,0,0,.35-.11,1.74,1.74,0,0,1,.25-.11h0Z"/><path class="cls-1" d="M11,7.1s0,.07,0,.11,0,0,0,0,0-.07,0-.1"/><path class="cls-1" d="M11,7s0,0,0,0,0,0,0,0,0,0,0,0,0,0,0,0"/><path class="cls-1" d="M11,7s0,0,0,0,0,0,0,0"/><path class="cls-1" d="M11.05,6.8s0,0,0,.07,0,0,0,0,0,0,0,0"/><path class="cls-1" d="M11.19,5.81s0,0,0,0h0"/><path class="cls-1" d="M11.2,5.79s0,0,0,0v0s0,0,0,0Z"/><path class="cls-1" d="M11,7.43s0,0,0,0,0,0,0,0"/><path class="cls-1" d="M11,7.38v0h0v0s0,0,0,0Z"/><path class="cls-1" d="M11,7.23h0s0,0,0,0"/><path class="cls-1" d="M11,7.1h0"/><path class="cls-1" d="M11.05,6.89A.14.14,0,0,0,11,7s0,0,0,0,0,0,0,0"/><path class="cls-1" d="M11.07,6.76s0,0,0,0a0,0,0,0,1,0,0"/><path class="cls-1" d="M11.07,6.71s0,0,0,0v0a0,0,0,0,1,0,0Z"/><path class="cls-1" d="M11.08,6.56v0s0,0,0,0,0,0,0,0"/><path class="cls-1" d="M11.15,6.22s0,0,0,0v0s0,0,0,0Z"/><path class="cls-1" d="M11.17,6.07s0,0,0,0V6s0,0,0,0Z"/><path class="cls-1" d="M11.18,6s0,0,0,0V5.88s0,0,0,0V6Z"/><path class="cls-1" d="M11.2,5.87h0"/><path class="cls-1" d="M11.2,5.84s0,0,0,0,0,0,0,0"/><polyline class="cls-1" points="12.27 4.71 12.27 4.71 12.27 4.71"/><path class="cls-1" d="M10.31,10h0"/><path class="cls-1" d="M10.91,7.61v0s0,0,0,0"/><path class="cls-1" d="M10.93,7.59s0,0,0,0V7.5s0,0,0,0Z"/><path class="cls-1" d="M11.33,5s0,0,0,0,0,0,0,0"/><path class="cls-1" d="M11.34,4.93s0,0,0,0V4.8c.05,0,0,0,0,.06s0,.06,0,.07"/><path class="cls-1" d="M11.34,4.79v0s0,0,0,0Z"/><path class="cls-1" d="M11.37,4.39h0s0,0,0,0"/><path class="cls-1" d="M11.39,4.37s0,0,0,0h0"/><path class="cls-1" d="M11.39,4.36a0,0,0,0,1,0,0h0Z"/><path class="cls-1" d="M13,4.53h0"/><path class="cls-1" d="M12.7,4.57l.29,0-.17,0-.12,0"/><path class="cls-1" d="M12.48,4.62l.12,0-.12,0"/><path class="cls-1" d="M12.42,4.63h0s.09,0,0,0"/><path class="cls-1" d="M12.37,4.66h0"/><polyline class="cls-1" points="12.32 4.68 12.32 4.68 12.32 4.68"/><path class="cls-1" d="M11.4,4.3h0"/><path class="cls-1" d="M11.4,4.29h0"/><path class="cls-1" d="M11.4,4.25h0"/><path class="cls-1" d="M11.4,4.24h0"/><path class="cls-1" d="M11.39,4.23h0s0,0,0,0"/><path class="cls-1" d="M13.06,3.55s0,0,0,0h0"/><path class="cls-1" d="M13.22,4.51h0"/><path class="cls-1" d="M12.47,4.62h0"/><path class="cls-1" d="M10.74,8.57h0s0,0,0,0"/><path class="cls-1" d="M10.75,8.54h0"/><path class="cls-1" d="M13.05,3.56h0"/><path class="cls-1" d="M13.31,4.52h0"/><path class="cls-1" d="M13,3.69s0,0,0,0h0"/><path class="cls-1" d="M12.36,4.56h0v0h0Z"/><path class="cls-1" d="M12.38,4.52v0"/><path class="cls-1" d="M9.3,12.51s0,0,0,0"/><path class="cls-1" d="M9.31,12.48s0,0,0,0"/><path class="cls-1" d="M9.3,12.51h0"/><path class="cls-1" d="M12.22,3.56h0s0,0,0,0"/><path class="cls-1" d="M9.41,13.56s0,0,0,0,0,0,0,0"/><path class="cls-1" d="M9.59,13.45h0s0,0,0,0"/><path class="cls-1" d="M12.68,4s0,0,.06,0-.05,0-.06,0"/><path class="cls-1" d="M12.67,5.31h0s0,0,0,0"/><path class="cls-1" d="M12.7,5.31s0,0,0,0v0"/><path class="cls-1" d="M13,5.23s-.09,0-.11.07,0,0,0,0h0s0,0,.05,0"/><path class="cls-1" d="M13,5.21s0,0,0,0,0,0,0,0"/><path class="cls-1" d="M13,5.21s0,0,.05,0,.08,0,.12,0,0,0,0,0,0,0,0,0h0a.19.19,0,0,1-.08,0"/><path class="cls-1" d="M13.2,5.1h0s0,0,0,0v0"/><path class="cls-1" d="M13.23,5.11a0,0,0,0,1,0,0s0,0,0,0"/><path class="cls-1" d="M13.29,5.08s0,0,0,0h0"/><path class="cls-1" d="M13.25,5.42s0,0,0,0,0,0,0,0"/><path class="cls-1" d="M13.2,5.46s0,0,0,0"/><path class="cls-1" d="M13.22,5.46a0,0,0,0,1,0,0,0,0,0,0,1,0,0"/><path class="cls-1" d="M11.05,14.54s0,0,0,0,0,0,0,0"/><path class="cls-1" d="M11.05,14.54s0,0,0,.05,0,0,0-.05"/><path class="cls-1" d="M12.71,5.71s0,0,0,0h0"/><path class="cls-1" d="M13.11,5.65s.06,0,.08,0l0,0s0,0,0,0l-.07,0-.06,0"/><path class="cls-1" d="M13,5.79s0,0,0,0,0,0-.05,0l-.24.05s0,0,0,0h0A1.11,1.11,0,0,0,13,5.79"/><path class="cls-1" d="M13.08,5.8s0,0,0,0,0,0,0,0"/><path class="cls-1" d="M12,6s0,0,0,0,0,0,0,0"/><path class="cls-1" d="M13.3,5.92a0,0,0,0,1,0,0s0,0,0,0"/><path class="cls-1" d="M11.41,14.83s0,0,0,0,0,0,0,0"/><path class="cls-1" d="M12.49,6.32c.08,0,0,0,0,0"/><path class="cls-1" d="M12.43,6.34h0s0,0,0,0"/><path class="cls-1" d="M12.36,6.35h0"/><path class="cls-1" d="M11.79,14.77a0,0,0,0,1,0,0s0,0,0,0"/><path class="cls-1" d="M11.78,6.4h0a.18.18,0,0,0,.14,0l.23,0s.11,0,.05,0l-.12,0H12l-.2,0s-.05,0-.05,0"/><path class="cls-1" d="M12.29,6.48s0,0,0,0,0,0,0,0"/><path class="cls-1" d="M11.74,6.44s0,0,0,0,0,0,0,0"/><path class="cls-1" d="M11.41,6.33s.09.06,0,0"/><path class="cls-1" d="M11.29,6.31s0,0,.06,0l.06,0s0,0-.06,0Z"/><path class="cls-1" d="M12,14.85h0"/><path class="cls-1" d="M10.73,5.86s-.06,0-.09-.06,0,0,.09.06"/><path class="cls-1" d="M12,15.08h0"/><path class="cls-1" d="M12,15.06s0,0,0,0v0s0,0,0,0Z"/><path class="cls-1" d="M12.22,14.7s0,0,0,0Z"/><path class="cls-1" d="M12.07,15.07s0,0,0,0,0,0,0,0"/><path class="cls-1" d="M12.16,14.94s0,0,0,0"/><path class="cls-1" d="M10.14,4.4a0,0,0,0,1,0,0Z"/><path class="cls-1" d="M12.1,15.05s0,0,0,0a0,0,0,0,1,0,0"/><path class="cls-1" d="M12.16,15s0,0,0,0,0-.07,0,0"/><path class="cls-1" d="M12.41,14.64s0,0,0,0h0"/><path class="cls-1" d="M10.66,6.17l-.18-.23s.06,0,.1.1.13.12.08.13"/><path class="cls-1" d="M12.47,14.6s0,0,0,0,0,0,0,0"/><path class="cls-1" d="M11.47,6.73H11.4c-.06,0-.07,0-.16,0h0s0,0-.06,0,0,0,.07,0a.58.58,0,0,1,.19.06"/><path class="cls-1" d="M14.36,10.38s0,0,0,0,0,0,0,0"/><path class="cls-1" d="M14.37,10.34s0,0,0,0h0"/><path class="cls-1" d="M10.16,5.33c0-.09,0,0,0,0"/><path class="cls-1" d="M11.1,6.57s0,0,.07,0,0,0-.07,0"/><path class="cls-1" d="M14.49,9.94s0,0,0,0Z"/><path class="cls-1" d="M14.59,9.53s0,0,0,0,0,0,0,0"/><path class="cls-1" d="M14.6,9.47s0,0,0,0,0,0,0,0"/><path class="cls-1" d="M14.64,9.39s0,0,0,0,0,0,0,0"/><path class="cls-1" d="M14.64,9.32s0,0,0,0h0"/><path class="cls-1" d="M14.65,9.28s0,0,0,0"/><path class="cls-1" d="M15.37,4.54s0,0,0,0v0"/><path class="cls-1" d="M15.38,4.49a0,0,0,0,1,0,0l0,0"/><path class="cls-1" d="M10.16,5.33c0,.07,0,.09,0,.14s0-.11-.09-.24a.08.08,0,0,0,0-.05s0,.12.05.2,0,0,0,0"/><path class="cls-1" d="M14.64,9.37s0,0,0,0h0"/><path class="cls-1" d="M14.65,9.28s0,0,0,0"/><path class="cls-1" d="M10.44,6s0,0,0,0,0,0,0,0"/><path class="cls-1" d="M10.35,5.85s0,0,0,0,0,0,0,0"/><path class="cls-1" d="M12.56,14.58s0,0,0,0a0,0,0,0,1,0,0"/><path class="cls-1" d="M10,4.39s0,0,0-.06,0,0,0,.06"/><path class="cls-1" d="M10.08,5.35h0a2.76,2.76,0,0,0,.47.83c-.05,0-.05-.06-.12-.14s-.06,0-.11-.11a3.5,3.5,0,0,1-.24-.55Z"/><path class="cls-1" d="M12.54,14.66a0,0,0,0,1,0,0s0,0,0,0"/><path class="cls-1" d="M10.09,5.35l0-.16a.29.29,0,0,0,0,.16c0,.08-.06,0-.05-.08s0-.08,0-.13,0,.06,0,0a.54.54,0,0,1,.05.22"/><path class="cls-1" d="M12.23,15.14s0,0,0,0,0,0,0,0"/><path class="cls-1" d="M15,7.91s0,0,0,0a0,0,0,0,1,0,0"/><path class="cls-1" d="M15.31,5.85s0,0,0,0h0"/><path class="cls-1" d="M15.07,2.52s0,0,0,0,0,0,0,0"/><path class="cls-1" d="M14.6,1.9c-.07,0-.21-.17-.31-.23.05,0,.26.16.31.23"/><path class="cls-1" d="M14.25,1.63s0,0,0,0,0,0,0,0"/><path class="cls-1" d="M15.12,7.29s0,0,0-.07,0,0,0,.07"/><path class="cls-1" d="M15.13,7.22s0-.06,0,0,0,0,0,0"/><path class="cls-1" d="M15.13,7.16s0,0,0-.07,0-.14,0-.19,0,0,0,0l0,.09s0,.06,0,.07,0,.05,0,.06"/><path class="cls-1" d="M15.17,6.85h0v0s0,0,0,0,0,0,0,0"/><path class="cls-1" d="M15.18,6.78v0s0,.06,0,0"/><path class="cls-1" d="M15.21,6.68s0,0,0,0v0s0,0,0,0Z"/><path class="cls-1" d="M15.34,5.72h0"/><path class="cls-1" d="M15.34,5.68s0,0,0,0,0,0,0,0"/><path class="cls-1" d="M15.36,5.59s0,0,0,0v0a0,0,0,0,1,0,0Z"/><path class="cls-1" d="M15.37,5.51h0"/><path class="cls-1" d="M15.37,5.45h0s0,0,0,0"/><path class="cls-1" d="M15.39,5.33s0,0,0,0,0,0,0,0"/><path class="cls-1" d="M14.91,2.26l0,0-.07-.09a.39.39,0,0,1,.08.09s.08.14,0,0"/><path class="cls-1" d="M12.39,15h0"/><path class="cls-1" d="M15.36,3.27s0,.1,0,.15l0,.16s0,0,0-.06V3.43s0-.08,0-.15Z"/><path class="cls-1" d="M15.36,3.27s0,0,0,0Z"/><path class="cls-1" d="M15.36,3.26s0,0,0-.1,0,.07,0,.1Z"/><path class="cls-1" d="M15.31,3.05s0-.06,0-.09,0-.06,0,0,0,.06,0,.09"/><path class="cls-1" d="M13.66,12.75s0,0,0,0,0,0,0,0"/><path class="cls-1" d="M13.77,12.49s0,0,0,0,0,0,0,0"/><path class="cls-1" d="M13.8,12.42h0"/><path class="cls-1" d="M13.81,12.4s0,0,0,0,0,0,0,0"/><path class="cls-1" d="M15.26,6.88v0c0-.2.05-.35.07-.54,0,0,0,0,0,0v.08a.66.66,0,0,0,0,.14l0,.1a2.9,2.9,0,0,1,0,.48s0,0,0,0,0,.23,0,.36,0,0,0-.06,0,0,0-.06l0-.17s0,0,0,0,0,0,0-.05,0,.05,0,.05,0,0,0,.07,0,0,0,0,0,0,0,0a.11.11,0,0,1,0,.08s0,0,0,0,0,0,0,0,0-.07,0-.1,0,0,0,0,0-.09,0-.13,0-.07,0-.12,0,.08,0,.13,0,0,0,0V7.05s0,0,0,0,0-.09,0-.13h0"/><path class="cls-1" d="M15.21,7s0,0,0,0V7s0,0,0,0Z"/><path class="cls-1" d="M13.41,13.3s0,0,0,0,0,0,0,0"/><path class="cls-1" d="M13.59,12.93s0,0,0,0,0,0,0,0"/><path class="cls-1" d="M14.18,11.44h0"/><path class="cls-1" d="M14.86,9s0,0,0,0,0,0,0,0"/><path class="cls-1" d="M14.9,8.8s0,0,0,0h0"/><path class="cls-1" d="M14.89,8.76v0s0,.06,0,0"/><path class="cls-1" d="M14.91,8.67s0,0,0,0"/><path class="cls-1" d="M15.09,7.78s0,0,0,0,0,0,0,0"/><path class="cls-1" d="M15.09,7.78c0-.11,0-.18,0-.31s0,.06,0,.08,0,0,0,.06,0,.06,0,.08a.06.06,0,0,0,0,0s0,.07,0,0"/><path class="cls-1" d="M9.9,4.37s0,0,0,0,0,0,0,0"/><path class="cls-1" d="M13.67,12.77s0,0,0,0,0,0,0,0"/><path class="cls-1" d="M15.07,7.93s0,0,0,.05V8s0,0,0,0V8s0,0,0,0Z"/><path class="cls-1" d="M15.09,7.87s0,0,0,0,0,0,0,0"/><path class="cls-1" d="M15.09,7.85s0,0,0,0h0"/><path class="cls-1" d="M15.26,6.88l0,.14s0,0,0,0V6.93s0-.07,0,0"/><path class="cls-1" d="M15.33,6.24s0,0,0,0v0s0,0,0,0V6.24"/><path class="cls-1" d="M12.45,15c.05,0,0,0,0,0s0,0,0,.05,0,0,0,0,0,0,0,.05,0-.07.05-.11,0-.07,0-.06"/><path class="cls-1" d="M14.31,11.13a0,0,0,0,1,0,0s0,0,0,0"/><path class="cls-1" d="M14.33,11s0-.14.07-.22,0,.11,0,.16h0s0,0,0,.06,0,0,0,0,0,.05,0,0"/><path class="cls-1" d="M14.41,10.81h0"/><path class="cls-1" d="M14.41,10.81s0-.07,0-.1,0,.07,0,.08,0,0,0,0Z"/><path class="cls-1" d="M15,8.17s0,0,0,0,0,0,0,0"/><path class="cls-1" d="M15.42,5.64V5.57h0a.08.08,0,0,1,0,.08Z"/><path class="cls-1" d="M9.87,4.39s0,0,0,0,0,0,0,0"/><path class="cls-1" d="M10.39,6.15s0,0,0,0,0,0,0,0"/><path class="cls-1" d="M13.68,12.8s0,0,0,0h0s0,0,0,0"/><path class="cls-1" d="M13.71,12.74s0,0,0,0,0,0,0,0"/><path class="cls-1" d="M14.33,11.06l0,0s0,.05,0,.08,0,0,0,0v-.07"/><path class="cls-1" d="M14.46,10.68h0"/><path class="cls-1" d="M14.62,10.18s0,.05,0,.08l0,0s0,0,0,.05,0,.05,0,0,0,0,0,0,0,0,0,0,0-.1.07-.14"/><path class="cls-1" d="M15,8.24v0s0,0,0,0,0,0,0,0"/><path class="cls-1" d="M15.07,8.08s0,0,0,0,0,0,0,0"/><path class="cls-1" d="M15.44,5.57s0,0,0,0"/><path class="cls-1" d="M15.47,5.47s0,0,0,0h0"/><path class="cls-1" d="M15.47,5.41s0,0,0,0v0a0,0,0,0,1,0,0Z"/><path class="cls-1" d="M15.48,5.33s0,0,0,0,0,0,0,0"/><path class="cls-1" d="M15.49,5.26s0-.07,0,0,0,0,0,0"/><path class="cls-1" d="M9.87,4.6s0-.09,0-.15,0,0,0,0,0,0,0,.1"/><path class="cls-1" d="M13.74,12.7s0,0,0,0,0,0,0,0"/><path class="cls-1" d="M13.76,12.65s0,0,0,0a0,0,0,0,1,0,0"/><path class="cls-1" d="M14.18,11.58h0"/><path class="cls-1" d="M14.24,11.42s0,0,0,0h0"/><path class="cls-1" d="M14.24,11.41s0,0,0,0a0,0,0,0,1,0,0"/><path class="cls-1" d="M14.27,11.34h0s0,0,0,0"/><path class="cls-1" d="M14.27,11.32s0,0,0,0a0,0,0,0,1,0,0"/><path class="cls-1" d="M14.31,11.21a0,0,0,0,1,0,0,0,0,0,0,1,0,0"/><path class="cls-1" d="M14.63,10.14s0,0,0,0,0,0,0,0"/><path class="cls-1" d="M14.78,9.48s0,0,0,0v0Z"/><path class="cls-1" d="M14.83,9.32h0"/><path class="cls-1" d="M14.85,9.22s0,0,0,0,0,0,0,0"/><path class="cls-1" d="M15.56,4.13h0"/><path class="cls-1" d="M15.52,3.6s0,0,0,0,0,0,0,0"/><path class="cls-1" d="M14.21,11.53s0,0,0,0,0,0,0,0"/><path class="cls-1" d="M14.37,11.07s0,0,0,0,0,0,0,0"/><path class="cls-1" d="M14.76,9.68h0"/><path class="cls-1" d="M14.82,9.43s0,0,0,0v0s0,0,0,0Z"/><path class="cls-1" d="M15.13,7.9s0,0,0,0,0,0,0,0"/><path class="cls-1" d="M15.13,7.81h0s0,.06,0,0"/><path class="cls-1" d="M15.55,4l0,0s0,0,0,0"/><path class="cls-1" d="M15.1,8.14h0"/><path class="cls-1" d="M15.1,8.12h0"/><path class="cls-1" d="M15.12,8s0,0,0,0,0,0,0,0"/><path class="cls-1" d="M15.6,4.4v0s0,0,0,0"/><path class="cls-1" d="M15.58,4.1s0,.05,0,.07a.07.07,0,0,1,0-.07"/><path class="cls-1" d="M15.58,4.08s0,0,0,0,0,0,0,0"/><path class="cls-1" d="M9.83,4.34s0,0,0,0a.07.07,0,0,1,0,0"/><path class="cls-1" d="M9.84,4.75s0,0,0,.07,0-.1,0-.07"/><path class="cls-1" d="M9.87,5.05s0,0,0,0v.07s0,0,0,0Z"/><path class="cls-1" d="M14.28,11.4c0,.06,0,0,0,0"/><path class="cls-1" d="M15.15,8h0m.08-.39s0-.05,0-.06a.1.1,0,0,1,0,.09.43.43,0,0,1,0,.16s0,0,0,0,0,.08,0,.12,0,0,0,0,0,0,0,.05,0,0,0,.05,0,0,0,0,0,0,0,0l0,.17,0,0,0,.08s0,.06,0,.07,0-.1.05-.14a1.11,1.11,0,0,0,0-.19.26.26,0,0,0,0-.15s0-.08,0-.13a0,0,0,0,1,0,0,.5.5,0,0,0,0-.12s0,0,0,0,0,0,0,0h0Z"/><path class="cls-1" d="M15.59,4.69s0,0,0,0h0"/><path class="cls-1" d="M15.59,4.64s0,0,0,0,0,0,0,0"/><polygon class="cls-1" points="15.58 4.58 15.58 4.56 15.61 4.56 15.61 4.58 15.58 4.58"/><path class="cls-1" d="M15.6,4.4s0,0,0,0a.05.05,0,0,1,0,0Z"/><path class="cls-1" d="M15.47,3.15a0,0,0,0,1,0,0s0,0,0,0"/><path class="cls-1" d="M15.19,2.43s0,0,0,0,0,0,0,0"/><path class="cls-1" d="M14.67,1.77h0a1.77,1.77,0,0,0-.35-.26.69.69,0,0,0-.17-.1.43.43,0,0,1,.21.09,2.84,2.84,0,0,1,.37.3l0,0,.11.13a1.66,1.66,0,0,1,.13.14s0,0,0,0l.1.14c-.06,0-.17-.22-.25-.3a1.54,1.54,0,0,0-.2-.18"/><path class="cls-1" d="M9.79,4.7s0,0,0,0l0,0a.06.06,0,0,1,0,0s0-.11,0-.16,0-.07,0,0,0,.14,0,.23,0-.09,0-.15,0,0,0,0v.13s0,.07,0,0Z"/><path class="cls-1" d="M14.28,11.4h0"/><path class="cls-1" d="M15.06,8.48s0,0,0,.06a2.2,2.2,0,0,0-.05.37s0,0,0,0,0,0,0,.06-.05.28-.08.41,0,0,0-.05,0,0,0,0,0,0,0,0,0,0,0,0,0,0,0,0,0,0,0,0V9.11s0,0,0,0a2.58,2.58,0,0,0,.1-.38s0,0,0-.06Z"/><path class="cls-1" d="M15.17,7.84h0"/><path class="cls-1" d="M15.22,7.59s0,0,0,0,0,0,0,0"/><path class="cls-1" d="M15.59,4.82s0,0,0,0,0,0,0,0"/><path class="cls-1" d="M15.61,4.33h0s0,0,0,0"/><path class="cls-1" d="M15.59,3.82s0-.08,0-.08,0,0,0-.06,0,0,0,.07,0,0,0,0,0,0,0,0"/><path class="cls-1" d="M15.53,3.38s0,0,0,0,0,0,0,0"/><path class="cls-1" d="M15.45,3s0-.08,0,0V3"/><path class="cls-1" d="M9.89,3.73s0,0,0,0,0,0,0,0"/><path class="cls-1" d="M9.86,3.86s0,0,0,0,0,0,0,0"/><path class="cls-1" d="M15.11,8.29s0,0,0,0v0s0,0,0,0Z"/><path class="cls-1" d="M15.58,3.63s0,0,0,0,0,0,0,0"/><path class="cls-1" d="M15.57,3.54s0,0,0,0h0"/><path class="cls-1" d="M15.2,2.39c.07,0,.07.15.13.21s0,.09.05.14-.05-.07-.07-.11-.05-.11-.08-.17,0,0,0-.07"/><path class="cls-1" d="M15.18,2.37a.9.9,0,0,1,0-.09s.1.12,0,.09"/><path class="cls-1" d="M11,1.83s.05,0,.09-.07-.07.07-.09.07"/><path class="cls-1" d="M10,3.37s0,.06,0,.11,0-.08,0-.11Z"/><path class="cls-1" d="M9.89,3.7s0,0,0,0,0,0,0,0"/><path class="cls-1" d="M14,12.28s0,0,0,0,0,0,0,0"/><path class="cls-1" d="M14.06,12.11s0,0,0,0v0l0-.06a0,0,0,0,1,0,0v0Z"/><path class="cls-1" d="M14.11,12s0-.05,0-.07l0-.07a.43.43,0,0,0,0-.13.06.06,0,0,0,0-.05s0,.05,0,.08a1.31,1.31,0,0,0-.08.21s0,0,0,0"/><path class="cls-1" d="M14.84,9.6s0,0,0,0,0,0,0,0"/><path class="cls-1" d="M15.31,7.19s0,0,0,0h0"/><path class="cls-1" d="M15.51,3.18s0,0,0,0a0,0,0,0,1,0,0"/><path class="cls-1" d="M15.5,3.13s0,0,0,0,0,0,0,0"/><path class="cls-1" d="M15.4,2.82s0,0,0,0,0,0,0,0"/><path class="cls-1" d="M11.61,1.42s.06,0,.08,0,0,0-.08,0"/><path class="cls-1" d="M11.58,1.45a.11.11,0,0,0-.07,0s.08-.07.07,0"/><path class="cls-1" d="M12.73,14.73s0,0,0,0,0,.07,0,0"/><path class="cls-1" d="M14.39,11.23s0,0,0,0l0,0s0,0,0,0,0,0,0,0v0s0,0,0,0l-.07.19s0,0,0,0l0,.05s0,0,0,0,0,0,0,0,0,0,0-.05v0l.07-.19s0-.07,0-.09,0,0,0-.08"/><path class="cls-1" d="M14.88,9.54s0,0,0,0l0-.05h0v.07s0,0,0,0"/><path class="cls-1" d="M14.89,9.41s0,0,0,0,0,0,0,0"/><path class="cls-1" d="M14.9,9.38h0s0,0,0,0"/><path class="cls-1" d="M15.38,6.7s0,.07,0,.1,0,0,0,0,0,0,0-.07"/><path class="cls-1" d="M15.4,6.66s0,0,0,0,0,0,0,0"/><path class="cls-1" d="M15.4,6.57v0s0,0,0,0,0,0,0,0"/><path class="cls-1" d="M15.41,6.51v0s0,.06,0,0"/><path class="cls-1" d="M15.45,6.28s0,0,0,0a.19.19,0,0,1,0,.08v.07s0,0,0,0h0v0l0-.16Z"/><path class="cls-1" d="M15.61,3.7s0,0,0,0,0,0,0,0"/><path class="cls-1" d="M15.53,3.23s0,0,0,0,0,0,0,0"/><path class="cls-1" d="M11.84,1.3s0,0,0,0,0,0,0,0"/><path class="cls-1" d="M11.78,1.33s0,0,0,0,0,0,0,0"/><path class="cls-1" d="M9.79,4.09s0,0,0,0,0,0,0,0"/><path class="cls-1" d="M9.78,4.28s0,0,0,0"/><path class="cls-1" d="M12.78,14.69v0s0,0,0,0"/><path class="cls-1" d="M12.85,14.6s0,0,0,0,0,0,0,0"/><path class="cls-1" d="M12.86,14.57s0,0,0,0,0,0,0,0"/><path class="cls-1" d="M13.26,13.9a0,0,0,0,1,0,0s0,0,0,0"/><path class="cls-1" d="M14.45,11.08s0,.05,0,0"/><path class="cls-1" d="M14.75,10.06s0-.05,0,0,0,0,0,0"/><path class="cls-1" d="M14.77,10h0V9.92s0,0,0,0v0s0,0,0,0"/><path class="cls-1" d="M14.81,9.81s0,0,0,0v0"/><path class="cls-1" d="M14.85,9.69s0,0,0,0l0-.1h0v.07s0,0,0,0"/><path class="cls-1" d="M15.29,7.47h0"/><path class="cls-1" d="M15.45,6.28l0-.26s0-.06,0-.11v0s0,0,0,0V6s0,0,0,0,0,.18,0,.25Z"/><path class="cls-1" d="M15.52,5.84h0"/><path class="cls-1" d="M15.51,5.83l0,0s0,0,0,0"/><path class="cls-1" d="M15.65,4s0,0,0,0,0,0,0,0"/><path class="cls-1" d="M15.61,3.59s0,0,0,0,0,0,0,0"/><path class="cls-1" d="M15.59,3.55a.28.28,0,0,0,0-.09s.05.1,0,.09"/><path class="cls-1" d="M12.9,14.54s0,0,0,0v0"/><path class="cls-1" d="M14.47,11.05a0,0,0,0,1,0,0s0,0,0,0"/><path class="cls-1" d="M14.48,11s0,0,0,0,0,0,0,0"/><path class="cls-1" d="M14.5,10.92v0s0,.06,0,0"/><path class="cls-1" d="M14.63,10.53v0s0,0,0,0"/><path class="cls-1" d="M14.64,10.48s0,0,0,0,0,0,0,0"/><path class="cls-1" d="M14.66,10.42s0,0,0,0,0,0,0,0"/><path class="cls-1" d="M14.7,10.29h0"/><path class="cls-1" d="M14.72,10.2s0,0,0,0v0"/><path class="cls-1" d="M14.75,10.11h0"/><path class="cls-1" d="M14.83,9.77s0,0,0,0h0"/><path class="cls-1" d="M14.85,9.7s0,0,0,0h0"/><path class="cls-1" d="M15.23,7.85h0s0,0,0,0"/><path class="cls-1" d="M15.23,7.81h0s0,.06,0,0"/><path class="cls-1" d="M15.65,4.6s0,.05,0,.08a.11.11,0,0,1,0-.08"/><path class="cls-1" d="M15.64,3.75s0,0,0,0,0,0,0,0"/><path class="cls-1" d="M13.05,1.06h0s0,0,0,0"/><path class="cls-1" d="M9.75,4.35s0,.09,0,0"/><path class="cls-1" d="M9.75,4.68s0,.13,0,.17a1.5,1.5,0,0,0,0,.2c0,.06,0,0,0,.11a3.08,3.08,0,0,0,.2.61s0,.05,0,.05,0,0,0,0,.09.19.15.29S10.11,6,10.11,6s0,0,0,0l0-.06a3.9,3.9,0,0,1-.23-.68,2.1,2.1,0,0,1,0-.53"/><path class="cls-1" d="M14.83,9.82v0s0,0,0,0"/><path class="cls-1" d="M15,9.32h0s0,0,0,0"/><path class="cls-1" d="M15,9.2s0,0,0,0,0,0,0,0"/><path class="cls-1" d="M15.1,8.63s0,0,0,.06v.07s0,.05,0,.11L15,9.12s0,0,0,0v0A.08.08,0,0,1,15,9h0V9l0,0s0,0,0,0h0s0-.07,0-.11a.49.49,0,0,1,0-.16"/><path class="cls-1" d="M15.65,4.93s0,0,0,0v0s0,0,0,0Z"/><path class="cls-1" d="M14.43,11.25s0,0,0,0a0,0,0,0,1,0,0"/><path class="cls-1" d="M14.48,11.1s0,0,0,.06,0,0,0-.06"/><path class="cls-1" d="M14.6,10.76s0,.06,0,.1,0,0,0-.06,0-.06,0,0"/><path class="cls-1" d="M14.67,10.43v0s0,0,0,0,0,.05,0,0"/><path class="cls-1" d="M14.72,10.28h0s0,0,0,0"/><path class="cls-1" d="M14.75,10.19h0"/><path class="cls-1" d="M14.79,10s0,0,0,0v0s0,0,0,0Z"/><path class="cls-1" d="M14.8,9.94v0s0,0,0,0,0,.05,0,0"/><path class="cls-1" d="M14.91,9.54s0,0,0,0v0Z"/><path class="cls-1" d="M15,9.17s0,0,0,0,0,0,0,0"/><path class="cls-1" d="M15.12,8.57s0,0,0,0,0,0,0,0"/><path class="cls-1" d="M15.13,8.51a0,0,0,0,1,0,0s0,0,0,0"/><path class="cls-1" d="M15.58,3.22s0,0,0,0v0l0-.09s0,.06,0,.08Z"/><path class="cls-1" d="M15.53,3s0,0,0,0,0,0,0,0"/><path class="cls-1" d="M15.1,2.12l0-.05s.13.19,0,.05"/><path class="cls-1" d="M14.4,1.44s0,0,0,0,0,0,0,0"/><path class="cls-1" d="M10.81,1.94s0,0-.06,0,.06-.08.06,0"/><path class="cls-1" d="M10.71,2s0,0,0,0l0,0-.06.07s0,0,0-.06Z"/><path class="cls-1" d="M10.12,2.78s0,.06,0,.08-.05.08,0,.1S10,3,10,3.12a2.72,2.72,0,0,0-.11.38l-.06.22a.26.26,0,0,1,0-.12l0-.14c0-.08.06-.18.07-.26a2.87,2.87,0,0,1,.18-.4Z"/><path class="cls-1" d="M12,7.24s0,0,0,0,0,0,0,0"/><path class="cls-1" d="M14.54,10.9s0,0,0,0"/><path class="cls-1" d="M15.32,7.54s0,0,0,0v0"/><path class="cls-1" d="M15.35,7.37h0"/><path class="cls-1" d="M13.22,1s0,0,0,0,0,0,0,0"/><path class="cls-1" d="M11.05,1.72s.06-.06.06-.08l.07-.06s-.07.09-.13.14"/><path class="cls-1" d="M11,1.74s0,0,0,0,0,0,0,0"/><path class="cls-1" d="M9.73,4.91s0,0,0,0,0,0,0,0"/><path class="cls-1" d="M13.28,14s0,0,0,0,0,0,0,0"/><path class="cls-1" d="M13.4,13.76h0"/><path class="cls-1" d="M13.91,12.71s0,0,0,0,0,0,0,0"/><path class="cls-1" d="M15.14,8.64s0,0,0,0,0-.07,0,0Z"/><path class="cls-1" d="M15.18,8.44s0,0,0,0,0,0,0,0,0,0,0-.07"/><path class="cls-1" d="M15.3,7.75h0"/><path class="cls-1" d="M15.32,7.61a0,0,0,0,1,0,0,0,0,0,0,1,0,0"/><path class="cls-1" d="M15.34,7.5s0-.06,0,0,0,0,0,0"/><path class="cls-1" d="M15.37,7.26v0s0,0,0,0,0,0,0,0"/><path class="cls-1" d="M15.4,7.08v0s0,.06,0,0"/><polygon class="cls-1" points="15.42 6.9 15.43 6.88 15.45 6.89 15.45 6.9 15.42 6.9"/><path class="cls-1" d="M15.44,6.88s0,0,0,0a0,0,0,0,1,0,0"/><path class="cls-1" d="M15.45,6.82a0,0,0,0,1,0,0s0,0,0,0"/><path class="cls-1" d="M15.45,6.78h0s0,0,0,0"/><path class="cls-1" d="M15.47,6.69s0,0,0,0v0Z"/><path class="cls-1" d="M15.48,6.58a0,0,0,0,1,0,0v0s0-.06,0-.06,0,.09,0,.12"/><path class="cls-1" d="M15.5,6.45h0"/><path class="cls-1" d="M15.52,6.28h0s0,0,0,0"/><path class="cls-1" d="M15.52,6.19h0s0,.05,0,0"/><path class="cls-1" d="M15.54,6.16s0,0,0,0,0,0,0,0"/><path class="cls-1" d="M15.54,6.1h0s0,0,0,0"/><path class="cls-1" d="M15.58,5.84h0s0,0,0,0"/><path class="cls-1" d="M11.83,1.23s0,0-.05,0,0,0,.05,0"/><path class="cls-1" d="M11.42,1.44s0,0,0,0,0,0,0,0"/><path class="cls-1" d="M11.36,1.47s0,0,0,0,0,0,0,0"/><path class="cls-1" d="M11.28,1.52s0,0,0,0,0,0,0,0"/><path class="cls-1" d="M9.77,5.29s0,0-.06-.09,0-.08,0-.14a2.29,2.29,0,0,1,0-.61s0,0,0,.07,0,0,0,.06,0,.24,0,.31,0,.08,0,.06,0,.1,0,.1,0,0,0,.08,0,.08,0,.16"/><path class="cls-1" d="M10.89,6.84a.38.38,0,0,1-.19-.12s.13.09.19.12"/><path class="cls-1" d="M12.88,14.67c0,.05,0,0,0,0"/><path class="cls-1" d="M13,14.41h0s0,0,0,0"/><path class="cls-1" d="M13.38,13.81s0,0,0,0,0,0,0,0"/><path class="cls-1" d="M14,12.58s0,0,0-.08,0,0,0,0a.07.07,0,0,1,0,.05"/><path class="cls-1" d="M15.07,8.93s0,0,0,.05,0,.07,0,.1,0-.1,0-.15"/><path class="cls-1" d="M15.12,8.69s0,0,0,0,0,.06,0,0"/><path class="cls-1" d="M15.22,8.22h0"/><path class="cls-1" d="M15.24,8.17s0,0,0,0v0s0,0,0,0Z"/><path class="cls-1" d="M15.25,8.11h0v0Z"/><path class="cls-1" d="M15.66,5.35s0,0,0,0,0,0,0,0"/><path class="cls-1" d="M15.67,5.27h0s0,0,0,0"/><path class="cls-1" d="M15.67,5.24s0,0,0,0h0"/><path class="cls-1" d="M15.67,5.21s0,0,0,0,0,0,0,0"/><path class="cls-1" d="M15.68,5.11s0,0,0,0,0,0,0,0"/><path class="cls-1" d="M13.42,13.77s0,0,0,0h0"/><path class="cls-1" d="M13.43,13.75s0-.07,0-.07,0,0,0,0,0,.05,0,.05"/><path class="cls-1" d="M14,12.49a0,0,0,0,1,0,0s0,0,0,0"/><path class="cls-1" d="M15.11,8.86s0,0,0,0v0"/><path class="cls-1" d="M15.2,8.4s0,0,0,0,0,0,0,0"/><path class="cls-1" d="M15.74,4.17s0,0,0,0V4s0,0,0,.07Z"/><path class="cls-1" d="M15.72,4V4s0,.09,0,0"/><path class="cls-1" d="M15.71,3.77h0s0,0,0,0"/><path class="cls-1" d="M15.71,3.69s0,0,0,0,0,0,0,0"/><path class="cls-1" d="M15.65,3.33l0,0a0,0,0,0,1,0,0"/><path class="cls-1" d="M15.64,3.28s0,0,0,0,0,0,0,0"/><path class="cls-1" d="M15.62,3.2s0,0,0,0,0,0,0,0"/><path class="cls-1" d="M10.22,2.59s0-.07,0-.08,0,.08,0,.08"/><path class="cls-1" d="M10.21,2.61c0,.06-.06,0,0,0"/><path class="cls-1" d="M10.12,2.78s0,0,0,0"/><path class="cls-1" d="M13.14,14.26l0,0s0,0,0,0,0,0,0,0"/><path class="cls-1" d="M15.73,4.79s0,0,0,0,0,0,0,0,0,0,0,.07,0-.06,0-.06,0,0,0-.1"/><path class="cls-1" d="M12.89,14.73s0,0,0,0,0,0,0,0"/><path class="cls-1" d="M13.57,13.54s0-.07,0-.11,0,0,0,0,0,0,0,0,0,0,0,.06"/><path class="cls-1" d="M15.72,5.05s0,0,0,0,0,0,0,0"/><path class="cls-1" d="M15.73,5s0,0,0,0,0,0,0,0"/><path class="cls-1" d="M14.84,1.69s0,0-.06,0l.06,0"/><path class="cls-1" d="M14.53,1.44s0,0,0,0h0"/><path class="cls-1" d="M14.38,1.35l-.09-.05s.06,0,.09.05"/><path class="cls-1" d="M14.23,1.26s-.06,0-.09,0l-.09,0s.06,0,.09,0Z"/><path class="cls-1" d="M11.39,1.39s0,0,0,0,0,0,0,0"/><path class="cls-1" d="M10.44,2.23s0,0,0,0,0,0,0,0"/><path class="cls-1" d="M10.38,2.31s0,0,0,0,0,0,0,0"/><path class="cls-1" d="M13.9,12.85s0,0,0,0,0,0,0,0"/><path class="cls-1" d="M14,1.16s0,0-.06,0l-.06,0-.15-.05L13.51,1s.07,0,.11,0l.15,0,.26.1"/><path class="cls-1" d="M13.46,1s-.05,0-.08,0,0,0,.08,0"/><path class="cls-1" d="M10.85,1.79l0,0-.06.05s0,0,.05-.06.1-.07,0,0"/><path class="cls-1" d="M10.7,1.93l0,0s.1-.09,0,0"/><path class="cls-1" d="M9.66,4.26s0-.13,0-.2,0,0,0,.06a.65.65,0,0,1,0,.14"/><path class="cls-1" d="M9.65,4.28s0,0,0,0,0,0,0,0"/><path class="cls-1" d="M9.64,4.4s0,0,0,0h0"/><path class="cls-1" d="M14.24,12.08s-.05,0,0,0"/><path class="cls-1" d="M15.32,8a0,0,0,0,1,0,0V8s0,0,0,0Z"/><path class="cls-1" d="M15.32,8v0s0,.06,0,0"/><path class="cls-1" d="M15.34,7.91h0"/><path class="cls-1" d="M12.36,1s0,0-.06,0,0,0,.06,0"/><path class="cls-1" d="M13.1,14.45s0,0,0,0a0,0,0,0,1,0,0"/><path class="cls-1" d="M15.24,8.53s0,0,0,0h0"/><path class="cls-1" d="M13,14.67s0-.07,0-.11a.21.21,0,0,0,.08-.1s0,.08,0,.11a.39.39,0,0,0-.08.1"/><path class="cls-1" d="M9.92,3s0,0,0,0,0,0,0,0"/><path class="cls-1" d="M9.83,3.25s0,0,0,0,0,0,0,0"/><path class="cls-1" d="M9.73,3.61c-.05,0,0-.09,0-.15l.06-.19s0,0,0,0,0,0,0,0l0-.06,0-.07s0,0,0,.06,0,0,0,.08a1.49,1.49,0,0,0-.09.3s0,0,0,.08"/><path class="cls-1" d="M9.71,3.69s0,0,0-.07a.15.15,0,0,1,0,.07"/><path class="cls-1" d="M9.65,4s0,0,0,0,0,0,0,0"/><path class="cls-1" d="M11.28,1.4s0,0,0,0l0,0-.06.05L11,1.59s0,0,.06-.06l.06,0,.14-.09"/><path class="cls-1" d="M10.91,1.66s-.05.05-.07.07l-.07.07s.05-.05.06-.07Z"/><path class="cls-1" d="M10,2.83s0,0,0,0,0,0,0,0m0,0s0,0,0,0l0-.1c0-.07,0,0,0,0a2.12,2.12,0,0,0-.11.21s0,.05,0,.07,0-.09,0-.07,0,0,0,.05A1.32,1.32,0,0,0,10,2.8"/><path class="cls-1" d="M9.67,3.77s0,0,0,0,0,0,0,0"/><path class="cls-1" d="M11.6,1.21s0,0-.06,0l0,0s0,0,0,0Z"/><path class="cls-1" d="M11.39,1.31s0,0,0,0,0,0,0,0"/><path class="cls-1" d="M14.5,11.52h0"/><path class="cls-1" d="M15.35,8.18s0,0,0,0v0"/><path class="cls-1" d="M13,.88h0Z"/><path class="cls-1" d="M10.09,2.6s0,0,0,0,0,0,0,0"/><path class="cls-1" d="M9.88,3s0,0,0,0,0,0,0,0"/><path class="cls-1" d="M13,14.67s0,0,0,0"/><path class="cls-1" d="M15.22,8.88s0,0,0,0,0,0,0,0"/><path class="cls-1" d="M15.35,8.21h0s0,.06,0,0"/><path class="cls-1" d="M15.43,7.76v0s0,.06,0,0"/><path class="cls-1" d="M15.44,7.72s0,0,0,0l0-.15s0,.05,0,.09Z"/><path class="cls-1" d="M15.48,7.49s0,0,0,0,0,0,0,0"/><path class="cls-1" d="M15.49,7.46s0,0,0,0,0,0,0,0"/><path class="cls-1" d="M15.53,7.18s0,0,0,0"/><path class="cls-1" d="M15.53,7.15v0s0,.06,0,0"/><path class="cls-1" d="M15.54,7.12a0,0,0,0,1,0,0s0,0,0,0"/><path class="cls-1" d="M15.54,7s0,0,0,0l0,0"/><path class="cls-1" d="M15.56,7s0,0,0,0h0"/><path class="cls-1" d="M15.56,6.92s0,.06,0,.09,0-.06,0-.09"/><path class="cls-1" d="M15.58,6.85s0,0,0,.06,0,0,0,0,0,0,0,0"/><path class="cls-1" d="M15.59,6.84s0,0,0-.07,0,0,0,0,0,0,0,0"/><path class="cls-1" d="M15.62,6.63s0,0,0,0,0,0,0,0"/><path class="cls-1" d="M15.67,6.13c.05,0,0,0,0,0s0,0,0,0v.09s0,0,0,0v0s0-.06,0-.07,0,0,0,0"/><path class="cls-1" d="M15.72,5.85s0,0,0,0h0"/><path class="cls-1" d="M15.74,5.68s0,0,0,0,0,0,0,0"/><path class="cls-1" d="M12.43.92h0s0,0,0,0"/><path class="cls-1" d="M11.84,1.09c-.07,0,0,0,0,0s-.05,0,0,0"/><path class="cls-1" d="M10.51,2l0,0,0,0-.06.07s0,0,0-.07Z"/><path class="cls-1" d="M10.37,2.17s0,0,0,0,0,0,0,0"/><path class="cls-1" d="M13.66,13.58s0,0,0,0,0,0,0,0"/><path class="cls-1" d="M15.51,7.41s0,0,0,0h0"/><path class="cls-1" d="M15.51,7.39s0,0,0,0h0v-.1s0,0,0,0v.1Z"/><path class="cls-1" d="M15.54,7.23v0s0,0,0,0"/><path class="cls-1" d="M15.7,6.11s0,0,0,0,0,0,0,0"/><path class="cls-1" d="M15.76,5.62s0,0,0,0h0v-.1s0,0,0,0v.1Z"/><path class="cls-1" d="M15.78,5.46v0Z"/><path class="cls-1" d="M15.79,5.39h0s0,0,0,0"/><path class="cls-1" d="M15.79,5.28v0s0,.07,0,0"/><path class="cls-1" d="M14.83,1.54s0,0-.07,0,0,0,.07,0"/><path class="cls-1" d="M12.32.93h0s0,0,0,0"/><path class="cls-1" d="M12,1S12,1,12,1,12,1,12,1"/><path class="cls-1" d="M11.75,1.1s0,0,0,0,0,0,0,0"/><path class="cls-1" d="M11.64,1.15s0,0,0,0"/><path class="cls-1" d="M11.45,1.24s0,0,0,0,0,0,0,0"/><path class="cls-1" d="M9.74,3.31s0,0,0,0,0,0,0,0"/><path class="cls-1" d="M12.82,15s0,0,0,0,0,0,0,0"/><path class="cls-1" d="M13.71,13.51h0"/><path class="cls-1" d="M14.6,11.35h0"/><path class="cls-1" d="M15,9.79s0,0,0,0h0"/><path class="cls-1" d="M15.05,9.77h0"/><path class="cls-1" d="M15.87,4.74s0,0,0,0h0"/><path class="cls-1" d="M15.87,4.65s0,0,0,0,0,0,0,0"/><path class="cls-1" d="M15.84,3.61s0,0,0,0V3.48s0,0,0,.06Z"/><path class="cls-1" d="M15.59,2.64s0,.06.06.09.06.21.09.32a1.13,1.13,0,0,1,.07.33c0,.05,0-.08,0,0s0-.08,0-.08a2.76,2.76,0,0,0-.17-.61"/><path class="cls-1" d="M13.23.86s-.09,0-.13,0H13s0,0,.05,0h.23"/><path class="cls-1" d="M12.66.86s0,0,0,0,0,0,0,0"/><path class="cls-1" d="M12.4.9s0,0-.06,0,0,0,.06,0"/><path class="cls-1" d="M12.23.93s0,0,0,0,0,0,0,0"/><path class="cls-1" d="M11.71,1.1s0,0,0,0,0,0,0,0"/><path class="cls-1" d="M11.64,1.15s0,0,0,0"/><path class="cls-1" d="M9.6,3.88v0s0-.12,0,0"/><path class="cls-1" d="M14.9,10.39a0,0,0,0,1,0,0v-.06s0,0,0,0Z"/><path class="cls-1" d="M14.92,10.29s0,0,0,0,0,0,0,0"/><path class="cls-1" d="M11.26,1.33s0,0,0,0,0,0,0,0"/><path class="cls-1" d="M9.62,3.66s0,0,0,0v.05s0,0,0,0Z"/><path class="cls-1" d="M13.13,14.7s0,.08-.08.06,0,0,0-.06l0,0s0,0,0,0"/><path class="cls-1" d="M15.51,7.77v0s0,0,0,0"/><path class="cls-1" d="M15.51,7.74s0,0,0,0v0"/><path class="cls-1" d="M9.49,4.71s0,0,0,0,0,0,0,0"/><path class="cls-1" d="M15.31,8.91h0"/><path class="cls-1" d="M13.13,14.7s0,0,0,0"/><path class="cls-1" d="M10.66,7h0s0,0,0,0"/><path class="cls-1" d="M13.9,13.38s0,0,0,0,0,0,0,0"/><path class="cls-1" d="M15,10.36s0,0,0,0,0,0,0,0"/><path class="cls-1" d="M15.06,10.14h0s0,0,0,0"/><path class="cls-1" d="M15.22,9.52s0,0,0,0h0"/><path class="cls-1" d="M15.48,8.3s0,0,0,0,0,0,0,0"/><path class="cls-1" d="M14.25,13.33h0"/><path class="cls-1" d="M14.37,13.09s0,0,0,0,0,0,0,0"/></svg>